<svg width="1440" height="1024" viewBox="0 0 1440 1024" fill="none" xmlns="http://www.w3.org/2000/svg">
<g clip-path="url(#clip0_51_1788)">
<rect width="1440" height="1024" fill="white"/>
<rect width="1440" height="1024" fill="#FFFDF8"/>
<g clip-path="url(#clip1_51_1788)">
<path d="M1290.39 144.798C1291.7 145.072 1292.36 146.097 1292.36 147.875C1292.36 148.831 1292.13 149.583 1291.68 150.13C1291.23 150.677 1290.64 150.95 1289.92 150.95C1289.69 150.95 1289.26 150.916 1288.63 150.848C1288 150.779 1287.32 150.711 1286.6 150.643C1285.88 150.574 1285.18 150.506 1284.5 150.437C1283.82 150.369 1283.35 150.335 1283.08 150.335H1282.33C1282.11 150.335 1281.88 150.359 1281.66 150.403C1280.89 150.359 1280 150.256 1278.98 150.095C1277.97 149.936 1276.97 149.754 1276 149.549C1275.03 149.344 1274.17 149.128 1273.43 148.9C1272.68 148.672 1272.24 148.467 1272.11 148.285C1271.66 146.918 1271.43 145.095 1271.43 142.816V141.688C1271.43 141.302 1271.45 140.902 1271.5 140.492L1271.9 135.639C1271.95 135.275 1271.97 134.921 1271.97 134.58V133.657V132.735C1271.97 132.484 1271.93 132.245 1271.84 132.017C1272.15 130.285 1272.38 128.838 1272.51 127.676C1272.65 126.514 1272.72 125.615 1272.72 124.976V124.429C1272.72 123.792 1272.99 121.764 1273.53 118.346C1274.21 116.888 1275.24 116.159 1276.64 116.159C1277.5 116.159 1278.22 116.49 1278.81 117.15C1279.4 117.811 1279.69 118.711 1279.69 119.85C1279.51 120.488 1279.34 121.285 1279.18 122.242C1279.03 123.199 1278.88 124.339 1278.74 125.66V126.207C1278.74 126.617 1278.71 127.244 1278.64 128.086C1278.57 128.93 1278.5 129.795 1278.41 130.684C1278.31 131.572 1278.24 132.37 1278.17 133.076C1278.1 133.783 1278.07 134.181 1278.07 134.272C1278.07 134.774 1278.09 135.093 1278.13 135.229C1277.95 137.143 1277.82 138.738 1277.73 140.014C1277.64 141.29 1277.59 142.27 1277.59 142.953C1277.59 143.409 1277.62 143.705 1277.66 143.841C1280.01 144.115 1281.57 144.252 1282.33 144.252C1282.69 144.252 1283.07 144.241 1283.45 144.217C1283.83 144.195 1284.23 144.183 1284.64 144.183C1286.35 144.183 1288.27 144.388 1290.39 144.798Z" fill="black"/>
<path d="M1314.84 125.219C1314.75 124.399 1314.63 123.693 1314.47 123.101C1314.31 122.509 1314.03 121.962 1313.62 121.46C1313.22 120.959 1312.65 120.481 1311.93 120.025C1311.21 119.57 1310.28 119.068 1309.16 118.521C1308.66 118.293 1308.16 118.123 1307.66 118.008C1307.17 117.895 1306.6 117.837 1305.97 117.837C1305.52 117.837 1304.97 117.895 1304.31 118.008C1303.66 118.123 1303.01 118.225 1302.38 118.316C1301.61 118.452 1300.85 118.589 1300.08 118.726C1299.54 120.595 1299.27 124.194 1299.27 129.526C1299.27 130.073 1299.33 131.178 1299.47 132.841C1299.61 134.505 1299.83 136.771 1300.15 139.642C1300.28 141.101 1300.49 142.422 1300.76 143.607C1301.57 143.379 1303.56 142.353 1306.72 140.531C1307.12 140.303 1307.78 139.79 1308.68 138.992C1309.58 138.196 1310.5 137.17 1311.42 135.917C1312.35 134.664 1313.15 133.206 1313.83 131.542C1314.5 129.879 1314.84 128.068 1314.84 126.108V125.219ZM1321.14 126.792C1321.1 128.478 1320.91 129.948 1320.57 131.2C1320.23 132.454 1319.72 133.695 1319.04 134.926C1318.37 136.156 1317.51 137.489 1316.47 138.924C1315.43 140.36 1314.17 142.058 1312.68 144.016C1312.45 144.108 1312 144.404 1311.32 144.905C1310.64 145.407 1309.89 145.93 1309.05 146.477C1308.22 147.024 1307.38 147.536 1306.55 148.015C1305.71 148.493 1305.07 148.756 1304.62 148.801C1303.62 148.892 1302.65 149.085 1301.7 149.382C1300.76 149.678 1299.83 150.054 1298.93 150.51C1296.26 150.51 1294.77 149.553 1294.46 147.639C1294.46 147.412 1294.47 147.138 1294.49 146.819C1294.51 146.501 1294.53 146.159 1294.53 145.794C1294.53 143.516 1294.31 140.849 1293.88 137.796C1293.45 134.744 1293.24 131.508 1293.24 128.09C1293.24 124.901 1293.58 120.527 1294.25 114.967C1294.62 114.102 1295.14 113.463 1295.81 113.053C1296.49 112.643 1297.28 112.437 1298.18 112.437C1298.95 112.437 1299.7 112.62 1300.42 112.985C1302.59 112.256 1304.68 111.891 1306.72 111.891C1307.98 111.891 1309.27 112.074 1310.58 112.437C1311.89 112.803 1313.09 113.281 1314.2 113.873C1315.31 114.466 1316.29 115.127 1317.15 115.855C1318 116.585 1318.64 117.291 1319.04 117.974C1320.44 122.03 1321.14 124.97 1321.14 126.792Z" fill="black"/>
<path d="M1326.38 192.952C1325.84 193.143 1326.4 193.854 1326.4 194.038C1327.16 193.417 1326.25 192.756 1326.38 192.952Z" fill="black"/>
<path d="M1333.28 186.584L1333.35 186.98L1333.93 185.468L1333.28 186.584Z" fill="black"/>
<path d="M1339.93 181.389C1339.15 181.105 1338.6 181.611 1338.07 182.3C1337.54 182.981 1337 183.824 1336.26 184.09C1336.12 184.052 1335.99 184.007 1335.85 183.963L1336.03 185.337C1336.74 184.743 1337.37 183.829 1338.03 183.076C1338.67 182.306 1339.32 181.67 1339.93 181.389Z" fill="black"/>
<path d="M1345.51 180.55C1345.2 180.452 1345.28 180.175 1345.29 180.147C1345.29 180.133 1345.28 180.18 1345.19 180.344C1345.11 180.511 1344.93 180.782 1344.6 181.203C1344.72 181.175 1344.77 181.18 1344.85 181.171C1344.98 181.03 1345.18 180.859 1345.51 180.55Z" fill="black"/>
<path d="M1344.85 181.171C1344.2 181.85 1345.64 181.097 1344.85 181.171V181.171Z" fill="black"/>
<path d="M1347.53 177.779L1347.1 179.042C1347.52 179.087 1348.33 178.319 1348.24 178.793C1348.89 177.652 1348.44 177.628 1347.53 177.779Z" fill="black"/>
<path d="M1347.46 176.184C1347.39 176.396 1347.31 176.608 1347.23 176.808C1347.41 176.824 1347.56 176.735 1347.46 176.184Z" fill="black"/>
<path d="M1346.68 178.108L1347.23 176.808C1346.92 176.779 1346.55 176.465 1346.94 177.373C1346.68 176.995 1346.83 177.474 1346.68 178.108Z" fill="black"/>
<path d="M1346 178.512C1345.3 178.793 1344.56 179.286 1345 178.039C1343.6 179.869 1344.58 180.382 1346 178.512Z" fill="black"/>
<path d="M1339.2 179.925C1338.89 180.008 1338.6 180.106 1338.28 180.173L1338.05 181.032C1338.11 180.817 1338.49 180.634 1338.81 180.454C1339.12 180.261 1339.38 180.083 1339.2 179.925Z" fill="black"/>
<path d="M1352.85 172.18C1352.63 171.933 1351.91 172.03 1351.53 171.865L1351.31 172.825C1351.75 172.573 1352.42 171.959 1352.85 172.18Z" fill="black"/>
<path d="M1351.52 171.865L1351.83 170.443C1351.1 171.39 1351.19 171.721 1351.52 171.865Z" fill="black"/>
<path d="M1346.32 174.927L1346.2 175.535L1346.06 176.125L1345.77 177.312C1346.06 176.409 1346.35 175.526 1346.56 174.595L1346.32 174.927Z" fill="black"/>
<path d="M1355.69 167.767L1355.93 168.824L1355.67 167.051L1355.69 167.767Z" fill="black"/>
<path d="M1357.24 164.648C1357.53 165.455 1358.53 164.414 1358.59 165.141C1358.92 164.225 1358.81 163.254 1358.71 162.397C1358.6 163.205 1358.17 163.928 1357.24 164.648Z" fill="black"/>
<path d="M1358.57 160.992C1358.56 161.405 1358.66 161.89 1358.71 162.397C1358.77 161.973 1358.73 161.505 1358.57 160.992Z" fill="black"/>
<path d="M1353.21 168.621C1353.43 168.635 1353.96 168.735 1354.53 168.189L1353.49 168.173C1353.4 168.31 1353.31 168.464 1353.21 168.621Z" fill="black"/>
<path d="M1353.46 168.174L1353.49 168.173C1353.8 167.693 1354.02 167.361 1354.11 167.218C1354.03 167.339 1353.83 167.626 1353.46 168.174Z" fill="black"/>
<path d="M1353.14 168.733C1353.17 168.692 1353.18 168.662 1353.21 168.621C1353.11 168.616 1353.07 168.628 1353.14 168.733Z" fill="black"/>
<path d="M1349.09 172.754C1349.14 172.305 1349.25 171.652 1349.19 171.231C1349.12 170.809 1348.86 170.61 1348.12 171.006C1348.21 171.413 1348.47 171.504 1348.7 171.666C1348.93 171.826 1349.15 172.07 1349.09 172.754Z" fill="black"/>
<path d="M1351.86 168.681L1350.9 169.719C1351.11 169.831 1351.54 169.817 1351.53 170.276L1351.86 168.681Z" fill="black"/>
<path d="M1351.96 167.938L1351.86 168.681L1352.19 168.276L1351.96 167.938Z" fill="black"/>
<path d="M1356.76 162.865C1356.72 162.501 1356.77 162.165 1356.86 161.833C1356.95 161.5 1357.1 161.172 1357.21 160.805C1356.98 161.148 1356.72 161.482 1356.5 161.831C1356.27 162.179 1356.07 162.534 1355.9 162.891C1356.1 163.118 1356.39 163.666 1356.76 162.865Z" fill="black"/>
<path d="M1355.17 165.464C1355.17 165.418 1355.19 165.366 1355.19 165.319C1355.09 165.358 1355.03 165.402 1355.17 165.464Z" fill="black"/>
<path d="M1359.86 153.817C1359.8 153.842 1359.73 153.856 1359.67 153.88C1359.72 153.905 1359.76 153.927 1359.81 153.955L1359.86 153.817Z" fill="black"/>
<path d="M1355.68 162.936C1355.26 163.4 1355.29 163.824 1355.38 164.266C1355.51 163.815 1355.67 163.357 1355.9 162.891C1355.8 162.787 1355.73 162.741 1355.68 162.936Z" fill="black"/>
<path d="M1359 158.865C1358.7 159.091 1358.41 159.366 1358.13 159.661C1358.51 159.486 1359.17 159.06 1359 158.865Z" fill="black"/>
<path d="M1355.5 165.255C1355.5 165.289 1355.5 165.322 1355.5 165.357C1355.76 165.269 1355.66 165.246 1355.5 165.255Z" fill="black"/>
<path d="M1355.5 165.255C1355.53 164.909 1355.45 164.581 1355.38 164.266C1355.28 164.632 1355.21 164.987 1355.19 165.319C1355.28 165.282 1355.4 165.262 1355.5 165.255Z" fill="black"/>
<path d="M1354.95 150.056C1355.34 150.217 1355.64 150.715 1355.66 151.292C1355.66 151.864 1355.41 152.521 1354.78 152.985C1354.98 154.381 1357.82 154.547 1359.67 153.88C1359.33 153.729 1359.02 153.615 1358.98 152.162C1358.39 152.501 1357.01 154.706 1356.65 153.381C1356.73 152.473 1356.91 152.155 1357.16 151.972C1357.42 151.789 1357.75 151.746 1358.06 151.385C1356.88 151.791 1357.17 148.787 1355.59 148.785L1355.73 150.383C1355.49 150.342 1355.26 149.714 1354.95 150.056Z" fill="black"/>
<path d="M1358.74 156.386C1358.71 156.58 1358.69 156.778 1358.65 156.968C1359 156.399 1359.46 156.069 1360.36 155.449C1360.28 154.388 1360.05 154.105 1359.81 153.955L1358.79 156.617L1358.74 156.386Z" fill="black"/>
<path d="M1357.66 159.365C1357 158.583 1357.15 157.192 1355.92 157.583C1355.36 159.117 1356.19 158.941 1356.16 160.019C1356.99 157.442 1356.33 160.945 1357.55 159.343C1357.49 159.9 1357.35 160.367 1357.2 160.805C1357.5 160.395 1357.8 160.011 1358.13 159.661C1358.1 159.675 1358.08 159.685 1358.06 159.697L1358.05 159.709C1358.05 159.708 1358.05 159.704 1358.04 159.702C1357.89 159.766 1357.81 159.775 1357.92 159.677C1357.92 159.664 1357.93 159.632 1357.93 159.617C1357.82 159.55 1357.74 159.459 1357.66 159.367C1358.14 158.709 1357.93 159.343 1357.93 159.617C1357.97 159.643 1358 159.68 1358.04 159.702C1358.05 159.701 1358.05 159.699 1358.06 159.697L1358.65 156.968C1358.31 157.458 1358.05 158.135 1357.66 159.365Z" fill="black"/>
<path d="M1347.31 168.718C1347.42 168.699 1347.47 168.74 1347.53 168.773C1347.53 168.572 1347.51 168.478 1347.31 168.718Z" fill="black"/>
<path d="M1348.36 168.166C1348.36 168.391 1348.57 168.727 1348.15 169.178C1347.62 169.455 1347.79 168.923 1347.53 168.773C1347.53 169.209 1347.33 170.213 1348.35 169.518L1348.35 169.295C1349.2 168.624 1350.92 168.124 1350.92 168.343C1350.06 168.149 1349.41 168.053 1348.36 168.166Z" fill="black"/>
<path d="M1353.03 163.913L1353.61 161.743L1352.42 162.372L1352.86 162.542C1352.15 163.559 1352.78 163.599 1353.03 163.913Z" fill="black"/>
<path d="M1360.38 153.707L1361.19 154.293C1360.91 153.727 1360.61 153.168 1360.32 152.619L1360.38 153.707Z" fill="black"/>
<path d="M1361.09 150.8L1361.87 151.125L1361.58 150.225L1361.09 150.8Z" fill="black"/>
<path d="M1261.54 91.859L1261.27 92.4092C1261.43 92.1784 1261.5 92.0055 1261.54 91.859Z" fill="black"/>
<path d="M1264.74 89.2961L1264.57 88.9014C1264.55 89.2033 1264.6 89.386 1264.74 89.2961Z" fill="black"/>
<path d="M1341.06 84.1768C1340.85 82.9464 1340.77 81.2689 1340.26 82.0781L1339.9 82.9865C1340.53 83.3093 1340.86 83.7351 1341.06 84.1768Z" fill="black"/>
<path d="M1295.53 73.2763L1295.81 73.5493C1296.01 73.2265 1296.21 72.9229 1296.38 72.6516C1296.13 72.8394 1295.84 73.0528 1295.53 73.2763Z" fill="black"/>
<path d="M1295.09 77.1096C1294.71 76.9265 1294.33 76.7668 1293.95 76.5943C1294.21 76.7847 1294.58 76.9474 1295.09 77.1096Z" fill="black"/>
<path d="M1249.01 110.069L1249.59 111.06C1249.99 110.145 1249.39 110.341 1249.01 110.069Z" fill="black"/>
<path d="M1361.7 120.551C1361.87 119.652 1361.86 118.956 1361.77 118.365C1361.49 119.492 1360.9 120.44 1361.7 120.551Z" fill="black"/>
<path d="M1256.57 83.2406C1256.37 83.6371 1256.36 83.8947 1256.5 84.0442C1256.71 83.6507 1256.78 83.3585 1256.57 83.2406Z" fill="black"/>
<path d="M1361.16 115.981C1361.12 116.15 1361.11 116.304 1361.08 116.471C1361.4 117.025 1361.66 117.609 1361.77 118.365C1361.88 117.95 1361.94 117.513 1361.87 117.097C1361.8 116.685 1361.58 116.297 1361.16 115.981Z" fill="black"/>
<path d="M1269.09 180.906C1269.12 180.972 1269.17 181.029 1269.19 181.1C1269.27 181.003 1269.2 180.953 1269.09 180.906Z" fill="black"/>
<path d="M1289.91 197.927C1289.64 197.951 1289.2 197.896 1288.79 197.854C1288.98 197.943 1289.32 197.981 1289.91 197.927Z" fill="black"/>
<path d="M1363.52 138.997C1363.52 139.636 1363.61 139.106 1363.52 138.997V138.997Z" fill="black"/>
<path d="M1359.6 141.623C1359.51 141.483 1359.39 141.37 1359.18 141.33C1359.39 141.405 1359.52 141.506 1359.6 141.623Z" fill="black"/>
<path d="M1353.88 112.021C1353.88 112.005 1353.87 111.992 1353.87 111.974C1353.76 112.199 1353.78 112.159 1353.88 112.021Z" fill="black"/>
<path d="M1363.01 139.912C1363.14 139.687 1363.27 139.422 1363.36 139.129C1363.28 139.254 1363.16 139.492 1363.01 139.912Z" fill="black"/>
<path d="M1363.45 139.824C1363.39 140.039 1363.35 140.209 1363.3 140.37C1363.45 140.465 1363.55 140.403 1363.45 139.824Z" fill="black"/>
<path d="M1363.53 138.109C1363.53 138.291 1363.52 138.467 1363.49 138.636C1363.46 138.806 1363.41 138.969 1363.36 139.129C1363.44 139.01 1363.49 138.962 1363.52 138.997C1363.53 138.81 1363.54 138.547 1363.53 138.109Z" fill="black"/>
<path d="M1242.06 147.103C1242.04 147.146 1242.03 147.191 1242 147.239C1242.49 147.695 1242.38 147.47 1242.06 147.103Z" fill="black"/>
<path d="M1323.27 83.4713C1323.3 83.4743 1323.32 83.4589 1323.35 83.4611C1323.33 83.4398 1323.31 83.413 1323.29 83.3938L1323.27 83.4713Z" fill="black"/>
<path d="M1321.26 83.2335C1322.49 82.5168 1322.85 82.9034 1323.29 83.394C1323.5 82.5061 1323.71 81.6135 1323.9 80.7162C1323 81.53 1322.13 82.3652 1321.26 83.2335Z" fill="black"/>
<path d="M1237.23 155.072L1237.36 154.597C1237.93 155.37 1237.59 155.216 1237.23 155.072ZM1362.45 134.166C1362.59 134.379 1362.73 134.367 1362.88 134.278C1362.62 134.127 1362.63 133.652 1362.68 133.11C1362.41 133.263 1362.26 133.534 1362.45 134.166ZM1362.87 132.042C1362.86 132.023 1362.84 132.009 1362.82 131.994C1363.19 130.956 1363.04 131.325 1362.87 132.042ZM1298.7 75.2142C1298.39 75.5502 1297.93 75.3497 1297.4 74.9864C1297.78 74.8825 1298.22 74.9366 1298.7 75.2142ZM1269.55 85.4968C1269.31 85.8677 1269.02 86.8553 1268.46 86.4959C1268.22 85.2626 1268.8 85.5274 1269.55 85.4968ZM1255 99.1471C1255.49 98.969 1255.97 98.7902 1256.47 98.6424C1256.5 100.737 1255.5 101.319 1257.13 101.095C1256.6 100.611 1256.51 100.109 1256.64 99.5938C1256.79 99.0853 1257.18 98.5875 1257.57 98.0807C1257.76 97.8281 1257.95 97.5752 1258.12 97.3214C1258.29 97.0752 1258.44 96.8325 1258.53 96.5833C1258.72 96.0868 1258.68 95.5732 1258.2 95.0366L1259.23 94.8224C1259.04 94.9859 1259.13 95.1341 1258.94 95.2947C1260 95.1558 1259.88 94.5997 1259.71 93.865C1259.54 93.1441 1259.33 92.26 1260.3 91.6429C1261.04 91.2903 1261.71 91.2532 1261.54 91.8592L1262.39 90.177C1262.82 89.9079 1263.03 90.3717 1262.61 90.6425L1264.53 88.8219L1264.57 88.9016C1264.59 88.3135 1264.89 87.2496 1265.07 86.7531C1265.86 86.6939 1264.97 87.2036 1265.31 87.3944C1265.58 86.9192 1265.85 86.429 1266.13 85.9554C1266.6 86.1036 1266.66 86.4933 1266.51 86.9094C1266.37 87.3352 1266.01 87.785 1265.57 88.0354C1266.95 88.8151 1267.07 88.5034 1267.29 87.9383C1267.51 87.4004 1267.85 86.6104 1269.51 86.5367L1268.57 87.5827C1269.37 88.0392 1269.9 87.9992 1270.46 87.8671C1271.03 87.7513 1271.63 87.5282 1272.51 87.6057C1272.23 87.4592 1271.28 87.2692 1270.49 86.9554C1269.7 86.6398 1269.09 86.1999 1269.59 85.4942C1270.09 85.4572 1270.64 85.2587 1271.1 84.318C1271.59 85.2025 1272.2 84.6105 1273.1 84.0812L1273.64 85.3298C1274.44 84.4747 1274.06 83.8844 1274.4 83.0604C1275.6 82.6614 1276.25 83.5203 1276.86 84.2192C1277.79 83.9381 1277.33 83.6881 1276.87 83.3457C1276.64 83.1771 1276.41 83.0042 1276.37 82.7887C1276.33 82.5702 1276.48 82.3271 1277.01 82.0515C1277.88 81.9932 1278.52 81.704 1279.17 81.2905C1279.81 80.8872 1280.45 80.2982 1281.29 79.593C1282.56 79.7212 1281.33 80.4468 1281.85 80.7045L1282.54 79.3771C1282.8 79.3324 1282.8 79.676 1282.81 79.8498C1283.54 79.2059 1282.51 78.5083 1283.78 77.7835C1283.78 77.0131 1284.63 77.3772 1285.61 77.6855C1286.59 77.9675 1287.7 78.3158 1288.41 77.3108C1288.89 77.6174 1288.34 78.171 1288.56 78.668C1289.61 77.8912 1290.1 77.6694 1290.51 77.3504C1290.93 77.0489 1291.29 76.6826 1292.2 75.8313L1293.95 76.5945C1293.3 76.1316 1293.34 75.5694 1293.72 74.9838C1294.1 74.4013 1294.83 73.7752 1295.53 73.2765C1295.06 72.7928 1294.64 72.3695 1294.36 72.1919C1295.13 71.8921 1295.91 71.654 1296.7 71.3823C1296.99 71.5986 1296.75 72.0731 1296.38 72.6514C1296.54 72.5351 1296.69 72.4201 1296.81 72.3137C1297.65 72.7962 1297.21 73.593 1296.65 74.3685C1296.37 74.1074 1296.08 73.828 1295.8 73.5491C1295.26 74.391 1294.8 75.319 1294.95 76.1132C1295.09 75.9523 1295.36 75.8104 1295.66 75.727C1295.52 75.9557 1295.44 76.158 1295.51 76.2925C1295.59 76.4335 1295.81 76.1273 1296.16 75.77L1296.7 77.2758L1296.8 76.6698C1297.76 76.9398 1298.7 77.2989 1299.63 77.6383C1300.66 76.8772 1301.66 76.0259 1302.86 75.2824C1303.16 75.0967 1303.48 74.9191 1303.8 74.7539C1304.13 74.5993 1304.47 74.4681 1304.83 74.3502C1305.54 74.1215 1306.33 73.946 1307.21 73.923C1306.2 74.8936 1306.76 75.6921 1306.51 76.9846C1306.17 76.238 1305.51 76.3032 1304.75 76.4948C1304.37 76.5932 1303.96 76.7124 1303.55 76.7963C1303.14 76.89 1302.72 76.9301 1302.3 76.8274C1303.17 77.0408 1302.91 77.6532 1302.68 77.8529C1303.7 77.4803 1304.72 77.2294 1305.78 76.9254C1305.56 77.9943 1306.3 77.7848 1306.98 78.3797C1306.86 77.2746 1307.46 77.0233 1308.28 76.9965C1308.68 76.9871 1309.14 77.0165 1309.57 77.0527C1310.01 77.094 1310.42 77.111 1310.76 77.0225C1310.67 77.7456 1310.23 78.3639 1308.82 77.898C1309.47 78.8298 1310.09 78.3644 1310.75 77.8363C1311.09 77.5765 1311.42 77.3103 1311.76 77.2154C1312.09 77.1166 1312.43 77.1962 1312.73 77.6455C1312.37 77.5595 1312.21 77.3968 1311.98 77.7217C1312.97 77.3248 1314.86 78.407 1314.2 78.8605L1313.85 78.7749C1314.13 78.8907 1314.46 78.9998 1314.8 79.1241C1315.14 79.2566 1315.51 79.3877 1315.9 79.5112C1316.67 79.7565 1317.5 79.9643 1318.28 80.1564C1319.05 80.3366 1319.81 80.4124 1320.43 80.3902C1321.04 80.3715 1321.54 80.2079 1321.81 79.8336C1321.73 80.0576 1320.63 81.6921 1320.36 81.9689C1321.4 81.3386 1322.5 80.7058 1323.61 80.1206C1324.71 79.5517 1325.85 78.9989 1327.03 78.4649C1326.48 79.0564 1326.13 80.351 1325.61 81.4655C1325.09 82.5804 1324.42 83.5225 1323.35 83.4611C1323.75 83.9228 1324.25 84.4457 1325.55 84.5841C1325.33 84.2009 1325.78 82.1256 1326.33 82.2776C1326.56 83.4126 1326.67 83.7384 1326.83 84.0625C1326.98 84.3857 1327.21 84.6923 1327.57 85.8166C1327.25 85.2157 1329.08 83.4977 1329.86 84.0952C1329.54 84.3201 1328.62 86.1526 1328.2 86.1824C1328.73 86.0547 1329.28 85.9312 1329.83 85.8119C1330.36 85.708 1330.91 85.6105 1331.46 85.5159C1330.73 85.5215 1330.23 87.1223 1330.25 87.9681C1330.29 87.7074 1330.68 88.0051 1331.15 88.3863C1331.6 88.7776 1332.11 89.281 1332.42 89.3739L1331.99 88.3279C1332.9 89.287 1333.94 89.0068 1334.99 88.7751C1336.03 88.5421 1337.14 88.2981 1338.12 89.2627C1337.83 89.3266 1337.17 89.7588 1336.69 90.3133C1336.21 90.8648 1335.9 91.5385 1336.27 92.1066C1336.9 91.8669 1338.39 91.2596 1340.07 90.887C1341.72 90.5352 1343.56 90.4381 1344.77 91.0739L1344.57 91.9125L1346.45 92.8783C1345.34 93.0044 1343.53 93.0516 1341.73 93.1181C1340.82 93.1607 1339.92 93.1977 1339.11 93.2186C1338.7 93.2288 1338.32 93.2343 1337.97 93.2335C1337.62 93.2407 1337.29 93.242 1337.01 93.2326C1337.32 94.3007 1336.64 93.9954 1337.67 94.9936C1337.54 95.8164 1336.44 95.1175 1336.12 94.8573C1336.45 95.2942 1336.77 95.7491 1337.1 96.1907C1337.42 96.6383 1337.75 97.0667 1338.04 97.5352C1338.99 96.4671 1340.78 98.5023 1341.59 97.6744C1341.02 97.3448 1340.42 97.0522 1339.84 96.7482C1339.26 96.4479 1338.69 96.1481 1338.09 95.8883C1338.55 95.3551 1339.67 95.0166 1340.82 95.155C1341.98 95.2849 1343.27 95.813 1343.92 96.9036C1343.87 97.7549 1341.66 98.1148 1341.33 98.464C1341.89 98.3992 1343.48 99.6807 1343.31 100.09L1342.71 99.9L1342.09 99.7313C1342.3 100.407 1342.96 100.582 1343.6 100.836C1343.92 100.966 1344.22 101.12 1344.43 101.373C1344.54 101.5 1344.62 101.651 1344.67 101.835C1344.72 102.024 1344.73 102.247 1344.69 102.511C1344.92 103.042 1344.03 104.887 1344.8 104.515C1345.7 102.917 1349.78 99.9809 1351.18 99.9038C1351.19 100.029 1351.32 100.915 1351.33 101.919C1351.35 102.916 1351.31 103.986 1351.13 104.475C1350.8 105.219 1349.97 105.242 1349.14 105.278C1348.31 105.307 1347.5 105.331 1347.22 105.942C1347.57 105.78 1348.25 105.99 1348.49 106.11C1348.46 106.799 1347.32 106.467 1348.05 107.524C1349.43 107.051 1349.13 109.918 1349.41 107.51C1350.37 108.462 1349.74 108.86 1350.41 110.188C1350.74 109.781 1351.6 109.759 1352.5 109.993C1353.4 110.22 1354.29 110.739 1354.74 111.292C1354.37 111.353 1354.03 111.809 1353.88 112.021C1353.99 112.345 1354.09 112.65 1354.16 112.946C1354.23 113.246 1354.29 113.533 1354.34 113.81C1354.44 114.366 1354.52 114.884 1354.59 115.393C1354.74 116.413 1354.81 117.418 1355.16 118.621C1354.89 118.936 1354.73 120.201 1354.02 119.853C1354.35 120.134 1354.89 120.34 1355.1 121.08C1354.21 122.773 1354.53 119.476 1353.32 120.896C1353.74 120.847 1354.13 121.255 1354.51 121.799C1354.87 122.347 1355.2 123.036 1355.55 123.527C1356.16 123.252 1356.11 122.61 1355.82 121.923C1355.52 121.237 1354.94 120.526 1354.57 120.058C1355.44 119.847 1356.43 120.097 1357.39 120.739C1357.88 121.058 1358.33 121.479 1358.74 121.986C1359.15 122.491 1359.53 123.079 1359.85 123.731C1360.6 125.854 1358.84 124.837 1359.15 125.181C1359.19 126.204 1359.45 126.905 1359.76 127.451C1360.06 127.998 1360.45 128.385 1360.8 128.758C1361.51 129.501 1362.13 130.21 1361.51 131.98C1360.42 133.379 1359.26 132.09 1358.45 132.414C1358.21 131.552 1358.39 130.884 1358.58 130.274C1358.76 129.665 1359 129.113 1358.93 128.521L1358.5 130.014C1358.08 129.481 1357.71 128.363 1357.99 127.704C1357.76 128.004 1357.66 128.571 1357.64 129.301C1357.62 129.666 1357.63 130.072 1357.64 130.506C1357.64 130.941 1357.64 131.405 1357.64 131.884C1357.64 132.362 1357.64 132.856 1357.64 133.352C1357.65 133.847 1357.58 134.343 1357.54 134.826C1357.43 135.792 1357.28 136.705 1357.01 137.446C1357.4 138.005 1357.68 138.972 1358.18 138.566C1358.17 138.239 1358.12 137.91 1358.08 137.583C1358.55 137.163 1358.85 137.639 1359.09 138.081C1359.33 138.521 1359.46 138.919 1359.75 138.306C1360.24 139.676 1361.1 141.337 1360.35 143.182L1359.01 143.338C1359.19 143.347 1359.46 143.075 1359.59 142.719C1359.73 142.363 1359.77 141.93 1359.61 141.64C1359.73 141.855 1359.66 142.13 1359.52 142.435C1359.44 142.588 1359.35 142.749 1359.25 142.913C1359.14 143.076 1359.03 143.243 1358.92 143.411C1358.5 144.085 1358.21 144.771 1358.97 145.355L1360.09 144.196C1360.29 144.924 1360.65 145.776 1360.86 146.661C1360.97 147.103 1361.05 147.555 1361.04 147.993C1361.01 148.428 1360.91 148.855 1360.71 149.254C1362.14 148.775 1360.68 148.844 1362.41 147.947C1360.4 148.624 1363.31 143.509 1361.07 144.871C1362.04 144.397 1362.32 143.874 1362.57 143.3C1362.79 142.718 1362.98 142.088 1363.81 141.325C1363.38 141.329 1362.93 141.827 1363.3 140.37C1363.19 140.29 1363.05 140.118 1362.96 140.009C1362.98 139.965 1362.99 139.95 1363.01 139.912C1362.99 139.94 1362.97 139.961 1362.95 139.989C1362.89 139.919 1362.88 139.912 1362.93 140.017C1362.7 140.351 1362.45 140.61 1362.2 140.698C1361.75 140.284 1361.6 139.508 1361.5 138.737C1361.39 137.965 1361.27 137.191 1361.04 136.794C1361.28 135.951 1361.52 137.175 1361.99 136.73L1361.27 135.54C1362.22 135.467 1362.93 133.26 1363.41 135.336C1363.44 134.714 1363.5 134.092 1363.51 133.469C1364 132.369 1364.2 130.818 1363.74 129.904C1363.88 128.999 1362.53 127.758 1363.33 128.465L1362.92 127.031L1362.45 125.617L1362.68 125.561C1362.62 124.843 1362.46 124.125 1362.23 123.412C1361.99 122.7 1361.71 121.987 1361.49 121.256C1361.27 120.522 1361.04 119.785 1360.95 118.997C1360.85 118.212 1360.9 117.374 1361.08 116.471C1360.83 116.034 1360.57 115.596 1360.35 115.064C1360.24 114.798 1360.13 114.509 1360.05 114.183C1359.95 113.862 1359.86 113.506 1359.8 113.1L1360.48 112.538C1360.13 111.992 1360.06 111.018 1359.86 110.174C1359.68 109.328 1359.45 108.584 1358.96 108.496C1359.76 107.434 1359.2 105.964 1358.43 104.494C1358.03 103.769 1357.53 103.061 1357.11 102.392C1356.9 102.06 1356.71 101.733 1356.54 101.431C1356.36 101.131 1356.22 100.846 1356.12 100.578L1355.15 101.037C1354.8 100.366 1354.39 99.7433 1353.88 99.1364C1353.35 98.5368 1352.75 97.9355 1352.08 97.2703L1351.35 97.895C1350.61 97.4402 1350.15 96.5425 1349.7 95.4608C1349.49 94.9169 1349.24 94.3595 1348.95 93.8084C1348.66 93.2573 1348.33 92.7143 1347.92 92.2331C1348.31 92.1365 1348.63 92.705 1348.73 93.1994C1348.67 91.3171 1347.27 90.3461 1345.92 89.4833C1344.5 88.6618 1343.12 87.9417 1342.66 86.4524C1341.93 86.2331 1341.66 85.8098 1341.48 85.3026C1341.53 85.3439 1341.58 85.3699 1341.63 85.3818C1341.59 85.3268 1341.52 85.2494 1341.44 85.1812C1341.32 84.8614 1341.22 84.5143 1341.06 84.177C1341.13 84.5407 1341.2 84.8627 1341.32 85.085C1340.92 84.7536 1340.24 84.3163 1339.5 83.9896L1339.9 82.9863C1339.85 82.9548 1339.81 82.919 1339.75 82.8888C1339.4 82.095 1338.97 82.8713 1338.8 83.7205C1338.39 83.6008 1337.98 83.5425 1337.62 83.5629C1337.89 82.7274 1337.4 82.5178 1336.91 82.2866C1336.66 82.1703 1336.41 82.0481 1336.25 81.8339C1336.08 81.6278 1335.99 81.3309 1336.08 80.8506C1335.61 81.0443 1334.73 80.6078 1333.8 80.2855C1332.85 79.9827 1331.85 79.8234 1331.2 80.4784C1331.31 80.2642 1331.18 80.0482 1331.53 80.2565C1331.23 79.9414 1330.93 79.6249 1330.59 79.3907C1330.25 79.1654 1329.86 79.0342 1329.41 79.0641L1329.74 77.7558C1328.91 77.9538 1328.11 78.1412 1327.3 78.3716C1326.69 77.1647 1326.46 76.5263 1327.93 76.1597C1326.36 76.2146 1325.82 76.0975 1325.31 76.0008C1324.8 75.9242 1324.32 75.8624 1322.99 76.0919L1323.43 75.3671C1322.67 75.0328 1321.04 75.6094 1320.84 74.7841C1320.3 73.6909 1318.18 72.8196 1315.66 72.0458C1315.03 71.8525 1314.37 71.6527 1313.71 71.4513C1313.05 71.2745 1312.38 71.0867 1311.72 70.8793C1311.39 70.7759 1311.06 70.6673 1310.74 70.5531C1310.41 70.453 1310.09 70.3496 1309.78 70.2376C1309.15 70.0144 1308.55 69.7627 1307.99 69.4731C1308.25 70.7899 1307.76 70.3879 1307.13 69.9659C1306.49 69.5336 1305.71 69.0123 1305.51 69.9556C1305.31 69.339 1304.67 68.9238 1305.5 68.5166C1304.25 68.6248 1303.36 68.3667 1302.54 68.1891C1302.13 68.1065 1301.74 68.0588 1301.34 68.1248C1300.94 68.1964 1300.54 68.4051 1300.1 68.7969C1299.84 68.2002 1300.66 67.9515 1300.42 67.5955C1300.22 67.7173 1299.62 68.0857 1299.37 67.7275C1299.13 67.3723 1299.75 67.2454 1300.15 67.0001C1298.87 67.018 1298.16 67.4728 1297.77 68.1487C1297.37 68.8348 1297.27 69.7142 1297.19 70.565C1295.96 69.7959 1295.31 69.9139 1294.49 71.0667C1294.04 70.548 1293.28 70.0093 1294.79 69.7142C1294.36 69.6861 1293.04 69.5958 1291.82 69.6631C1290.61 69.747 1289.51 70.0796 1289.56 70.7495C1289.25 70.4428 1288.36 70.7959 1288.17 70.9918C1287.22 71.1195 1286.7 71.1613 1286.19 71.2286C1285.68 71.2971 1285.17 71.3759 1284.27 71.6638L1284.83 71.7626C1284.46 73.541 1283.4 72.4525 1281.99 73.0197L1281.99 72.8464C1280.18 72.7468 1279.85 72.9904 1279.54 73.2063C1279.21 73.4145 1278.92 73.6364 1277.08 73.5457L1277.59 74.4515C1277.69 74.9962 1277.54 75.2509 1277.24 75.3501C1276.93 75.4429 1276.46 75.3986 1275.94 75.3484C1275.41 75.293 1274.81 75.2198 1274.25 75.256C1273.97 75.2743 1273.7 75.3194 1273.45 75.408C1273.2 75.5072 1272.98 75.6486 1272.8 75.8475L1273.67 76.0894C1273.33 76.6562 1272.37 76.2768 1271.31 75.8002C1270.78 75.5651 1270.23 75.2909 1269.74 75.1163C1269.26 74.9425 1268.83 74.842 1268.55 74.9106C1268.24 74.8527 1268.76 74.4587 1269 74.1738C1265.77 74.3838 1269.25 75.5468 1267.47 76.8206C1266.77 76.3824 1267.06 74.937 1265.69 75.5673C1265.23 75.5064 1264.56 76.5472 1263.76 77.6089C1263.37 78.151 1262.93 78.6901 1262.45 79.0892C1262.2 79.2889 1261.95 79.4529 1261.67 79.5679C1261.41 79.6922 1261.12 79.765 1260.82 79.7701C1261.5 79.9665 1262.15 80.1777 1261.58 81.1027C1261.3 81.3663 1260.87 81.5405 1260.39 81.6929C1259.9 81.8407 1259.35 81.9749 1258.86 82.1691C1257.86 82.5485 1256.95 83.0659 1256.98 84.1966C1256.74 84.2073 1256.59 84.1455 1256.5 84.0446C1256.19 84.6067 1255.59 85.3797 1255.09 86.1543C1254.61 86.9579 1254.22 87.7615 1254.3 88.3433C1252.68 87.4247 1251.7 89.0885 1250.89 90.6212C1250.14 92.2097 1249.53 93.6679 1248.3 92.6381L1247.25 94.1269C1246.9 94.6231 1246.54 95.1137 1246.22 95.6324L1246.01 95.3581C1245.25 96.249 1244.91 96.979 1244.79 97.6178C1244.69 98.2706 1244.79 98.8285 1244.9 99.3787C1244.43 99.7058 1244.38 99.2165 1244.27 99.0866C1243.07 100.325 1242.52 101.098 1242.22 101.922C1242.08 102.337 1241.99 102.766 1241.97 103.301C1241.95 103.84 1241.98 104.476 1242.02 105.28L1240.95 105.067C1241 105.308 1240.79 105.646 1240.46 106.096C1240.14 106.548 1239.69 107.1 1239.22 107.74C1238.74 108.374 1238.3 109.123 1237.95 109.927C1237.78 110.329 1237.63 110.746 1237.53 111.173C1237.42 111.599 1237.39 112.047 1237.4 112.492C1237.29 112.421 1237.13 112.289 1237.07 111.986C1237.07 112.989 1236.68 113.944 1236.25 114.907C1235.83 115.871 1235.24 116.809 1234.82 117.725C1234.4 118.642 1234.08 119.516 1234.07 120.289C1234.09 121.066 1234.44 121.741 1235.32 122.247C1235.49 123.113 1235.63 123.961 1235.86 124.81C1236.02 124.041 1236.23 123.708 1236.43 123.616C1236.63 123.524 1236.82 123.673 1237.02 123.878C1237.4 124.288 1237.83 124.915 1238.22 124.345C1238.29 125.539 1236.69 127.273 1236.68 125.774L1236.9 125.567C1235.95 125.161 1235.65 126.103 1235.43 127.123C1235.24 128.146 1235.15 129.24 1234.48 129.151L1234.4 130.321L1234.34 131.489C1234.3 132.266 1234.24 133.041 1234.19 133.815C1234.15 135.362 1234.01 136.908 1234.02 138.446C1233.94 141.525 1234.12 144.589 1234.69 147.524L1236.05 146.54L1236.41 148.544C1236.18 149.148 1235.4 149.542 1235.13 148.082C1234.79 148.559 1235.11 149.13 1235.55 149.561C1235.99 149.995 1236.6 150.277 1236.76 150.254C1236.84 151.708 1236.34 151.575 1235.83 151.161C1235.32 150.749 1234.81 150.059 1234.92 150.497L1235.36 151.641L1235.46 151.328C1235.89 151.716 1236.28 151.88 1236.6 152.162C1236.93 152.445 1237.19 152.844 1237.44 153.685C1237.5 154.839 1236.72 154.535 1236.81 154.974C1236.7 155.008 1236.7 155.168 1236.98 155.635C1237.21 156.482 1237.52 157.301 1237.79 158.138L1238.54 156.717C1239.52 157.561 1239.36 158.987 1240.21 157.366C1240.05 157.666 1239.96 158.038 1239.95 158.455C1239.95 158.869 1240.02 159.331 1240.14 159.823C1240.26 160.315 1240.43 160.836 1240.63 161.366C1240.85 161.889 1241.1 162.414 1241.36 162.932C1241.63 163.447 1241.88 163.962 1242.16 164.431C1242.43 164.899 1242.69 165.34 1242.92 165.734C1243.37 166.529 1243.69 167.146 1243.7 167.455C1244.51 167.894 1245.11 168.437 1245.63 169.084C1246.18 169.716 1246.66 170.441 1247.17 171.265C1247.11 170.713 1248.04 169.696 1248.87 171.101C1247.55 171.722 1247.77 172.507 1248.24 173.441C1248.68 174.387 1249.43 175.403 1249.11 176.603C1249.23 175.683 1250.06 176.565 1250.92 177.277C1251.8 177.985 1252.66 178.56 1252.7 177.205C1253.49 178.373 1252 178.005 1252.25 179.25C1253.84 180.048 1255.02 181.453 1256.34 182.925C1256.97 183.685 1257.68 184.417 1258.41 185.135C1259.14 185.867 1259.97 186.497 1260.88 187.032C1261.14 186.76 1260.91 185.893 1261.94 185.949C1262.16 186.892 1262.44 187.802 1262.72 188.728C1263.12 188.877 1263.57 188.524 1263.99 188.372C1264.41 188.211 1264.77 188.282 1265.09 189.207C1265.07 188.829 1265.04 188.267 1265.57 188.437C1266.33 189.128 1267.12 189.794 1267.98 190.344C1268.85 190.884 1269.73 191.414 1270.66 191.844C1271.6 192.263 1272.54 192.688 1273.52 193.034C1274.5 193.365 1275.47 193.724 1276.46 194.023C1277.45 194.309 1278.43 194.641 1279.42 194.938C1280.41 195.22 1281.38 195.57 1282.36 195.912C1283.34 196.238 1284.31 196.649 1285.28 197.087C1286.25 197.504 1287.22 198.022 1288.19 198.608C1287.18 197.705 1287.94 197.781 1288.79 197.854C1288.26 197.612 1288.93 196.941 1288.89 196.423L1290.49 197.339L1291.3 197.798L1292.13 198.218C1292.51 197.54 1293.42 197.586 1294.3 197.637C1295.18 197.673 1296.03 197.667 1296.23 197.003L1295.15 197.219C1295.89 196.443 1295.41 195.547 1294.84 194.592C1294.25 193.615 1293.58 192.557 1293.75 191.549C1292.95 192.386 1292.02 191.681 1291.03 190.953C1290.53 190.6 1290.01 190.27 1289.44 190.17C1288.88 190.061 1288.27 190.143 1287.57 190.678C1287.13 190.175 1288.13 190.11 1287.93 189.595C1287.2 190.344 1286.42 190.423 1285.2 189.715L1285.39 189.538C1281.67 188.867 1280.32 187.57 1276.7 185.496L1276.61 186.543C1275.81 186.092 1275.77 185.708 1275.49 185.303C1274.71 185.787 1275.28 186.073 1275.85 186.378C1276.44 186.655 1277.04 186.958 1276.28 187.563C1276.08 186.41 1274.64 185.732 1273.25 185.043C1272.57 184.667 1271.91 184.288 1271.44 183.855C1270.96 183.432 1270.72 182.895 1270.82 182.295C1269.64 181.595 1270.6 183.515 1269.41 182.807V182.079L1268.69 182.601C1267.98 182.001 1268.02 181.075 1268.28 180.611C1268.43 180.782 1268.87 180.82 1269.09 180.906C1268.8 180.275 1268.09 179.892 1267.42 179.608C1266.76 179.31 1266.15 179.087 1266.05 178.876L1266.9 179.961C1266.06 179.531 1265.21 179.02 1264.39 178.426C1263.99 178.115 1263.58 177.802 1263.17 177.486L1262.56 177.009L1261.97 176.504C1261.19 175.831 1260.37 175.194 1259.59 174.564C1259.19 174.257 1258.78 173.969 1258.36 173.706C1257.95 173.433 1257.54 173.172 1257.11 172.95L1256.96 173.482C1256.32 173.12 1255.92 172.808 1255.65 172.52C1255.38 172.223 1255.26 171.941 1255.13 171.651C1255 171.359 1254.88 171.051 1254.65 170.687C1254.53 170.505 1254.39 170.309 1254.2 170.093C1254.01 169.871 1253.8 169.621 1253.52 169.347L1253.68 169.365C1252.93 169.166 1252.2 168.665 1251.75 167.93C1252.64 168.237 1251.77 166.087 1252.85 166.562C1251.61 165.603 1251.22 165.4 1250.86 165.347C1250.49 165.294 1250.11 165.42 1248.81 165.02L1249.22 164.197C1248.24 163.987 1247.9 164.123 1246.93 162.831C1248.15 163.624 1247.47 161.366 1248.95 162.172C1248.87 160.35 1248 159.494 1247.24 158.761C1246.5 158.033 1245.99 157.392 1246.83 156.216C1244.23 155.717 1246.89 159.297 1246.12 158.724C1245.78 159.695 1244.14 158.265 1243.9 157.196C1243.69 156.697 1244.18 155.987 1244.57 155.131C1244.98 154.266 1245.27 153.271 1244.86 152.045C1244.93 152.293 1245.09 152.255 1245.16 152.502C1245.27 151.951 1244.94 151.567 1244.65 151.135C1244.5 150.918 1244.35 150.694 1244.29 150.432C1244.23 150.167 1244.23 149.87 1244.37 149.521C1242.93 149.241 1244.02 148.019 1242.36 148.261L1243.39 150.491C1242.99 149.897 1242.24 149.42 1241.61 148.766C1240.98 148.116 1240.56 147.262 1240.76 146.032C1241.13 146.139 1241.71 146.709 1242.06 147.103C1242.39 146.345 1241.44 145.925 1241.8 145.144C1242.62 145.078 1242.89 145.763 1243.12 146.615C1243.24 147.04 1243.35 147.508 1243.54 147.934C1243.75 148.355 1244.02 148.738 1244.42 148.995C1244.67 148.565 1244.18 148.003 1243.91 147.554C1243.64 147.103 1243.54 146.794 1244.5 146.928C1243.26 146.703 1243.19 146.05 1243.17 145.315C1243.15 144.572 1243.24 143.744 1242.21 143.023L1243.22 142.972C1243.01 142.729 1242.44 142.237 1242.41 141.722C1242.88 141.967 1243.34 142.206 1243.83 142.434C1243.16 141.835 1243.34 141.116 1243.55 140.424C1243.66 140.077 1243.79 139.732 1243.84 139.398C1243.9 139.062 1243.9 138.734 1243.72 138.417C1243.77 139.109 1243.74 139.5 1243.65 139.718C1243.55 139.937 1243.38 139.985 1243.18 139.985C1242.78 139.987 1242.26 139.788 1241.97 140.433C1241.52 139.594 1241.48 139.015 1241.62 138.581C1241.77 138.147 1242.1 137.853 1242.46 137.55C1242.82 137.247 1243.2 136.935 1243.45 136.465C1243.73 135.992 1243.87 135.366 1243.72 134.413C1243.88 134.92 1243.17 136.382 1242.69 135.582C1242.88 134.832 1243.22 133.853 1243.77 133.411C1243.62 130.866 1242.72 133.791 1242.14 132.694C1242.76 132.262 1242.64 131.948 1242.32 131.585C1242.01 131.222 1241.48 130.81 1241.34 130.22L1242.35 130.274C1242.79 128.823 1242.28 128.587 1241.78 128.376C1241.28 128.169 1240.77 127.986 1241.35 126.676C1241.77 127.115 1242.19 127.544 1242.61 127.965L1242.42 126.542L1243.53 126.968C1243.2 126.178 1243.1 125.661 1243.15 125.175C1243.23 124.692 1243.45 124.236 1243.74 123.545C1242.98 123.755 1241.93 123.016 1242.18 121.689C1242.97 120.931 1243.01 122.387 1243.29 120.528C1243.81 121.094 1244.49 121.698 1243.4 122.288C1243.7 122.435 1243.95 122.821 1244.25 122.967C1245.1 122.18 1244.93 120.695 1245.05 120.04C1244.96 120.279 1244.84 120.561 1244.67 120.679C1244.38 119.701 1244.2 118.727 1243.99 117.72C1244.47 117.418 1244.67 117.834 1244.87 118.236C1244.92 117.688 1244.54 117.179 1244.73 116.393C1245.46 116.847 1246.25 117.056 1246.34 118.227C1246.24 117.338 1246.26 116.467 1246.22 115.565C1246.61 115.519 1247.57 114.69 1247.75 115.102C1248.22 114.554 1248.15 113.638 1248.12 112.648C1248.13 111.675 1248.21 110.636 1248.87 109.933C1248.77 109.778 1248.72 109.539 1248.79 109.135C1249.03 108.768 1249.31 108.436 1249.59 108.11C1249.87 107.782 1250.15 107.463 1250.43 107.13C1250.7 106.793 1250.94 106.428 1251.11 105.999C1251.2 105.785 1251.27 105.554 1251.32 105.302C1251.38 105.053 1251.42 104.789 1251.44 104.495C1252.07 104.43 1252.69 104.375 1253.31 104.327C1253.59 103.57 1252.99 103.631 1252.44 103.577C1251.89 103.524 1251.36 103.341 1251.89 102.045C1252.62 100.188 1253.34 102.191 1254.06 101.89C1254.04 101.589 1254.01 101.221 1254.01 100.826C1254.01 100.432 1254.05 100.026 1254.15 99.6274C1254.37 98.8413 1254.82 98.0739 1255.87 97.8145C1255.79 98.1267 1255.63 98.3285 1255.46 98.5219C1255.3 98.7186 1255.12 98.8983 1255 99.1471Z" fill="black"/>
<path d="M1295.15 76.6658C1295.03 76.4954 1294.99 76.3055 1294.95 76.113C1294.8 76.2965 1294.81 76.4873 1295.15 76.6658Z" fill="black"/>
<path d="M1248.91 109.884C1248.89 109.899 1248.88 109.917 1248.87 109.933C1248.91 109.99 1248.96 110.034 1249.01 110.069L1248.91 109.884Z" fill="black"/>
<path d="M1347.12 106.832C1347.07 106.432 1347.12 106.16 1347.22 105.941C1346.99 106.047 1346.9 106.298 1347.12 106.832Z" fill="black"/>
<path d="M1363.11 145.62L1363.1 144.208C1363.03 144.876 1362.77 145.075 1362.55 145.378C1362.79 145.39 1363.17 145.188 1363.11 145.62Z" fill="black"/>
<path d="M1354.07 155.028C1354.13 155.247 1353.94 155.395 1353.99 155.609L1354.45 155.734C1354.6 155.366 1354.6 155.01 1354.53 154.838C1354.45 154.667 1354.3 154.68 1354.07 155.028Z" fill="black"/>
<path d="M1359.56 146.218C1359.13 146.185 1358.95 146.384 1358.88 146.708C1358.81 147.033 1358.84 147.485 1358.79 147.945C1358.8 147.891 1358.81 147.839 1358.83 147.788C1359.38 148.054 1359.62 147.927 1359.71 147.6C1359.77 147.269 1359.67 146.74 1359.56 146.218Z" fill="black"/>
<path d="M1358.77 148.158C1358.74 148.442 1358.69 148.728 1358.58 148.987C1359.02 149.209 1358.76 148.675 1358.77 148.158Z" fill="black"/>
<path d="M1362.93 136.873C1362.69 137.315 1364.01 137.216 1363.65 137.456C1364.19 137.745 1363.89 136.955 1363.51 136.426C1363.14 135.898 1362.69 135.622 1362.93 136.873Z" fill="black"/>
<path d="M1356.67 146.364L1357.76 146.268L1357.02 145.605L1356.67 146.364Z" fill="black"/>
<path d="M1358.47 139.541L1358.02 140.928C1358.2 140.927 1358.28 141.12 1358.34 141.351C1358.47 140.48 1358.78 139.536 1358.47 139.541Z" fill="black"/>
<path d="M1358.34 141.351C1358.27 141.805 1358.25 142.242 1358.39 142.522C1358.41 142.273 1358.43 141.734 1358.34 141.351Z" fill="black"/>
<path d="M1356.7 144.408L1356.99 144.037L1357.25 143.07L1356.7 144.408Z" fill="black"/>
<path d="M1358.25 124.181L1357.68 122.693C1357.3 122.604 1357.15 123.058 1357.39 123.6C1357.71 123.922 1357.95 124.471 1358.25 124.181Z" fill="black"/>
<path d="M1355.89 129.112C1356.08 128.692 1356.31 128.644 1356.64 128.384L1355.33 128.456L1355.89 129.112Z" fill="black"/>
<path d="M1355.11 124.834C1354.73 124.734 1353.71 122.906 1354.12 124.715C1354.52 124.797 1354.98 126.229 1355.11 124.834Z" fill="black"/>
<path d="M1349.12 103.057L1349.32 103.385L1351.15 102.24L1349.12 103.057Z" fill="black"/>
<path d="M1332.87 91.6406C1333.77 93.1162 1334.03 90.8864 1334.74 92.3633C1335.38 92.2423 1334.16 91.1534 1334.75 91.0857C1333.63 90.8216 1333.43 90.245 1332.87 91.6406Z" fill="black"/>
<path d="M1334.75 91.086C1334.93 91.1294 1335.13 91.1656 1335.36 91.1843C1335.05 91.0885 1334.87 91.0749 1334.75 91.086Z" fill="black"/>
<path d="M1294.38 199.509C1294.79 199.682 1295.21 199.836 1295.63 200L1294.84 199.25C1294.69 199.337 1294.53 199.431 1294.38 199.509Z" fill="black"/>
<path d="M1296.83 197.969L1297.1 199.358L1297.86 198.127C1297.58 198.181 1297.03 198.286 1296.83 197.969Z" fill="black"/>
<path d="M1273.43 86.499L1273.35 86.1686C1273.05 85.9224 1272.82 86.011 1272.36 86.1826L1273.43 86.499Z" fill="black"/>
<path d="M1261.44 93.7549L1261.64 93.6063L1260.47 93.0071L1261.44 93.7549Z" fill="black"/>
<path d="M1254.97 103.665C1255.29 103.311 1255.38 102.694 1255.7 102.335C1255.29 103.305 1253.63 102.88 1254.97 103.665Z" fill="black"/>
<path d="M1264.79 168.176C1264.54 167.841 1264.03 168.579 1263.87 168.651C1264.52 168.987 1264.93 167.996 1264.79 168.176Z" fill="black"/>
<path d="M1271.15 170.914L1270.84 171.142L1272.14 170.96L1271.15 170.914Z" fill="black"/>
<path d="M1276.26 174.177C1276.36 173.384 1275.88 173.15 1275.27 173.003C1274.65 172.854 1273.91 172.767 1273.59 172.263L1273.63 171.873L1272.57 172.624C1273.16 172.94 1273.96 173.087 1274.66 173.307C1275.36 173.514 1275.95 173.777 1276.26 174.177Z" fill="black"/>
<path d="M1277.83 178.614C1277.85 178.303 1278.07 178.26 1278.09 178.256C1278.12 178.242 1277.93 178.312 1277.17 178.102C1277.21 178.196 1277.22 178.24 1277.24 178.303C1277.37 178.356 1277.54 178.454 1277.83 178.614Z" fill="black"/>
<path d="M1277.24 178.303C1276.61 178.035 1277.43 178.953 1277.24 178.303V178.303Z" fill="black"/>
<path d="M1280.26 179.236L1279.24 179.379C1279.28 179.775 1280 180.161 1279.63 180.282C1280.6 180.374 1280.54 179.971 1280.26 179.236Z" fill="black"/>
<path d="M1281.43 178.506C1281.26 178.528 1281.1 178.548 1280.93 178.556C1280.95 178.724 1281.05 178.822 1281.43 178.506Z" fill="black"/>
<path d="M1279.86 178.621L1280.93 178.556C1280.9 178.278 1281.07 177.814 1280.46 178.543C1280.7 178.155 1280.37 178.486 1279.86 178.621Z" fill="black"/>
<path d="M1279.44 178.194C1279.11 177.696 1278.62 177.263 1279.63 177.118C1278.02 176.667 1277.79 177.728 1279.44 178.194Z" fill="black"/>
<path d="M1277.27 172.928C1277.16 172.701 1277.04 172.489 1276.94 172.253L1276.24 172.432C1276.42 172.388 1276.62 172.631 1276.81 172.824C1277 173.006 1277.18 173.146 1277.27 172.928Z" fill="black"/>
<path d="M1285.36 181.725C1285.49 181.426 1285.28 180.813 1285.33 180.397L1284.59 180.586C1284.86 180.886 1285.43 181.25 1285.36 181.725Z" fill="black"/>
<path d="M1285.33 180.397L1286.41 180.109C1285.59 179.826 1285.37 180.039 1285.33 180.397Z" fill="black"/>
<path d="M1282.16 176.973C1281.54 177.187 1280.93 177.32 1280.3 177.487C1281.02 177.363 1281.73 177.241 1282.44 177.052L1282.16 176.973Z" fill="black"/>
<path d="M1289.09 182.605L1288.39 183.233C1288.8 182.927 1289.2 182.619 1289.59 182.31L1289.09 182.605Z" fill="black"/>
<path d="M1291.62 182.87C1291.12 183.433 1292.07 183.98 1291.58 184.305C1292.3 184.28 1292.95 183.82 1293.52 183.404C1292.94 183.605 1292.33 183.466 1291.62 182.87Z" fill="black"/>
<path d="M1294.47 182.773C1294.18 182.904 1293.87 183.167 1293.52 183.404C1293.83 183.304 1294.15 183.102 1294.47 182.773Z" fill="black"/>
<path d="M1287.98 180.648C1288.01 180.854 1288.05 181.381 1288.55 181.699L1288.35 180.734C1288.23 180.708 1288.11 180.678 1287.98 180.648Z" fill="black"/>
<path d="M1288.34 180.703L1288.35 180.734C1288.75 180.837 1289.03 180.909 1289.15 180.94C1289.05 180.91 1288.8 180.838 1288.34 180.703Z" fill="black"/>
<path d="M1287.88 180.626C1287.92 180.634 1287.94 180.64 1287.98 180.648C1287.96 180.552 1287.94 180.52 1287.88 180.626Z" fill="black"/>
<path d="M1284.23 178.548C1284.91 178.247 1286.15 177.982 1285.31 176.965C1284.76 177.453 1285.24 178.07 1284.23 178.548Z" fill="black"/>
<path d="M1287.66 179.426L1286.74 178.968C1286.7 179.206 1286.8 179.594 1286.47 179.768L1287.66 179.426Z" fill="black"/>
<path d="M1288.21 179.237L1287.67 179.426L1288.02 179.572L1288.21 179.237Z" fill="black"/>
<path d="M1292.75 181.755C1293.24 181.405 1293.72 181.456 1294.28 181.417C1293.7 181.209 1293.12 181.015 1292.54 180.96C1292.43 181.233 1292.12 181.713 1292.75 181.755Z" fill="black"/>
<path d="M1290.6 181.238C1290.64 181.223 1290.68 181.22 1290.71 181.202C1290.66 181.119 1290.62 181.084 1290.6 181.238Z" fill="black"/>
<path d="M1299.68 181.511C1299.64 181.456 1299.62 181.405 1299.58 181.348C1299.58 181.401 1299.57 181.449 1299.57 181.506L1299.68 181.511Z" fill="black"/>
<path d="M1292.47 180.779C1292.05 180.553 1291.77 180.743 1291.48 180.989C1291.82 180.94 1292.17 180.922 1292.55 180.96C1292.6 180.835 1292.61 180.751 1292.47 180.779Z" fill="black"/>
<path d="M1296.03 182.423C1295.8 182.22 1295.55 182.046 1295.28 181.886C1295.49 182.184 1295.94 182.655 1296.03 182.423Z" fill="black"/>
<path d="M1290.82 181.47C1290.8 181.48 1290.77 181.495 1290.75 181.501C1290.86 181.711 1290.86 181.616 1290.82 181.47Z" fill="black"/>
<path d="M1290.82 181.469C1291.07 181.367 1291.28 181.167 1291.48 180.989C1291.21 181.03 1290.94 181.095 1290.71 181.202C1290.75 181.272 1290.79 181.377 1290.82 181.469Z" fill="black"/>
<path d="M1300.89 175.6C1300.88 176.02 1300.64 176.463 1300.27 176.67C1299.89 176.867 1299.4 176.848 1298.94 176.406C1298.07 177.059 1298.65 179.821 1299.58 181.349C1299.6 180.981 1299.6 180.641 1300.56 180.117C1300.17 179.669 1298.35 179.095 1299.15 178.312C1300.38 177.839 1300.18 178.607 1300.83 178.992C1300.26 177.994 1302.31 177.315 1301.88 175.804L1300.88 176.447C1300.84 176.209 1301.19 175.791 1300.89 175.6Z" fill="black"/>
<path d="M1297.65 181.308C1297.52 181.343 1297.38 181.388 1297.24 181.416C1297.71 181.562 1298.05 181.886 1298.7 182.534C1299.4 182.104 1299.53 181.788 1299.57 181.507L1297.51 181.437L1297.65 181.308Z" fill="black"/>
<path d="M1295.37 181.334C1295.75 180.434 1296.72 180.087 1296.17 179.068C1295 179.076 1295.31 179.795 1294.57 180.157C1296.52 180.024 1293.98 180.64 1295.36 181.227C1294.96 181.365 1294.61 181.396 1294.28 181.417C1294.63 181.545 1294.96 181.701 1295.28 181.886C1295.26 181.863 1295.25 181.847 1295.23 181.827L1295.23 181.828L1295.23 181.816C1295.15 181.697 1295.12 181.626 1295.22 181.695C1295.22 181.685 1295.25 181.683 1295.26 181.679C1295.28 181.554 1295.32 181.444 1295.37 181.339C1295.93 181.555 1295.45 181.58 1295.26 181.679C1295.25 181.725 1295.23 181.767 1295.23 181.816C1295.23 181.819 1295.23 181.823 1295.23 181.827L1297.24 181.416C1296.82 181.27 1296.3 181.273 1295.37 181.334Z" fill="black"/>
<path d="M1286.78 175.316C1286.81 175.408 1286.79 175.471 1286.78 175.536C1286.92 175.457 1286.98 175.395 1286.78 175.316Z" fill="black"/>
<path d="M1287.36 176.041C1287.2 176.131 1287 176.458 1286.61 176.257C1286.32 175.895 1286.72 175.833 1286.78 175.536C1286.48 175.707 1285.73 175.938 1286.41 176.579L1286.56 176.492C1287.19 176.983 1287.87 178.346 1287.72 178.436C1287.69 177.574 1287.63 176.953 1287.36 176.041Z" fill="black"/>
<path d="M1291.23 178.663L1292.83 178.403L1292.15 177.522L1292.13 178C1291.28 177.71 1291.39 178.313 1291.23 178.663Z" fill="black"/>
<path d="M1299.88 181.963L1299.7 182.937C1300.01 182.472 1300.31 182.008 1300.6 181.543L1299.88 181.963Z" fill="black"/>
<path d="M1302.03 181.698L1302.03 182.544L1302.56 181.983L1302.03 181.698Z" fill="black"/>
<path d="M1315.85 100.615L1315.4 100.638C1315.59 100.661 1315.73 100.648 1315.85 100.615Z" fill="black"/>
<path d="M1318.2 102.09L1318.48 101.778C1318.25 101.901 1318.11 102.016 1318.2 102.09Z" fill="black"/>
<path d="M1342.24 151.201C1343.22 150.824 1344.65 150.457 1343.74 150.221L1342.8 150.117C1342.78 150.643 1342.54 150.969 1342.24 151.201Z" fill="black"/>
<path d="M1336.91 117.577C1336.85 117.667 1336.78 117.761 1336.72 117.854C1337.07 117.881 1337.39 117.906 1337.69 117.928C1337.45 117.822 1337.19 117.703 1336.91 117.577Z" fill="black"/>
<path d="M1333.25 118.641C1333.34 118.33 1333.41 118.02 1333.49 117.704C1333.37 117.948 1333.29 118.25 1333.25 118.641Z" fill="black"/>
<path d="M1301.4 97.0952L1300.89 98.0002C1301.55 98.0441 1301.3 97.5505 1301.4 97.0952Z" fill="black"/>
<path d="M1322.68 174.487C1323.38 174.467 1323.87 174.319 1324.26 174.121C1323.34 174.088 1322.44 173.732 1322.68 174.487Z" fill="black"/>
<path d="M1321.71 92.6929C1321.37 92.6925 1321.17 92.7943 1321.08 92.977C1321.42 92.9876 1321.66 92.9199 1321.71 92.6929Z" fill="black"/>
<path d="M1325.73 173.102C1325.58 173.09 1325.47 173.115 1325.34 173.116C1325.07 173.515 1324.75 173.867 1324.26 174.121C1324.6 174.134 1324.93 174.103 1325.2 173.96C1325.47 173.809 1325.67 173.541 1325.73 173.102Z" fill="black"/>
<path d="M1261.42 126.173C1261.37 126.205 1261.34 126.248 1261.29 126.273C1261.41 126.31 1261.42 126.257 1261.42 126.173Z" fill="black"/>
<path d="M1252.61 144.163C1252.51 143.984 1252.44 143.671 1252.37 143.377C1252.34 143.534 1252.4 143.777 1252.61 144.163Z" fill="black"/>
<path d="M1310.69 180.539C1310.25 180.709 1310.64 180.654 1310.69 180.539V180.539Z" fill="black"/>
<path d="M1307.7 177.517C1307.77 177.395 1307.8 177.249 1307.77 177.039C1307.78 177.263 1307.76 177.415 1307.7 177.517Z" fill="black"/>
<path d="M1325.59 165.899C1325.6 165.892 1325.61 165.886 1325.62 165.878C1325.41 165.822 1325.45 165.835 1325.59 165.899Z" fill="black"/>
<path d="M1309.91 180.301C1310.1 180.369 1310.32 180.412 1310.55 180.423C1310.43 180.378 1310.24 180.335 1309.91 180.301Z" fill="black"/>
<path d="M1310.11 180.701C1309.94 180.699 1309.81 180.707 1309.69 180.712C1309.67 180.874 1309.75 180.957 1310.11 180.701Z" fill="black"/>
<path d="M1311.29 180.311C1311.04 180.412 1310.79 180.434 1310.55 180.423C1310.65 180.462 1310.7 180.502 1310.69 180.539C1310.81 180.495 1310.99 180.429 1311.29 180.311Z" fill="black"/>
<path d="M1276.03 100.306C1275.99 100.296 1275.96 100.296 1275.91 100.279C1275.8 100.808 1275.91 100.666 1276.03 100.306Z" fill="black"/>
<path d="M1335.73 138.41C1335.73 138.429 1335.76 138.441 1335.76 138.457C1335.78 138.442 1335.79 138.422 1335.8 138.407L1335.73 138.41Z" fill="black"/>
<path d="M1335.19 137.031C1336.3 137.693 1336.09 138.015 1335.8 138.407C1336.7 138.371 1337.59 138.325 1338.48 138.268C1337.4 137.831 1336.3 137.419 1335.19 137.031Z" fill="black"/>
<path d="M1268.42 97.378L1268.82 97.4019C1268.49 98.0471 1268.47 97.7239 1268.42 97.378ZM1313.59 178.265C1313.49 178.446 1313.55 178.579 1313.66 178.694C1313.68 178.416 1313.99 178.297 1314.38 178.215C1314.18 177.999 1313.95 177.913 1313.59 178.265ZM1315.17 178.139C1315.18 178.118 1315.18 178.104 1315.19 178.079C1316.02 178.177 1315.72 178.127 1315.17 178.139ZM1335.85 120.348C1335.47 120.259 1335.54 119.894 1335.75 119.415C1335.94 119.634 1336 119.94 1335.85 120.348ZM1321.81 104.19C1321.47 104.174 1320.65 104.384 1320.87 103.789C1321.82 103.047 1321.68 103.629 1321.81 104.19ZM1309.7 98.1808C1309.89 98.5377 1310.08 98.8856 1310.26 99.2587C1308.81 100.184 1308.29 99.5393 1308.67 100.885C1308.92 100.208 1309.25 99.9171 1309.63 99.8204C1310 99.731 1310.4 99.8566 1310.81 99.9716C1311.01 100.03 1311.22 100.088 1311.42 100.122C1311.62 100.164 1311.81 100.185 1312 100.155C1312.38 100.096 1312.74 99.8413 1313.06 99.1944L1313.36 99.986C1313.22 99.8932 1313.12 100.037 1312.98 99.9447C1313.22 100.795 1313.61 100.433 1314.12 99.9635C1314.63 99.5006 1315.25 98.9461 1315.84 99.4848C1316.21 99.9447 1316.32 100.489 1315.85 100.615L1317.22 100.569C1317.48 100.803 1317.16 101.185 1316.9 100.961L1318.54 101.714L1318.48 101.778C1318.94 101.536 1319.81 101.298 1320.22 101.22C1320.37 101.83 1319.85 101.338 1319.75 101.702C1320.16 101.705 1320.58 101.703 1320.99 101.718C1320.93 102.151 1320.63 102.377 1320.28 102.445C1319.93 102.518 1319.53 102.431 1319.28 102.19C1318.85 103.643 1319.1 103.597 1319.57 103.52C1320.02 103.451 1320.7 103.368 1320.96 104.627L1320.02 104.361C1319.75 105.193 1319.85 105.583 1320.02 105.955C1320.18 106.335 1320.43 106.691 1320.47 107.391C1320.56 107.116 1320.6 106.31 1320.75 105.567C1320.91 104.824 1321.18 104.15 1321.81 104.222C1321.91 104.589 1322.14 104.919 1322.96 104.858C1322.3 105.629 1322.87 105.823 1323.43 106.26L1322.47 107.222C1323.27 107.435 1323.71 106.897 1324.45 106.786C1324.95 107.498 1324.32 108.35 1323.81 109.095C1324.17 109.641 1324.32 109.199 1324.54 108.719C1324.76 108.252 1325.04 107.736 1325.66 108.259C1325.84 108.864 1326.17 109.202 1326.63 109.486C1327.08 109.774 1327.68 109.977 1328.43 110.278C1328.52 111.218 1327.69 110.666 1327.55 111.136C1327.97 111.107 1328.39 111.084 1328.82 111.066C1328.91 111.224 1328.6 111.372 1328.45 111.448C1329.14 111.694 1329.58 110.686 1330.44 111.28C1331.13 110.968 1330.96 111.711 1330.85 112.509C1330.77 113.302 1330.67 114.18 1331.71 114.272C1331.52 114.716 1330.92 114.561 1330.51 114.9C1331.4 115.308 1331.71 115.544 1332.08 115.701C1332.44 115.868 1332.84 115.968 1333.81 116.264L1333.49 117.704C1333.77 117.11 1334.3 116.924 1334.92 116.969C1335.54 117.012 1336.28 117.28 1336.91 117.577C1337.24 117.086 1337.54 116.652 1337.64 116.398C1338.09 116.815 1338.5 117.256 1338.94 117.698C1338.81 117.971 1338.31 117.975 1337.69 117.929C1337.83 117.993 1337.97 118.054 1338.1 118.095C1337.85 118.833 1337.01 118.809 1336.15 118.705C1336.33 118.426 1336.53 118.139 1336.72 117.854C1335.81 117.787 1334.84 117.81 1334.15 118.195C1334.33 118.227 1334.52 118.355 1334.67 118.524C1334.42 118.517 1334.22 118.535 1334.11 118.629C1334 118.732 1334.33 118.764 1334.74 118.871L1333.47 119.747L1334.05 119.607C1334.01 120.329 1333.91 121.058 1333.82 121.767C1334.77 122.177 1335.83 122.548 1336.84 123.097C1337.09 123.233 1337.34 123.382 1337.58 123.545C1337.82 123.71 1338.03 123.891 1338.24 124.09C1338.66 124.488 1339.04 124.957 1339.31 125.525C1338.11 125.155 1337.52 125.76 1336.23 125.981C1336.84 125.543 1336.6 125.131 1336.21 124.699C1336.01 124.483 1335.79 124.26 1335.6 124.02C1335.4 123.782 1335.26 123.524 1335.25 123.225C1335.27 123.849 1334.63 123.878 1334.38 123.791C1334.99 124.326 1335.51 124.901 1336.08 125.49C1335.02 125.672 1335.41 126.083 1335.06 126.691C1336.06 126.293 1336.47 126.604 1336.73 127.122C1336.86 127.379 1336.96 127.684 1337.06 127.974C1337.15 128.265 1337.26 128.539 1337.45 128.733C1336.74 128.873 1336.02 128.761 1336.04 127.729C1335.35 128.404 1335.98 128.664 1336.68 128.952C1337.36 129.234 1338.11 129.542 1337.47 130.178C1337.44 129.923 1337.54 129.772 1337.16 129.709C1337.85 130.247 1337.44 131.762 1336.81 131.446L1336.77 131.195C1336.76 131.406 1336.76 131.643 1336.75 131.897C1336.74 132.152 1336.75 132.424 1336.76 132.703C1336.79 133.262 1336.87 133.852 1336.97 134.405C1337.08 134.956 1337.27 135.472 1337.51 135.875C1337.75 136.279 1338.08 136.573 1338.52 136.671C1338.29 136.668 1336.38 136.29 1336.03 136.171C1336.99 136.724 1337.97 137.317 1338.92 137.946C1339.85 138.574 1340.78 139.241 1341.71 139.945C1340.97 139.69 1339.65 139.715 1338.44 139.584C1337.23 139.456 1336.11 139.186 1335.76 138.458C1335.5 138.821 1335.2 139.25 1335.59 140.149C1335.85 139.932 1337.9 139.834 1337.98 140.237C1337.04 140.619 1336.79 140.747 1336.56 140.918C1336.32 141.085 1336.13 141.298 1335.27 141.748C1335.68 141.422 1337.95 142.361 1337.73 143.02C1337.4 142.837 1335.39 142.526 1335.2 142.243C1335.53 142.587 1335.85 142.94 1336.18 143.302C1336.49 143.659 1336.8 144.025 1337.11 144.398C1336.81 143.884 1335.18 143.812 1334.44 143.961C1334.69 143.945 1334.59 144.271 1334.45 144.658C1334.29 145.042 1334.07 145.477 1334.12 145.714L1334.85 145.246C1334.4 146.041 1335.07 146.734 1335.72 147.462C1336.36 148.184 1337.04 148.958 1336.62 149.837C1336.45 149.636 1335.8 149.216 1335.12 148.946C1334.44 148.677 1333.73 148.549 1333.41 148.903C1333.89 149.331 1335.05 150.34 1336.08 151.55C1337.09 152.744 1337.96 154.15 1337.95 155.197L1337.17 155.174L1337.18 156.798C1336.6 155.944 1335.77 154.524 1334.93 153.153C1334.06 151.76 1333.25 150.451 1332.78 149.61C1332.02 149.988 1331.97 149.439 1331.6 150.346C1330.86 150.36 1330.95 149.441 1331.03 149.173C1330.58 149.776 1330.14 150.381 1329.67 150.955C1330.97 151.533 1330.1 153.156 1331.14 153.687C1331.15 153.198 1331.12 152.699 1331.11 152.217C1331.1 151.733 1331.09 151.259 1331.04 150.775C1331.69 151.05 1332.45 151.844 1332.85 152.752C1333.26 153.657 1333.38 154.728 1332.79 155.405C1332.08 155.478 1330.81 153.792 1330.38 153.585C1330.69 154.011 1330.36 155.43 1329.97 155.351C1329.89 155.019 1329.81 154.684 1329.71 154.348C1329.26 154.593 1329.43 155.141 1329.51 155.685C1329.59 156.215 1329.58 156.75 1328.69 156.777C1328.38 157.036 1326.57 156.547 1327.19 157.117C1328.82 157.658 1332.92 160.568 1333.58 161.713C1333.49 161.739 1332.84 161.98 1332.07 162.144C1331.31 162.318 1330.47 162.446 1330.01 162.364C1329.3 162.197 1328.92 161.497 1328.54 160.808C1328.15 160.118 1327.78 159.454 1327.19 159.302C1327.47 159.573 1327.61 160.166 1327.62 160.38C1327.1 160.459 1326.84 159.452 1326.37 160.214C1327.33 161.305 1325.07 161.459 1326.98 161.358C1326.68 162.302 1326.12 161.83 1325.44 162.598C1325.88 162.82 1326.27 163.553 1326.48 164.368C1326.7 165.186 1326.7 166.051 1326.48 166.531C1326.28 166.217 1325.81 165.997 1325.59 165.899C1324.06 167.06 1322.85 167.141 1321.44 168.148C1321.11 167.958 1320.18 168.05 1320.13 167.339C1320.07 167.686 1320.15 168.222 1319.72 168.542C1318.21 168.036 1320.59 167.739 1319.14 166.892C1319.34 167.263 1319.22 167.69 1319 168.136C1318.77 168.571 1318.43 169.004 1318.24 169.426C1318.66 169.932 1319.08 169.76 1319.43 169.361C1319.78 168.955 1320.04 168.298 1320.21 167.877C1320.7 168.625 1320.93 169.573 1320.86 170.571C1320.8 171.578 1320.4 172.564 1319.75 173.436C1318.57 174.577 1318.61 172.73 1318.49 173.085C1317.81 173.347 1317.43 173.732 1317.17 174.143C1316.91 174.546 1316.79 174.998 1316.67 175.418C1316.42 176.252 1316.15 176.992 1314.74 176.84C1313.42 176.136 1313.88 174.735 1313.38 174.045C1313.87 173.615 1314.37 173.626 1314.85 173.664C1315.32 173.701 1315.77 173.798 1316.15 173.603L1314.99 173.535C1315.2 173.023 1315.81 172.428 1316.35 172.543C1316.06 172.392 1315.65 172.426 1315.16 172.563C1314.91 172.632 1314.64 172.726 1314.36 172.836C1314.07 172.937 1313.77 173.045 1313.45 173.157C1312.21 173.652 1310.74 174.037 1309.61 173.923C1309.37 174.421 1308.83 174.955 1309.26 175.323C1309.47 175.224 1309.67 175.096 1309.87 174.976C1310.3 175.32 1310.08 175.726 1309.87 176.066C1309.65 176.404 1309.44 176.647 1309.93 176.749C1309.19 177.599 1308.35 178.868 1306.9 178.672L1306.39 177.435C1306.44 177.616 1306.7 177.783 1306.98 177.814C1307.25 177.845 1307.55 177.771 1307.69 177.532C1307.48 177.872 1306.89 177.598 1306.32 177.374C1305.75 177.166 1305.22 177.095 1305.06 177.99L1306.15 178.72C1305.73 179.126 1305.27 179.722 1304.74 180.194C1304.48 180.427 1304.2 180.639 1303.9 180.761C1303.6 180.874 1303.29 180.914 1302.97 180.842C1303.69 182.062 1303.23 180.68 1304.33 182.063C1303.29 180.337 1307.57 181.594 1306 179.862C1306.6 180.645 1307.03 180.761 1307.49 180.83C1307.95 180.876 1308.43 180.884 1309.21 181.462C1309.07 181.052 1308.59 180.764 1309.69 180.712C1309.71 180.578 1309.78 180.396 1309.83 180.288C1309.86 180.29 1309.88 180.295 1309.91 180.301C1309.88 180.289 1309.86 180.275 1309.84 180.266C1309.86 180.192 1309.87 180.177 1309.81 180.255C1309.52 180.132 1309.26 179.963 1309.12 179.75C1309.26 179.207 1309.73 178.845 1310.21 178.539C1310.69 178.224 1311.17 177.921 1311.36 177.597C1312 177.604 1311.26 178.149 1311.71 178.483L1312.27 177.497C1312.63 178.383 1314.36 178.48 1313.13 179.477C1313.56 179.346 1313.99 179.23 1314.42 179.084C1315.34 179.292 1316.47 179.09 1316.94 178.443C1317.61 178.364 1317.98 176.807 1317.78 177.72L1318.62 177.009L1319.43 176.261L1319.55 176.464C1320.02 176.247 1320.46 175.94 1320.87 175.573C1321.28 175.202 1321.67 174.8 1322.1 174.438C1322.53 174.085 1322.96 173.728 1323.48 173.491C1324 173.246 1324.62 173.126 1325.34 173.117C1325.56 172.81 1325.77 172.491 1326.06 172.19C1326.21 172.039 1326.37 171.892 1326.57 171.754C1326.77 171.608 1326.99 171.466 1327.26 171.335L1327.95 171.839C1328.22 171.433 1328.89 171.181 1329.44 170.86C1330 170.547 1330.46 170.216 1330.32 169.765C1331.44 170.274 1332.34 169.539 1333.13 168.61C1333.88 167.64 1334.52 166.482 1335.18 165.969L1334.41 165.221C1334.78 164.814 1335.09 164.363 1335.35 163.837C1335.6 163.303 1335.82 162.708 1336.05 162.039L1335.24 161.539C1335.28 160.855 1335.8 160.344 1336.48 159.812C1337.16 159.282 1337.9 158.668 1338.34 157.864C1338.59 158.156 1338.26 158.509 1337.9 158.673C1339.41 158.311 1339.63 157.04 1339.77 155.835C1339.86 154.593 1339.87 153.412 1340.96 152.812C1340.84 152.218 1341.09 151.941 1341.44 151.712C1341.43 151.756 1341.43 151.8 1341.44 151.845C1341.47 151.801 1341.51 151.734 1341.53 151.661C1341.76 151.518 1342.02 151.377 1342.24 151.201C1341.96 151.313 1341.71 151.429 1341.57 151.558C1341.68 151.192 1341.78 150.604 1341.76 149.993L1342.8 150.117C1342.8 150.068 1342.82 150.034 1342.82 149.982C1343.36 149.573 1342.51 149.396 1341.7 149.417C1341.63 149.094 1341.52 148.781 1341.35 148.513C1342.2 148.568 1342.18 148.168 1342.18 147.761C1342.19 147.354 1342.2 146.938 1343.11 146.884C1342.75 146.579 1342.79 145.851 1342.7 145.114C1342.59 144.371 1342.34 143.619 1341.5 143.288C1341.73 143.321 1341.88 143.188 1341.83 143.478C1341.99 143.204 1342.16 142.928 1342.24 142.64C1342.31 142.351 1342.28 142.05 1342.08 141.737L1343.39 141.709C1342.9 141.16 1342.41 140.631 1341.9 140.115C1342.77 139.44 1343.27 139.133 1344.16 140.089C1343.52 138.994 1343.43 138.595 1343.33 138.219C1343.21 137.848 1343.1 137.503 1342.4 136.637L1343.23 136.772C1343.26 136.169 1342.16 135.192 1342.85 134.864C1343.67 134.23 1343.75 132.56 1343.66 130.644C1343.64 130.164 1343.61 129.668 1343.59 129.167C1343.55 128.667 1343.52 128.16 1343.51 127.656C1343.5 127.403 1343.51 127.151 1343.51 126.901C1343.51 126.652 1343.51 126.404 1343.53 126.159C1343.55 125.669 1343.61 125.187 1343.71 124.721C1342.56 125.288 1342.78 124.839 1343 124.282C1343.23 123.723 1343.5 123.029 1342.56 123.183C1343.08 122.856 1343.29 122.295 1343.91 122.735C1343.44 121.918 1343.46 121.221 1343.4 120.602C1343.34 119.988 1343.16 119.466 1342.19 119.137C1342.68 118.758 1343.12 119.237 1343.4 118.956C1343.23 118.855 1342.73 118.569 1343.01 118.277C1343.27 117.989 1343.55 118.373 1343.88 118.571C1343.2 116.799 1341.44 117.272 1339.82 117.752C1340.24 116.643 1339.97 116.237 1338.71 116.089C1339.09 115.596 1339.41 114.874 1340.03 115.813C1339.96 115.508 1339.74 114.56 1339.4 113.739C1339.05 112.923 1338.52 112.277 1337.91 112.563C1338.13 112.231 1337.61 111.745 1337.39 111.682C1337.09 111.064 1336.94 110.713 1336.78 110.377C1336.61 110.041 1336.43 109.716 1336.01 109.184L1336.02 109.618C1334.35 110.051 1335.13 108.878 1334.36 108.088L1334.51 108.018C1334.27 106.67 1333.99 106.524 1333.74 106.384C1333.5 106.234 1333.26 106.111 1333.01 104.716L1332.31 105.466C1331.39 106.074 1331.34 105.446 1331.25 104.62C1331.17 103.798 1331.11 102.684 1330.3 102.473L1330.24 103.24C1329.7 103.222 1329.87 102.33 1330.1 101.316C1330.34 100.298 1330.61 99.1816 1330.4 98.8C1330.4 98.5373 1330.81 98.7719 1331.1 98.8447C1330.38 96.4049 1329.98 99.6207 1328.62 98.774C1328.87 98.0377 1330.12 97.651 1329.38 96.8355C1329.35 96.4403 1328.37 96.3521 1327.37 96.1699C1326.35 96.0063 1325.37 95.6874 1325.15 94.7198C1325.1 95.3607 1325.03 95.985 1324.2 95.9148C1323.69 95.6912 1323.38 94.8054 1322.92 94.1398C1322.47 93.4707 1321.91 92.9422 1321.04 93.4541C1320.99 93.2523 1321.01 93.1002 1321.08 92.9771C1320.59 92.9631 1319.9 92.7885 1319.22 92.6961C1318.53 92.6275 1317.86 92.6416 1317.43 92.9584C1317.86 91.1838 1316.44 91.0246 1315.17 90.9726C1313.87 90.9662 1312.7 91.0458 1313.24 89.52C1312.39 89.3083 1311.55 89.0605 1310.69 88.8867L1310.85 88.586C1310.07 88.2573 1309.48 88.2398 1309 88.3855C1308.52 88.5477 1308.15 88.8629 1307.78 89.1801C1307.46 88.8807 1307.8 88.644 1307.86 88.486C1306.76 87.8825 1306.1 87.6615 1305.47 87.7032C1305.15 87.7288 1304.83 87.8169 1304.46 87.9971C1304.08 88.1819 1303.65 88.4425 1303.11 88.7832L1303.03 87.7079C1302.87 87.8467 1302.59 87.7739 1302.22 87.6347C1301.84 87.4975 1301.36 87.2727 1300.81 87.0631C1300.27 86.8417 1299.66 86.6841 1299.03 86.6369C1298.4 86.5875 1297.76 86.6603 1297.16 86.9929C1297.18 86.8715 1297.23 86.6667 1297.42 86.5129C1296.74 86.8455 1296.01 86.8098 1295.25 86.7093C1294.49 86.6134 1293.7 86.3664 1292.97 86.2472C1292.24 86.1318 1291.56 86.0943 1291.04 86.3311C1290.53 86.5806 1290.18 87.1172 1290.1 88.104C1289.58 88.5217 1289.06 88.914 1288.57 89.3628C1289.69 89.2636 1289.68 89.7257 1289.53 90.2077C1289.37 90.6958 1289.09 91.2784 1289.58 91.4968C1288.83 91.8942 1287.21 90.8508 1288.18 90.4228L1288.39 90.5736C1288.36 89.5523 1287.65 89.5323 1286.91 89.6039C1286.17 89.7022 1285.42 89.9028 1285.26 89.2376C1284.99 89.3202 1284.72 89.3982 1284.45 89.4723L1283.65 89.7184C1283.12 89.8785 1282.58 90.0178 1282.05 90.1617C1280.99 90.4909 1279.9 90.7426 1278.85 91.0965C1276.73 91.7319 1274.67 92.5487 1272.82 93.6573L1274.04 94.7125L1272.78 95.4352C1272.26 95.3428 1271.67 94.7083 1272.6 94.1755C1272.12 93.9579 1271.84 94.3629 1271.72 94.851C1271.58 95.3352 1271.62 95.9322 1271.7 96.0745C1270.7 96.4177 1270.59 95.939 1270.68 95.402C1270.77 94.8667 1271.07 94.276 1270.79 94.4523L1270.15 95.0665L1270.41 95.0975C1270.31 95.5656 1270.35 95.9429 1270.28 96.2887C1270.2 96.6336 1270.03 96.9454 1269.52 97.3167C1268.7 97.5744 1268.6 96.8253 1268.32 96.9794C1268.25 96.8904 1268.13 96.9202 1267.91 97.2545C1267.38 97.6148 1266.9 98.0215 1266.39 98.4057C1266.85 98.5411 1267.31 98.6812 1267.76 98.8256C1267.54 99.8281 1266.43 99.9311 1267.98 100.402C1267.69 100.305 1267.38 100.293 1267.07 100.354C1266.76 100.421 1266.44 100.558 1266.12 100.743C1265.81 100.928 1265.49 101.161 1265.17 101.421C1264.87 101.69 1264.58 101.993 1264.29 102.298C1264.01 102.605 1263.73 102.909 1263.49 103.214C1263.24 103.519 1263.01 103.807 1262.81 104.064C1262.38 104.568 1262.04 104.928 1261.8 104.984C1261.8 105.722 1261.64 106.303 1261.35 106.834C1261.09 107.377 1260.71 107.877 1260.28 108.421C1260.69 108.279 1261.91 108.884 1261.15 109.758C1260.07 108.799 1259.53 109.094 1258.97 109.61C1258.39 110.118 1257.87 110.861 1256.74 110.806C1257.55 110.747 1257.18 111.547 1256.95 112.336C1256.73 113.134 1256.62 113.886 1257.78 113.702C1257.13 114.494 1256.8 113.284 1255.86 113.689C1255.85 115.036 1255.16 116.168 1254.42 117.411C1254.03 118.023 1253.67 118.671 1253.34 119.349C1253.01 120.023 1252.77 120.748 1252.66 121.508C1253.01 121.648 1253.69 121.319 1254.05 122.077C1253.31 122.417 1252.6 122.787 1251.88 123.177C1251.93 123.821 1253.84 124.164 1252.37 124.973C1252.71 124.879 1253.21 124.75 1253.26 125.159C1252.92 125.832 1252.62 126.531 1252.44 127.252C1252.27 127.975 1252.12 128.71 1252.06 129.456C1252.02 130.202 1251.97 130.952 1251.99 131.704C1252.02 132.457 1252.04 133.208 1252.09 133.958C1252.16 134.708 1252.19 135.458 1252.23 136.207C1252.28 136.955 1252.28 137.707 1252.26 138.464C1252.26 139.219 1252.18 139.988 1252.06 140.772C1251.95 141.553 1251.76 142.36 1251.49 143.199C1252.04 142.242 1252.2 142.778 1252.37 143.377C1252.44 142.947 1253.26 143.196 1253.74 143.013L1253.33 144.372L1253.13 145.065L1252.95 145.759C1253.69 145.8 1253.89 146.431 1254.08 147.045C1254.28 147.655 1254.49 148.236 1255.16 148.143L1254.69 147.482C1255.6 147.73 1256.32 147.105 1257.07 146.406C1257.83 145.697 1258.64 144.915 1259.63 144.702C1258.64 144.455 1259.07 143.612 1259.47 142.753C1259.66 142.322 1259.83 141.888 1259.77 141.495C1259.72 141.099 1259.46 140.738 1258.76 140.439C1259.1 140.009 1259.45 140.633 1259.88 140.359C1258.96 140.106 1258.67 139.619 1258.95 138.637L1259.18 138.714C1258.67 136.138 1259.45 134.924 1260.1 132.113L1259.1 132.287C1259.24 131.664 1259.57 131.552 1259.84 131.28C1259.11 130.874 1259.06 131.308 1258.99 131.757C1258.93 132.202 1258.86 132.664 1258.04 132.302C1259.04 131.909 1259.14 130.818 1259.27 129.752C1259.44 128.693 1259.64 127.664 1260.85 127.591C1261.02 126.667 1259.66 127.673 1259.83 126.734L1260.49 126.6L1259.74 126.208C1260 125.61 1260.84 125.474 1261.36 125.569C1261.26 125.7 1261.41 126.011 1261.42 126.173C1261.87 125.866 1261.93 125.32 1261.91 124.813C1261.9 124.31 1261.85 123.85 1261.99 123.752L1261.38 124.515C1261.42 123.865 1261.52 123.189 1261.7 122.518C1261.8 122.186 1261.91 121.85 1262.01 121.513C1262.11 121.175 1262.22 120.838 1262.35 120.507C1262.59 119.84 1262.79 119.163 1262.98 118.495C1263.06 118.158 1263.13 117.817 1263.17 117.469C1263.22 117.126 1263.25 116.782 1263.25 116.426L1262.74 116.39C1262.76 115.854 1262.84 115.507 1262.96 115.261C1263.09 115.019 1263.27 114.881 1263.45 114.743C1263.63 114.606 1263.83 114.472 1264.02 114.244C1264.21 114.012 1264.41 113.691 1264.61 113.186L1264.66 113.311C1264.49 112.706 1264.58 112.067 1264.96 111.606C1265.11 112.356 1266.42 111.375 1266.53 112.3C1266.72 111.187 1266.72 110.851 1266.59 110.551C1266.47 110.242 1266.2 109.953 1265.93 108.842L1266.75 109.064C1266.48 108.232 1266.23 107.968 1266.79 106.978C1266.72 108.107 1268.14 107.226 1268.18 108.566C1269.53 108.26 1269.76 107.412 1269.98 106.672C1270.19 105.948 1270.44 105.409 1271.65 105.963C1270.89 103.655 1269.43 106.458 1269.52 105.719C1268.65 105.575 1268.99 103.953 1269.68 103.584C1269.95 103.331 1270.68 103.641 1271.46 103.854C1272.25 104.072 1273.09 104.19 1273.77 103.633C1273.63 103.736 1273.72 103.872 1273.58 103.973C1274.01 103.982 1274.14 103.636 1274.32 103.306C1274.49 102.971 1274.72 102.672 1275.32 102.802C1274.92 101.464 1276.2 102.247 1275.36 100.784L1274.24 102.083C1274.49 101.631 1274.51 100.873 1274.71 100.197C1274.9 99.5223 1275.32 98.9725 1276.24 98.9308C1276.31 99.2876 1276.16 99.9243 1276.03 100.306C1276.68 100.477 1276.59 99.5393 1277.26 99.7241C1277.63 100.47 1277.27 100.828 1276.79 101.189C1276.55 101.372 1276.28 101.555 1276.07 101.799C1275.86 102.053 1275.71 102.359 1275.7 102.764C1276.1 102.917 1276.28 102.392 1276.47 102.064C1276.67 101.74 1276.83 101.598 1277.13 102.49C1276.78 101.336 1277.2 101.152 1277.68 101.003C1278.18 100.857 1278.75 100.78 1278.83 99.6994L1279.26 100.618C1279.34 100.388 1279.44 99.7676 1279.77 99.6364C1279.79 100.118 1279.81 100.593 1279.85 101.082C1279.98 100.357 1280.52 100.374 1281.05 100.44C1281.31 100.475 1281.58 100.525 1281.82 100.507C1282.06 100.494 1282.26 100.423 1282.4 100.192C1281.56 100.581 1281.35 100.393 1281.19 100.01C1281.04 99.6381 1280.98 99.1122 1280.45 98.9729C1280.83 98.3831 1281.19 98.2213 1281.53 98.2643C1281.86 98.306 1282.17 98.556 1282.5 98.8294C1282.82 99.1041 1283.16 99.3971 1283.55 99.5363C1283.95 99.6867 1284.39 99.6824 1284.94 99.3328C1284.68 99.5921 1283.5 99.251 1283.84 98.6152C1284.38 98.6292 1285.12 98.7336 1285.58 99.1441C1287.12 98.4006 1284.99 98.2468 1285.48 97.4257C1286.44 98.4099 1286.13 96.6566 1286.79 96.0583L1287.08 97.042C1288.13 97.0876 1288.12 96.5353 1288.09 96.0034C1288.07 95.4749 1288.03 94.9489 1289.03 95.1354C1288.88 95.6563 1288.74 96.1746 1288.61 96.6907L1289.44 96.1243L1289.52 97.3052C1289.91 96.7725 1290.2 96.5387 1290.52 96.4539C1290.84 96.3866 1291.19 96.4654 1291.7 96.5421C1291.35 95.8777 1291.52 94.6674 1292.43 94.5047C1293.12 95.0328 1292.22 95.5145 1293.46 95.2125C1293.25 95.8862 1293.06 96.7222 1292.39 95.8526C1292.38 96.1865 1292.21 96.5353 1292.21 96.8721C1292.93 97.4602 1293.79 96.8295 1294.24 96.755C1294.06 96.7388 1293.86 96.709 1293.74 96.5783C1294.27 96.017 1294.83 95.5247 1295.41 94.9992C1295.73 95.3628 1295.51 95.6891 1295.31 96.0097C1295.67 95.8782 1295.89 95.362 1296.44 95.2721C1296.33 96.1175 1296.39 96.9488 1295.69 97.4032C1296.21 97.0374 1296.76 96.7461 1297.32 96.4147C1297.44 96.772 1298.17 97.3955 1297.96 97.7064C1298.41 97.9653 1298.96 97.5752 1299.58 97.2039C1300.19 96.8555 1300.88 96.5489 1301.46 96.913C1301.54 96.7597 1301.68 96.6221 1301.96 96.5374C1302.53 96.7141 1303.03 97.0523 1303.57 97.2967C1304.11 97.5433 1304.7 97.5774 1305.49 97.1843C1305.64 97.7298 1305.78 98.2736 1305.92 98.8141C1306.46 98.7621 1306.33 98.2498 1306.27 97.7251C1306.22 97.2064 1306.24 96.6558 1307.21 96.6064C1308.6 96.4978 1307.35 97.9696 1307.67 98.49C1308.07 98.2072 1308.65 97.7733 1309.23 97.6331C1309.81 97.4901 1310.41 97.5756 1310.75 98.3763C1310.3 98.493 1310.08 98.1868 1309.7 98.1808Z" fill="black"/>
<path d="M1333.68 118.522C1333.81 118.382 1333.98 118.288 1334.14 118.195C1333.94 118.162 1333.77 118.237 1333.68 118.522Z" fill="black"/>
<path d="M1301.5 96.9302C1301.49 96.92 1301.47 96.9209 1301.46 96.9132C1301.43 96.9728 1301.41 97.0346 1301.4 97.0955L1301.5 96.9302Z" fill="black"/>
<path d="M1326.47 159.334C1326.75 159.239 1326.98 159.247 1327.19 159.302C1327.01 159.126 1326.78 159.08 1326.47 159.334Z" fill="black"/>
<path d="M1306.1 182.035L1307.04 181.6C1306.57 181.734 1306.36 181.542 1306.09 181.422C1306.16 181.655 1306.41 181.964 1306.1 182.035Z" fill="black"/>
<path d="M1297.43 176.415C1297.3 176.544 1297.15 176.419 1297.02 176.542L1297.05 177.021C1297.61 177.021 1297.99 176.594 1297.43 176.415Z" fill="black"/>
<path d="M1304.66 178.818C1304.56 178.397 1304.38 178.283 1304.14 178.308C1303.91 178.335 1303.62 178.501 1303.3 178.604C1303.34 178.596 1303.38 178.586 1303.42 178.593C1303.4 179.201 1303.55 179.389 1303.79 179.367C1304.03 179.33 1304.35 179.073 1304.66 178.818Z" fill="black"/>
<path d="M1303.16 178.648C1302.96 178.707 1302.76 178.748 1302.56 178.728C1302.53 179.217 1302.81 178.804 1303.16 178.648Z" fill="black"/>
<path d="M1311.93 179.413C1311.55 179.302 1312.05 180.533 1311.77 180.255C1311.75 180.839 1312.19 180.347 1312.42 179.853C1312.65 179.359 1312.69 178.861 1311.93 179.413Z" fill="black"/>
<path d="M1303.74 176.088L1304.11 177.106L1304.33 176.197L1303.74 176.088Z" fill="black"/>
<path d="M1308.71 175.868L1307.67 175.821C1307.73 175.991 1307.63 176.123 1307.49 176.239C1308.1 176.127 1308.82 176.167 1308.71 175.868Z" fill="black"/>
<path d="M1307.49 176.239C1307.17 176.296 1306.88 176.393 1306.74 176.607C1306.91 176.554 1307.27 176.429 1307.49 176.239Z" fill="black"/>
<path d="M1305.02 175.545L1305.34 175.715L1306.04 175.675L1305.02 175.545Z" fill="black"/>
<path d="M1318.83 172.044L1319.63 171.222C1319.54 170.851 1319.17 170.807 1318.9 171.137C1318.8 171.49 1318.51 171.82 1318.83 172.044Z" fill="black"/>
<path d="M1314.65 170.881C1314.99 170.966 1315.11 171.175 1315.4 171.426L1314.87 170.216L1314.65 170.881Z" fill="black"/>
<path d="M1317.19 169.269C1317.11 168.894 1317.94 167.612 1316.89 168.326C1316.98 168.703 1316.21 169.432 1317.19 169.269Z" fill="black"/>
<path d="M1330.22 160.472L1330.06 160.692L1331.74 162.044L1330.22 160.472Z" fill="black"/>
<path d="M1332.34 146.373C1331.47 147.231 1333.49 147.098 1332.53 147.822C1332.91 148.268 1333.32 147.225 1333.63 147.644C1333.37 146.793 1333.78 146.569 1332.34 146.373Z" fill="black"/>
<path d="M1333.63 147.644C1333.67 147.78 1333.72 147.93 1333.8 148.101C1333.75 147.859 1333.69 147.732 1333.63 147.644Z" fill="black"/>
<path d="M1252.35 147.713C1252.3 148.054 1252.26 148.392 1252.21 148.735L1252.71 147.944C1252.59 147.868 1252.46 147.793 1252.35 147.713Z" fill="black"/>
<path d="M1254.41 148.877L1253.19 149.535L1254.53 149.632C1254.41 149.461 1254.17 149.125 1254.41 148.877Z" fill="black"/>
<path d="M1321.48 107.588L1321.74 107.378C1321.91 107.04 1321.8 106.909 1321.6 106.643L1321.48 107.588Z" fill="black"/>
<path d="M1314.43 101.379L1314.56 101.476L1314.85 100.229L1314.43 101.379Z" fill="black"/>
<path d="M1306.62 100.045C1306.9 100.18 1307.33 100.009 1307.62 100.143C1306.91 100.183 1306.93 98.517 1306.62 100.045Z" fill="black"/>
<path d="M1304.59 101.99C1304.84 102.129 1304.96 101.1 1305.04 100.926C1304.52 101.062 1304.55 102.256 1304.59 101.99Z" fill="#202020"/>
<path d="M1304.59 101.99C1304.84 102.129 1304.96 101.1 1305.04 100.926C1304.52 101.062 1304.55 102.256 1304.59 101.99Z" fill="#202020"/>
<path d="M1285.21 101.818L1285.27 100.863C1285.2 101.359 1285.14 101.852 1285.09 102.343L1285.21 101.818Z" fill="#202020"/>
<path d="M1299.25 154.333L1299.44 154.04C1299.35 154.133 1299.29 154.231 1299.25 154.333Z" fill="black"/>
<path d="M1299.25 154.333L1299.44 154.04C1299.35 154.133 1299.29 154.231 1299.25 154.333Z" fill="black"/>
<path d="M1297.74 154.3L1297.7 154.781C1297.77 154.517 1297.8 154.321 1297.74 154.3Z" fill="black"/>
<path d="M1297.74 154.3L1297.7 154.781C1297.77 154.517 1297.8 154.321 1297.74 154.3Z" fill="black"/>
<path d="M1266.3 139.952C1265.5 140.595 1264.23 141.473 1265.28 141.172L1266.29 140.792C1266.04 140.497 1266.11 140.212 1266.3 139.952Z" fill="black"/>
<path d="M1269.11 141.882C1268.31 142.525 1267.05 143.403 1268.1 143.102L1269.1 142.722C1268.86 142.427 1268.93 142.142 1269.11 141.882Z" fill="black"/>
<path d="M1282.94 155.109C1282.97 155.003 1283 154.891 1283.03 154.781C1282.74 155.023 1282.47 155.25 1282.22 155.456C1282.44 155.351 1282.68 155.233 1282.94 155.109Z" fill="black"/>
<path d="M1282.94 155.109C1282.97 155.003 1283 154.891 1283.03 154.781C1282.74 155.023 1282.47 155.25 1282.22 155.456C1282.44 155.351 1282.68 155.233 1282.94 155.109Z" fill="black"/>
<path d="M1285.67 151.636L1285.64 152.455C1285.69 152.198 1285.71 151.926 1285.67 151.636Z" fill="black"/>
<path d="M1285.67 151.636L1285.64 152.455C1285.69 152.198 1285.71 151.926 1285.67 151.636Z" fill="black"/>
<path d="M1306.66 151.164L1306.38 150.093C1306.07 150.25 1306.45 150.675 1306.66 151.164Z" fill="black"/>
<path d="M1306.66 151.164L1306.38 150.093C1306.07 150.25 1306.45 150.675 1306.66 151.164Z" fill="black"/>
<path d="M1269.26 119.506C1268.71 119.698 1268.43 119.939 1268.26 120.188C1269.02 119.97 1269.99 120.016 1269.26 119.506Z" fill="black"/>
<path d="M1269.26 119.506C1268.71 119.698 1268.43 119.939 1268.26 120.188C1269.02 119.97 1269.99 120.016 1269.26 119.506Z" fill="black"/>
<path d="M1299.02 165.741C1299.22 165.533 1299.29 165.309 1299.27 165.071C1299.08 165.268 1298.97 165.481 1299.02 165.741Z" fill="black"/>
<path d="M1299.02 165.741C1299.22 165.533 1299.29 165.309 1299.27 165.071C1299.08 165.268 1298.97 165.481 1299.02 165.741Z" fill="black"/>
<path d="M1267.78 121.315C1267.91 121.288 1267.99 121.24 1268.1 121.206C1268.06 120.854 1268.05 120.508 1268.26 120.188C1267.7 120.344 1267.26 120.649 1267.78 121.315Z" fill="black"/>
<path d="M1267.78 121.315C1267.91 121.288 1267.99 121.24 1268.1 121.206C1268.06 120.854 1268.05 120.508 1268.26 120.188C1267.7 120.344 1267.26 120.649 1267.78 121.315Z" fill="black"/>
<path d="M1316.86 126.593C1316.89 126.556 1316.91 126.523 1316.95 126.484C1316.82 126.53 1316.82 126.56 1316.86 126.593Z" fill="black"/>
<path d="M1316.86 126.593C1316.89 126.556 1316.91 126.523 1316.95 126.484C1316.82 126.53 1316.82 126.56 1316.86 126.593Z" fill="black"/>
<path d="M1319.76 111.691C1319.9 111.737 1320.05 111.892 1320.2 112.028C1320.18 111.906 1320.06 111.789 1319.76 111.691Z" fill="black"/>
<path d="M1319.76 111.691C1319.9 111.737 1320.05 111.892 1320.2 112.028C1320.18 111.906 1320.06 111.789 1319.76 111.691Z" fill="black"/>
<path d="M1273.06 126.206C1273.06 126.213 1273.06 126.218 1273.05 126.226C1273.28 126.215 1273.23 126.215 1273.06 126.206Z" fill="black"/>
<path d="M1273.06 126.206C1273.06 126.213 1273.06 126.218 1273.05 126.226C1273.28 126.215 1273.23 126.215 1273.06 126.206Z" fill="black"/>
<path d="M1318.96 143.343C1319 143.343 1319.03 143.336 1319.07 143.34C1318.76 142.953 1318.78 143.071 1318.96 143.343Z" fill="black"/>
<path d="M1318.96 143.343C1319 143.343 1319.03 143.336 1319.07 143.34C1318.76 142.953 1318.78 143.071 1318.96 143.343Z" fill="black"/>
<path d="M1278.75 142.94C1278.74 142.936 1278.71 142.944 1278.7 142.941C1278.69 142.954 1278.68 142.972 1278.67 142.985L1278.75 142.94Z" fill="black"/>
<path d="M1278.75 142.94C1278.74 142.936 1278.71 142.944 1278.7 142.941C1278.69 142.954 1278.68 142.972 1278.67 142.985L1278.75 142.94Z" fill="black"/>
<path d="M1285.36 152.038C1285.28 152.228 1285.16 152.417 1285.05 152.606C1285.21 152.479 1285.34 152.288 1285.36 152.038Z" fill="black"/>
<path d="M1285.36 152.038C1285.28 152.228 1285.16 152.417 1285.05 152.606C1285.21 152.479 1285.34 152.288 1285.36 152.038Z" fill="black"/>
<path d="M1306.72 151.364C1306.73 151.37 1306.73 151.363 1306.74 151.367C1306.72 151.298 1306.69 151.23 1306.66 151.164L1306.72 151.364Z" fill="black"/>
<path d="M1306.72 151.364C1306.73 151.37 1306.73 151.363 1306.74 151.367C1306.72 151.298 1306.69 151.23 1306.66 151.164L1306.72 151.364Z" fill="black"/>
<path d="M1276.87 130.272C1276.68 130.387 1276.47 130.437 1276.24 130.457C1276.52 130.508 1276.77 130.477 1276.87 130.272Z" fill="black"/>
<path d="M1276.87 130.272C1276.68 130.387 1276.47 130.437 1276.24 130.457C1276.52 130.508 1276.77 130.477 1276.87 130.272Z" fill="black"/>
<path d="M1274.06 120.467L1274.04 121.243C1274.38 121.499 1274.69 121.458 1274.67 121.158C1274.49 120.877 1274.47 120.572 1274.06 120.467Z" fill="black"/>
<path d="M1274.06 120.467L1274.04 121.243C1274.38 121.499 1274.69 121.458 1274.67 121.158C1274.49 120.877 1274.47 120.572 1274.06 120.467Z" fill="black"/>
<path d="M1277.94 120.508C1277.64 120.504 1277.4 120.364 1277.01 120.224L1278.27 121.066L1277.94 120.508Z" fill="black"/>
<path d="M1277.94 120.508C1277.64 120.504 1277.4 120.364 1277.01 120.224L1278.27 121.066L1277.94 120.508Z" fill="black"/>
<path d="M1277.34 122.22C1277.67 122.488 1277.99 123.545 1278.26 122.859C1277.92 122.61 1277.91 121.907 1277.34 122.22Z" fill="black"/>
<path d="M1272.65 130.6L1272.65 130.431L1270.17 130.134L1272.65 130.6Z" fill="black"/>
<path d="M1276.9 137.975C1276.8 137.931 1276.67 137.888 1276.5 137.846C1276.67 137.932 1276.8 137.963 1276.9 137.975Z" fill="black"/>
<path d="M1276.9 137.975C1276.8 137.931 1276.67 137.888 1276.5 137.846C1276.67 137.932 1276.8 137.963 1276.9 137.975Z" fill="black"/>
<path d="M1294.89 151.34L1294.8 151.713C1294.78 152.136 1294.86 152.184 1295.01 152.288L1294.89 151.34Z" fill="black"/>
<path d="M1294.89 151.34L1294.8 151.713C1294.78 152.136 1294.86 152.184 1295.01 152.288L1294.89 151.34Z" fill="black"/>
<path d="M1299.62 152.73L1299.53 152.704L1299.82 154.134L1299.62 152.73Z" fill="black"/>
<path d="M1299.62 152.73L1299.53 152.704L1299.82 154.134L1299.62 152.73Z" fill="black"/>
<path d="M1303.14 150.17C1302.98 150.15 1302.89 150.506 1302.73 150.488C1302.97 150.151 1303.72 151.881 1303.14 150.17Z" fill="black"/>
<path d="M1303.14 150.17C1302.98 150.15 1302.89 150.506 1302.73 150.488C1302.97 150.151 1303.72 151.881 1303.14 150.17Z" fill="black"/>
<path d="M1274.9 151.485C1275.18 151.89 1275.47 152.333 1275.73 152.817C1275.81 152.984 1275.89 153.155 1275.97 153.329C1275.98 153.329 1276 153.329 1276.01 153.329C1276.39 153.329 1276.75 153.493 1277.01 153.778C1277.44 154.269 1277.37 154.844 1277.32 155.277C1277.3 155.408 1277.29 155.492 1277.3 155.528C1277.29 155.242 1276.99 154.739 1276.45 154.621C1276.49 154.797 1276.52 154.975 1276.54 155.153L1277.8 156.234C1277.74 156.334 1277.68 156.443 1277.62 156.569C1277.59 156.618 1277.56 156.672 1277.53 156.727C1277.55 156.746 1277.56 156.764 1277.57 156.782C1277.57 156.782 1280.26 155.429 1280.26 155.429L1280.74 154.843C1281 154.163 1281.54 153.62 1282.04 153.19C1282 153.07 1281.98 152.942 1281.97 152.808C1281.79 152.875 1281.61 152.934 1281.42 152.99C1281.13 153.073 1280.83 153.133 1280.53 153.169C1280.34 153.192 1280.15 153.203 1279.97 153.203C1279.49 153.203 1279.05 153.125 1278.65 152.972L1276.01 151.968L1276.35 151.787C1276.09 151.735 1275.82 151.687 1275.57 151.633C1275.34 151.584 1275.12 151.534 1274.9 151.485Z" fill="black"/>
<path d="M1269.72 132.399C1269.31 132.339 1268.95 132.275 1268.66 132.205C1268.62 132.625 1268.46 133.079 1268.18 133.563L1268.08 133.735C1267.94 133.98 1267.68 134.438 1267.69 134.596L1267.72 134.91L1267.87 134.856L1268.51 133.615C1268.89 133.705 1269.36 133.82 1269.86 133.947V132.768L1269.72 132.399Z" fill="black"/>
<path d="M1270.54 126.244L1266.12 126.156C1265.94 126.156 1265.85 126.178 1265.81 126.191C1265.79 126.234 1265.76 126.337 1265.74 126.541C1265.73 126.777 1265.74 127.034 1265.75 127.306C1265.75 127.458 1265.76 127.612 1265.76 127.766L1267.07 128.005L1266.8 129.296C1266.75 129.529 1266.81 129.838 1266.94 130.232L1267.31 130.24L1268 129.789C1268.16 129.684 1268.63 129.363 1269.19 129.054C1269.5 128.883 1269.88 128.688 1270.27 128.525C1270.33 128.132 1270.38 127.763 1270.42 127.427C1270.47 126.99 1270.51 126.597 1270.54 126.244Z" fill="black"/>
<path d="M1268.3 137.456C1268.36 137.767 1268.35 138.102 1268.24 138.447C1268.26 138.518 1268.28 138.586 1268.29 138.65C1268.33 138.904 1268.31 139.157 1268.24 139.407C1268.25 139.418 1268.37 139.527 1268.37 139.527L1268.43 139.568C1268.54 139.633 1268.67 139.685 1268.82 139.713L1269.44 139.832L1269.59 137.948C1269.12 137.815 1268.68 137.654 1268.3 137.456Z" fill="black"/>
<path d="M1271.09 119.796L1271.07 119.677L1271.08 119.556C1271.08 119.395 1271.1 119.246 1271.14 119.109L1271.09 119.082C1271.06 119.269 1271.04 119.459 1271 119.656L1270.98 119.729C1270.88 120.151 1270.74 120.728 1270.34 121.243C1270.09 121.556 1269.79 121.817 1269.42 122.029C1269.42 122.086 1269.41 122.144 1269.41 122.202C1269.37 122.483 1269.3 122.753 1269.18 123.007C1269.07 123.29 1268.91 123.546 1268.71 123.788L1268.24 124.357L1267.57 124.237L1270.48 126.036L1269.57 123.758L1270.61 124.164C1270.64 123.628 1270.75 122.567 1271.13 120.036C1271.12 119.956 1271.1 119.876 1271.09 119.796Z" fill="black"/>
<path d="M1326.11 135.91C1325.51 135.821 1325.05 135.569 1324.75 135.17C1324.44 134.763 1324.35 134.238 1324.5 133.73L1324.61 133.341L1324.6 133.346L1324.67 133.097L1324.78 132.706L1324.8 132.707L1325.53 130.37C1325.78 129.584 1326.36 129.284 1326.85 129.16C1326.7 128.398 1326.8 127.674 1326.87 127.173C1326.93 126.823 1326.96 126.457 1326.96 126.089C1326.83 126.111 1326.69 126.124 1326.55 126.124C1326.31 126.124 1326.08 126.09 1325.85 126.024L1323.65 125.389L1325.17 124.012C1325.03 123.953 1324.9 123.873 1324.78 123.774L1324.26 123.327L1324.35 122.642C1324.41 122.189 1324.4 121.834 1324.33 121.564C1324.25 121.211 1324.11 120.846 1323.92 120.466C1323.7 120.055 1323.51 119.688 1323.29 119.397L1322.37 118.234C1322.14 117.937 1321.93 117.64 1321.73 117.352C1321.64 117.23 1321.55 117.109 1321.48 117.003C1321.11 116.502 1320.81 116.009 1320.58 115.512C1320.38 115.076 1320.21 114.581 1320.07 113.987C1320.05 114.011 1320.02 114.033 1320.01 114.051L1319.27 114.921C1319.94 115.572 1320.46 116.218 1320.85 116.878L1320.96 117.067L1321.04 117.274C1322.53 121.599 1323.25 124.712 1323.25 126.792L1323.25 126.85C1323.2 128.7 1322.98 130.352 1322.6 131.761C1322.44 132.362 1322.23 132.962 1322 133.561C1322.14 133.914 1322.16 134.273 1322.1 134.588L1322.07 134.731L1322.1 134.812C1322.16 134.843 1322.22 134.876 1322.28 134.91L1325.92 136.853L1323.4 137.134L1324.25 140.873L1323.2 139.938C1323.18 140.164 1323.11 140.381 1322.99 140.576C1322.58 141.397 1321.57 141.42 1320.59 141.443C1320.51 141.444 1320.42 141.446 1320.34 141.448C1320.41 141.533 1320.49 141.633 1320.55 141.711C1320.74 141.934 1320.95 142.186 1321.13 142.454C1321.59 143.148 1321.72 143.808 1321.5 144.415C1321.39 144.736 1321.06 145.314 1320.19 145.575L1319.58 145.757L1319.08 145.375C1319.01 145.323 1318.94 145.267 1318.87 145.207C1318.74 145.234 1318.6 145.251 1318.44 145.251L1318.13 145.246L1318.01 145.179C1318.07 145.619 1317.99 146.009 1317.77 146.344C1317.51 146.753 1317.07 147.011 1316.57 147.052C1316.51 147.056 1316.46 147.059 1316.4 147.059C1316.2 147.059 1316 147.029 1315.79 146.98L1316.89 149.737L1315.98 149.287L1316.12 151.473L1315.18 150.648C1314.95 150.849 1314.6 151.019 1314.1 151.054L1313.98 152.019L1313.7 151.694C1313.63 151.827 1313.53 151.949 1313.42 152.058L1312.81 152.65C1312.81 152.65 1312.02 152.297 1312.01 152.291L1312.13 153.961L1310.47 152.841L1309.78 153.626L1309.46 153.068L1308.3 151.846C1308.2 152.031 1308.08 152.176 1307.96 152.291C1307.95 152.317 1307.94 152.343 1307.93 152.368L1307.66 153.118L1306.88 153.202C1306.8 153.21 1306.72 153.214 1306.64 153.214C1306.46 153.214 1306.29 153.193 1306.13 153.166L1305.69 156.014L1305.1 155.138C1304.78 155.354 1304.48 155.395 1304.29 155.395H1304.29C1304.03 155.395 1303.82 155.341 1303.64 155.249C1303.3 155.477 1302.96 155.514 1302.78 155.514C1302.27 155.514 1301.82 155.282 1301.41 154.822C1301.28 155.703 1300.93 156.753 1299.75 156.753C1299.56 156.753 1299.36 156.716 1299.18 156.643L1299.1 156.746L1298.4 156.487C1298.3 156.72 1298.2 156.925 1298.12 157.069L1296.97 159.177L1296.56 158.367L1295.76 159.321L1295.24 156.739L1295.14 156.853L1294.7 156C1294.51 155.761 1294.41 155.497 1294.36 155.365C1294.34 155.321 1294.32 155.275 1294.3 155.232L1293.9 155.891L1292.84 155.271C1292.76 155.227 1292.69 155.18 1292.63 155.13L1292.59 155.128L1292.59 155.102C1292.58 155.086 1292.56 155.071 1292.54 155.056C1292.53 155.056 1291.74 155.053 1291.74 155.053L1291.66 154.9C1291.61 154.933 1291.55 154.965 1291.51 154.994C1291.38 155.075 1291.24 155.161 1291.1 155.249L1289.72 156.08L1289.69 155.993C1289.46 156.235 1289.13 156.455 1288.67 156.455C1287.9 156.455 1287.55 155.969 1287.38 155.449L1285.8 156.933L1286.08 154.944L1284.39 156.057L1284.39 155.788C1284.25 155.868 1284.12 155.94 1284 156.004C1283.89 156.411 1283.86 156.576 1283.85 156.642L1283.71 157.673L1283.05 157.719L1283 157.875C1282.98 157.954 1282.95 158.035 1282.93 158.115C1282.87 158.32 1282.77 158.662 1282.59 158.998L1284.25 159.674L1284.29 159.618C1284.34 159.539 1284.4 159.461 1284.46 159.383C1284.43 159.217 1284.35 159.054 1284.24 158.917C1284.02 158.641 1283.73 158.543 1283.53 158.543C1283.49 158.543 1283.36 158.543 1283.17 158.659L1283.88 158.221L1284.56 158.703C1284.67 158.783 1284.77 158.855 1284.85 158.921C1285.18 158.597 1285.57 158.358 1286.07 158.358C1286.76 158.358 1287.16 158.815 1287.35 159.094L1288.65 159.219C1288.86 159.095 1289.1 159.016 1289.38 159.016C1290.19 159.016 1290.59 159.601 1290.82 160.114C1290.86 160.11 1290.89 160.109 1290.93 160.109C1292.28 160.109 1292.46 161.538 1292.63 162.926C1292.64 162.993 1292.64 163.069 1292.65 163.151C1292.71 163.138 1292.78 163.127 1292.84 163.119L1294.16 162.946L1294.26 164.291C1294.27 164.4 1294.27 164.508 1294.27 164.615C1294.49 164.478 1294.73 164.355 1294.99 164.272C1295.09 163.909 1295.28 163.546 1295.63 163.217L1295.85 163.006L1296.14 162.92C1296.29 162.878 1296.44 162.856 1296.59 162.856C1297.22 162.856 1297.7 163.22 1298.09 163.574L1298.72 161.356L1299.73 163.102C1299.87 162.972 1299.97 162.843 1299.99 162.717L1302.45 162.646L1302.47 162.623C1302.9 162.2 1303.43 161.675 1304.2 161.675C1304.87 161.675 1305.31 162.032 1305.6 162.467L1306.6 162.062C1306.61 161.945 1306.61 161.831 1306.62 161.739L1306.71 159.821L1308.43 160.652C1308.7 160.782 1308.89 160.954 1309.03 161.139C1309.1 160.879 1309.17 160.512 1309.25 159.996L1309.77 156.603L1311.68 159.694C1311.83 159.694 1312 159.703 1312.19 159.714C1312.35 159.724 1312.53 159.735 1312.76 159.737L1312.82 159.738C1313.03 159.738 1313.22 159.697 1313.37 159.62C1313.48 159.564 1313.53 159.506 1313.56 159.383L1314.45 156.207L1315.45 158.218C1315.54 158.185 1315.62 158.159 1315.68 158.139C1316.08 158.011 1316.5 157.942 1316.87 157.881C1317.06 157.85 1317.24 157.82 1317.42 157.78C1317.46 157.773 1317.49 157.766 1317.52 157.76C1317.45 157.614 1317.34 157.408 1317.16 157.134L1316.92 156.769C1316.92 156.769 1316.96 156.134 1316.97 156.036C1316.4 155.715 1316.11 155.136 1315.99 154.895L1315.89 154.689C1315.84 154.594 1315.78 154.467 1315.73 154.372L1314.52 154.161L1315 152.745C1315.17 152.221 1315.7 151.66 1316.65 151.66C1317.39 151.66 1318.4 152.01 1318.87 152.776C1318.88 152.794 1318.89 152.812 1318.9 152.83C1319.16 152.668 1319.51 152.514 1319.95 152.514C1320.01 152.514 1320.08 152.518 1320.15 152.526C1320.49 152.161 1320.83 151.836 1321.14 151.549C1321.68 150.981 1322.25 150.44 1322.74 149.979C1322.83 149.882 1322.94 149.786 1323.04 149.69C1323.2 149.541 1323.35 149.4 1323.48 149.258C1323.71 148.99 1323.94 148.719 1324.15 148.46C1324.15 148.46 1324.33 148.237 1324.36 148.194L1322.75 147.74L1323.72 146.013L1323.07 145.734L1324.74 144.393C1324.87 144.289 1325 144.201 1325.14 144.128C1325.17 143.893 1325.23 143.68 1325.31 143.499L1325.44 143.185L1325.7 142.982C1325.46 142.518 1325.46 142.11 1325.45 141.892C1325.46 142.128 1325.58 142.356 1325.74 142.526L1325.61 140.268C1325.75 140.258 1325.83 140.229 1325.85 140.221C1325.9 140.193 1325.95 140.145 1326 140.078C1326.14 139.881 1326.27 139.546 1326.36 139.101L1326.38 139.032C1326.42 138.816 1326.46 138.613 1326.47 138.469L1326.48 138.341C1326.5 138.113 1326.51 137.897 1326.53 137.703C1326.55 137.571 1326.57 137.386 1326.62 137.179C1326.37 136.812 1326.21 136.428 1326.13 136.02C1326.13 135.983 1326.12 135.946 1326.11 135.91Z" fill="black"/>
<path d="M1319.43 141.507C1319.43 141.519 1319.43 141.532 1319.43 141.544L1319.76 141.475C1319.62 141.485 1319.52 141.496 1319.43 141.507Z" fill="black"/>
<path d="M1327.27 131.92L1325.64 132.789L1325.83 132.808C1326.06 132.83 1326.26 132.841 1326.43 132.841C1326.64 132.841 1326.77 132.823 1326.84 132.809C1326.84 132.802 1326.84 132.795 1326.85 132.786C1326.88 132.727 1326.91 132.666 1326.94 132.603C1327.02 132.423 1327.12 132.197 1327.28 131.958C1327.28 131.945 1327.27 131.932 1327.27 131.92Z" fill="black"/>
</g>
</g>
<defs>
<clipPath id="clip0_51_1788">
<rect width="1440" height="1024" fill="white"/>
</clipPath>
<clipPath id="clip1_51_1788">
<rect width="130" height="133" fill="white" transform="translate(1234 67)"/>
</clipPath>
</defs>
</svg>
