<svg width="130" height="133" viewBox="0 0 130 133" fill="none" xmlns="http://www.w3.org/2000/svg">
<g clip-path="url(#clip0_38_1326)">
<path d="M56.3934 77.798C57.7028 78.0718 58.3573 79.0969 58.3573 80.8745C58.3573 81.831 58.1311 82.5826 57.68 83.1303C57.2285 83.6767 56.6407 83.9501 55.9191 83.9501C55.6926 83.9501 55.2643 83.9156 54.6326 83.8474C53.9996 83.7789 53.3224 83.7112 52.6008 83.6426C51.878 83.574 51.1783 83.5055 50.5011 83.4373C49.8238 83.3692 49.3499 83.3347 49.079 83.3347H48.3338C48.1077 83.3347 47.8823 83.3585 47.6566 83.4028C46.8886 83.3585 45.9974 83.2555 44.9817 83.0954C43.9652 82.9361 42.9715 82.7542 42.0018 82.5485C41.03 82.3437 40.1725 82.1278 39.4278 81.8995C38.683 81.6721 38.2429 81.4668 38.1074 81.2846C37.6551 79.9175 37.4302 78.0948 37.4302 75.816V74.6879C37.4302 74.3016 37.4521 73.9022 37.4977 73.4921L37.9036 68.6389C37.9488 68.2748 37.9716 67.9213 37.9716 67.5798V66.6569V65.7345C37.9716 65.4841 37.926 65.2448 37.8361 65.0165C38.1517 63.2849 38.3779 61.8378 38.5134 60.6761C38.6488 59.5139 38.7168 58.6149 38.7168 57.9761V57.4293C38.7168 56.7917 38.9872 54.7638 39.5295 51.3458C40.2067 49.888 41.2448 49.1589 42.6444 49.1589C43.5023 49.1589 44.2247 49.4894 44.8121 50.1495C45.3986 50.8109 45.6927 51.7112 45.6927 52.8499C45.5117 53.4883 45.3421 54.2851 45.1847 55.242C45.026 56.1989 44.8796 57.3385 44.7446 58.6596V59.2064C44.7446 59.6165 44.7104 60.2434 44.6425 61.0862C44.5749 61.9298 44.4956 62.7952 44.4053 63.6835C44.3146 64.5719 44.2365 65.37 44.1686 66.076C44.1011 66.783 44.0669 67.1812 44.0669 67.2719C44.0669 67.774 44.0893 68.0925 44.1348 68.2288C43.9538 70.1426 43.8184 71.7384 43.7285 73.0134C43.6373 74.2902 43.593 75.2696 43.593 75.9527C43.593 76.4084 43.6154 76.7048 43.661 76.8411C46.0075 77.1149 47.5654 77.2516 48.3338 77.2516C48.6946 77.2516 49.0672 77.2406 49.4516 77.2171C49.8344 77.195 50.2302 77.1831 50.6365 77.1831C52.3518 77.1831 54.2705 77.3883 56.3934 77.798Z" fill="black"/>
<path d="M80.844 58.2195C80.7529 57.3992 80.6288 56.6936 80.4715 56.1008C80.3128 55.5088 80.0309 54.9624 79.6246 54.4603C79.2182 53.9591 78.6536 53.4809 77.9316 53.0252C77.2088 52.5699 76.283 52.0683 75.1551 51.521C74.6576 51.2932 74.1613 51.1228 73.6647 51.0083C73.1672 50.8954 72.6034 50.8375 71.9717 50.8375C71.5194 50.8375 70.9662 50.8954 70.3126 51.0083C69.6572 51.1228 69.0142 51.225 68.3821 51.3162C67.6136 51.4524 66.8465 51.5896 66.0794 51.7263C65.5376 53.595 65.2667 57.1944 65.2667 62.5258C65.2667 63.0726 65.3346 64.1778 65.4696 65.8408C65.6055 67.505 65.8308 69.7711 66.1469 72.6418C66.2828 74.1009 66.4857 75.4223 66.7566 76.6067C67.5693 76.3792 69.5555 75.3533 72.7165 73.5306C73.1229 73.3032 73.7769 72.7905 74.6808 71.9924C75.5834 71.196 76.4978 70.1701 77.424 68.9168C78.3481 67.6639 79.1507 66.2062 79.8279 64.5423C80.5048 62.8793 80.844 61.0677 80.844 59.1082V58.2195ZM87.1423 59.7918C87.0968 61.4782 86.9052 62.9479 86.5668 64.2003C86.2279 65.4541 85.7199 66.695 85.0431 67.9258C84.3658 69.1561 83.5075 70.4891 82.4695 71.9243C81.4302 73.3599 80.1664 75.0578 78.6764 77.0163C78.4498 77.1083 77.9996 77.4043 77.3219 77.9056C76.6446 78.4068 75.888 78.9302 75.0534 79.4774C74.217 80.0238 73.3824 80.5366 72.5473 81.0152C71.7114 81.4935 71.0679 81.7558 70.6168 81.8009C69.6231 81.8921 68.653 82.0854 67.7048 82.3823C66.7566 82.6782 65.8308 83.0538 64.9278 83.5104C62.2635 83.5104 60.7735 82.5535 60.4579 80.6396C60.4579 80.4118 60.4685 80.1384 60.4921 79.819C60.5144 79.5008 60.5258 79.1589 60.5258 78.7939C60.5258 76.5159 60.3106 73.8496 59.8823 70.7966C59.4528 67.7444 59.2393 64.5082 59.2393 61.0902C59.2393 57.9013 59.5777 53.5268 60.2549 47.9667C60.6157 47.1018 61.1356 46.4634 61.8124 46.0529C62.4897 45.6432 63.2796 45.4375 64.183 45.4375C64.9502 45.4375 65.6954 45.6202 66.4178 45.9848C68.585 45.2561 70.6847 44.8907 72.7165 44.8907C73.9799 44.8907 75.2669 45.0738 76.5771 45.4375C77.886 45.8033 79.0937 46.2816 80.2005 46.8727C81.3061 47.4659 82.288 48.1269 83.1467 48.8555C84.0033 49.585 84.6363 50.2911 85.0431 50.9742C86.4419 55.0306 87.1423 57.9699 87.1423 59.7918Z" fill="black"/>
<path d="M92.3753 125.952C91.8428 126.143 92.4036 126.854 92.3964 127.038C93.1593 126.417 92.2517 125.756 92.3753 125.952Z" fill="black"/>
<path d="M99.2817 119.584L99.3539 119.98L99.9311 118.468L99.2817 119.584Z" fill="black"/>
<path d="M105.934 114.389C105.15 114.105 104.598 114.611 104.068 115.3C103.536 115.981 102.998 116.824 102.257 117.09C102.124 117.052 101.987 117.007 101.851 116.963L102.033 118.338C102.743 117.743 103.373 116.829 104.028 116.077C104.671 115.306 105.323 114.67 105.934 114.389Z" fill="black"/>
<path d="M111.507 113.55C111.199 113.452 111.282 113.175 111.29 113.147C111.295 113.133 111.281 113.18 111.19 113.344C111.105 113.511 110.93 113.782 110.6 114.203C110.722 114.175 110.771 114.18 110.849 114.171C110.979 114.03 111.181 113.859 111.507 113.55Z" fill="black"/>
<path d="M110.848 114.171C110.202 114.85 111.638 114.097 110.848 114.171V114.171Z" fill="black"/>
<path d="M113.535 110.779L113.095 112.042C113.524 112.087 114.329 111.319 114.241 111.793C114.887 110.652 114.442 110.628 113.535 110.779Z" fill="black"/>
<path d="M113.461 109.184C113.389 109.396 113.315 109.608 113.226 109.808C113.41 109.824 113.564 109.735 113.461 109.184Z" fill="black"/>
<path d="M112.677 111.108L113.226 109.808C112.924 109.779 112.546 109.465 112.941 110.373C112.679 109.995 112.827 110.474 112.677 111.108Z" fill="black"/>
<path d="M111.998 111.512C111.296 111.793 110.565 112.286 110.996 111.039C109.604 112.869 110.576 113.382 111.998 111.512Z" fill="black"/>
<path d="M105.203 112.925C104.893 113.008 104.6 113.106 104.282 113.173L104.046 114.032C104.106 113.817 104.492 113.634 104.815 113.454C105.125 113.261 105.38 113.083 105.203 112.925Z" fill="black"/>
<path d="M118.848 105.18C118.628 104.932 117.912 105.03 117.525 104.865L117.312 105.825C117.754 105.573 118.422 104.959 118.848 105.18Z" fill="black"/>
<path d="M117.525 104.865L117.832 103.443C117.105 104.39 117.194 104.721 117.525 104.865Z" fill="black"/>
<path d="M112.317 107.927L112.204 108.535L112.062 109.125L111.767 110.312C112.059 109.409 112.35 108.526 112.561 107.595L112.317 107.927Z" fill="black"/>
<path d="M121.688 100.767L121.928 101.824L121.667 100.051L121.688 100.767Z" fill="black"/>
<path d="M123.243 97.6482C123.528 98.4552 124.525 97.414 124.585 98.1405C124.92 97.2249 124.813 96.2535 124.707 95.3971C124.602 96.2049 124.167 96.9281 123.243 97.6482Z" fill="black"/>
<path d="M124.573 93.9917C124.555 94.4044 124.658 94.8903 124.707 95.3971C124.772 94.9725 124.728 94.5053 124.573 93.9917Z" fill="black"/>
<path d="M119.21 101.621C119.427 101.635 119.959 101.735 120.53 101.189L119.49 101.173C119.404 101.31 119.308 101.464 119.21 101.621Z" fill="black"/>
<path d="M119.457 101.174L119.49 101.173C119.803 100.693 120.02 100.361 120.114 100.218C120.03 100.339 119.833 100.626 119.457 101.174Z" fill="black"/>
<path d="M119.139 101.733C119.165 101.692 119.184 101.661 119.21 101.621C119.108 101.616 119.069 101.627 119.139 101.733Z" fill="black"/>
<path d="M115.086 105.754C115.137 105.305 115.253 104.652 115.188 104.231C115.121 103.809 114.859 103.61 114.118 104.006C114.214 104.413 114.471 104.504 114.703 104.666C114.93 104.826 115.149 105.07 115.086 105.754Z" fill="black"/>
<path d="M117.857 101.681L116.896 102.719C117.109 102.831 117.541 102.817 117.53 103.276L117.857 101.681Z" fill="black"/>
<path d="M117.963 100.937L117.857 101.681L118.186 101.276L117.963 100.937Z" fill="black"/>
<path d="M122.758 95.865C122.719 95.5009 122.767 95.1653 122.86 94.8327C122.952 94.4996 123.096 94.1722 123.205 93.8046C122.978 94.1483 122.72 94.4826 122.498 94.8314C122.274 95.1793 122.071 95.5345 121.896 95.8914C122.098 96.1184 122.394 96.6665 122.758 95.865Z" fill="black"/>
<path d="M121.17 98.4642C121.174 98.4182 121.192 98.3659 121.19 98.319C121.087 98.3582 121.028 98.4025 121.17 98.4642Z" fill="black"/>
<path d="M125.863 86.817C125.803 86.8417 125.731 86.8562 125.669 86.88C125.715 86.9051 125.755 86.9268 125.809 86.955L125.863 86.817Z" fill="black"/>
<path d="M121.684 95.9365C121.257 96.4003 121.292 96.824 121.38 97.2656C121.507 96.8155 121.67 96.3568 121.895 95.8914C121.803 95.7874 121.731 95.7415 121.684 95.9365Z" fill="black"/>
<path d="M125 91.8649C124.701 92.0911 124.413 92.3662 124.132 92.6609C124.514 92.4859 125.173 92.0604 125 91.8649Z" fill="black"/>
<path d="M121.503 98.255C121.501 98.2891 121.503 98.3219 121.497 98.3568C121.756 98.2687 121.663 98.2461 121.503 98.255Z" fill="black"/>
<path d="M121.503 98.255C121.53 97.9092 121.446 97.5812 121.38 97.2657C121.278 97.6319 121.208 97.9867 121.19 98.3188C121.281 98.2822 121.401 98.2618 121.503 98.255Z" fill="black"/>
<path d="M120.952 83.056C121.337 83.2166 121.641 83.7148 121.66 84.2919C121.665 84.8634 121.413 85.5209 120.785 85.9847C120.978 87.3807 123.825 87.5468 125.669 86.8799C125.335 86.7291 125.017 86.615 124.98 85.1624C124.389 85.5005 123.005 87.7056 122.65 86.3808C122.727 85.4732 122.911 85.1551 123.165 84.9716C123.421 84.7889 123.746 84.7463 124.062 84.3847C122.883 84.7906 123.167 81.7874 121.585 81.7844L121.731 83.3827C121.495 83.3422 121.264 82.7136 120.952 83.056Z" fill="black"/>
<path d="M124.739 89.3862C124.708 89.5796 124.687 89.7776 124.646 89.9675C125.004 89.399 125.459 89.069 126.361 88.4493C126.284 87.3881 126.052 87.1053 125.808 86.955L124.793 89.617L124.739 89.3862Z" fill="black"/>
<path d="M123.658 92.3648C122.997 91.5834 123.152 90.1925 121.925 90.5826C121.357 92.1174 122.185 91.9407 122.164 93.019C122.991 90.4416 122.328 93.9452 123.553 92.3431C123.49 92.9001 123.347 93.3673 123.205 93.8047C123.495 93.395 123.805 93.0109 124.132 92.6608C124.102 92.6753 124.081 92.6851 124.056 92.697L124.053 92.7094C124.048 92.7077 124.047 92.7042 124.042 92.7021C123.892 92.766 123.813 92.7745 123.924 92.677C123.918 92.6642 123.928 92.6323 123.929 92.6169C123.821 92.5501 123.739 92.4594 123.662 92.367C124.139 91.7086 123.926 92.3431 123.929 92.6169C123.968 92.6434 123.998 92.68 124.042 92.7021C124.046 92.7008 124.051 92.6987 124.056 92.697L124.645 89.9676C124.306 90.4582 124.055 91.1349 123.658 92.3648Z" fill="black"/>
<path d="M113.312 101.718C113.422 101.699 113.474 101.74 113.531 101.773C113.533 101.572 113.506 101.478 113.312 101.718Z" fill="black"/>
<path d="M114.358 101.166C114.358 101.391 114.569 101.727 114.147 102.178C113.625 102.455 113.792 101.923 113.531 101.773C113.525 102.209 113.335 103.213 114.351 102.518L114.353 102.295C115.195 101.624 116.916 101.124 116.919 101.343C116.056 101.149 115.414 101.053 114.358 101.166Z" fill="black"/>
<path d="M119.028 96.9125L119.614 94.7431L118.419 95.3717L118.863 95.5416C118.147 96.559 118.778 96.5986 119.028 96.9125Z" fill="black"/>
<path d="M126.376 86.7067L127.194 87.2936C126.906 86.7268 126.614 86.168 126.319 85.6186L126.376 86.7067Z" fill="black"/>
<path d="M127.088 83.7997L127.866 84.1255L127.578 83.2252L127.088 83.7997Z" fill="black"/>
<path d="M27.5427 24.8591L27.2734 25.4093C27.4262 25.1785 27.503 25.0056 27.5427 24.8591Z" fill="black"/>
<path d="M30.7361 22.2961L30.5674 21.9014C30.5539 22.2033 30.5952 22.386 30.7361 22.2961Z" fill="black"/>
<path d="M107.061 17.1768C106.846 15.9464 106.77 14.2689 106.261 15.0781L105.904 15.9865C106.526 16.3093 106.857 16.7351 107.061 17.1768Z" fill="black"/>
<path d="M61.5347 6.27621L61.8051 6.54919C62.0132 6.22639 62.209 5.92275 62.3841 5.65147C62.1284 5.83928 61.8389 6.05263 61.5347 6.27621Z" fill="black"/>
<path d="M61.0884 10.1097C60.7116 9.92662 60.3322 9.76692 59.9482 9.59444C60.212 9.78481 60.5795 9.94749 61.0884 10.1097Z" fill="black"/>
<path d="M15.0098 43.0687L15.5891 44.0597C15.9925 43.1449 15.39 43.3408 15.0098 43.0687Z" fill="black"/>
<path d="M127.698 53.5507C127.872 52.6521 127.86 51.9562 127.772 51.3647C127.489 52.492 126.902 53.4399 127.698 53.5507Z" fill="black"/>
<path d="M22.5666 16.2407C22.3653 16.6372 22.3556 16.8948 22.4957 17.0443C22.7084 16.6508 22.7755 16.3587 22.5666 16.2407Z" fill="black"/>
<path d="M127.163 48.9806C127.115 49.1496 127.11 49.3038 127.077 49.4707C127.404 50.0252 127.66 50.6087 127.772 51.365C127.877 50.9502 127.939 50.5133 127.874 50.0972C127.796 49.6849 127.581 49.2974 127.163 48.9806Z" fill="black"/>
<path d="M35.0918 113.906C35.1201 113.972 35.1686 114.029 35.188 114.1C35.2678 114.003 35.2032 113.953 35.0918 113.906Z" fill="black"/>
<path d="M55.9139 130.926C55.6392 130.951 55.2016 130.895 54.7881 130.854C54.9797 130.943 55.3189 130.981 55.9139 130.926Z" fill="black"/>
<path d="M129.523 71.9972C129.515 72.6364 129.611 72.1062 129.523 71.9972V71.9972Z" fill="black"/>
<path d="M125.597 74.6232C125.509 74.4831 125.389 74.3702 125.181 74.3297C125.394 74.4051 125.524 74.5061 125.597 74.6232Z" fill="black"/>
<path d="M119.881 45.0214C119.876 45.0052 119.872 44.992 119.867 44.9737C119.762 45.1985 119.783 45.1585 119.881 45.0214Z" fill="black"/>
<path d="M129.006 72.9122C129.143 72.6865 129.266 72.4216 129.363 72.1286C129.279 72.2534 129.164 72.4923 129.006 72.9122Z" fill="black"/>
<path d="M129.451 72.8244C129.386 73.0395 129.345 73.2085 129.303 73.3695C129.445 73.4653 129.549 73.4032 129.451 72.8244Z" fill="black"/>
<path d="M129.533 71.109C129.533 71.2912 129.522 71.4667 129.494 71.6362C129.459 71.8057 129.414 71.9692 129.363 72.1289C129.439 72.0097 129.495 71.9615 129.523 71.9973C129.532 71.8104 129.541 71.5467 129.533 71.109Z" fill="black"/>
<path d="M8.05557 80.1033C8.03616 80.1459 8.02772 80.1914 7.99902 80.2391C8.4923 80.6948 8.37964 80.4695 8.05557 80.1033Z" fill="black"/>
<path d="M89.2744 16.4713C89.301 16.4743 89.3238 16.4589 89.3483 16.4611C89.331 16.4398 89.309 16.413 89.2934 16.3938L89.2744 16.4713Z" fill="black"/>
<path d="M87.2603 16.2334C88.4928 15.5166 88.8481 15.9033 89.2933 16.3939C89.5047 15.506 89.7072 14.6134 89.9005 13.7161C89.0038 14.5299 88.1253 15.365 87.2603 16.2334Z" fill="black"/>
<path d="M3.23438 88.0717L3.35633 87.5968C3.92599 88.3702 3.59347 88.2156 3.23438 88.0717ZM128.454 67.1659C128.588 67.3793 128.732 67.3669 128.877 67.2775C128.625 67.1267 128.631 66.6523 128.68 66.1098C128.41 66.2631 128.258 66.5343 128.454 67.1659ZM128.873 65.0417C128.856 65.0225 128.843 65.0093 128.822 64.994C129.192 63.9562 129.044 64.325 128.873 65.0417ZM64.6958 8.2141C64.3886 8.55012 63.9299 8.34954 63.3978 7.98628C63.7805 7.88237 64.2185 7.93644 64.6958 8.2141ZM35.5492 18.4967C35.3099 18.8676 35.0162 19.8552 34.4605 19.4957C34.2153 18.2624 34.7989 18.5273 35.5492 18.4967ZM21.0014 32.1469C21.4896 31.9689 21.9664 31.7901 22.4702 31.6423C22.5031 33.7367 21.5001 34.3184 23.1294 34.0953C22.5956 33.6106 22.5069 33.109 22.6445 32.5937C22.7901 32.0852 23.1846 31.5873 23.5665 31.0806C23.7589 30.828 23.9513 30.5751 24.1159 30.3213C24.2889 30.0751 24.4396 29.8324 24.5316 29.5832C24.7164 29.0867 24.6809 28.5731 24.1986 28.0365L25.232 27.8223C25.0409 27.9858 25.1329 28.134 24.9438 28.2945C26.0042 28.1557 25.881 27.5995 25.7063 26.8649C25.5375 26.1439 25.3337 25.2598 26.2983 24.6428C27.0385 24.2901 27.7149 24.2531 27.5423 24.8591L28.3862 23.1769C28.8204 22.9078 29.0327 23.3715 28.6111 23.6424L30.5319 21.8218L30.5674 21.9015C30.594 21.3133 30.8927 20.2495 31.0695 19.753C31.8628 19.6938 30.9662 20.2035 31.3147 20.3943C31.5835 19.919 31.8493 19.4289 32.1333 18.9553C32.5975 19.1035 32.6629 19.4932 32.5135 19.9092C32.3688 20.3351 32.0071 20.7848 31.5662 21.0352C32.9481 21.815 33.0709 21.5033 33.2895 20.9381C33.5132 20.4003 33.8537 19.6103 35.5103 19.5366L34.5685 20.5825C35.3732 21.0391 35.8977 20.999 36.4585 20.867C37.0269 20.7512 37.6261 20.528 38.5067 20.6055C38.2295 20.459 37.278 20.2691 36.4901 19.9552C35.7049 19.6397 35.0892 19.1998 35.5918 18.4941C36.0897 18.457 36.6382 18.2586 37.0999 17.3179C37.5915 18.2024 38.2033 17.6104 39.0962 17.0811L39.6435 18.3297C40.4372 17.4746 40.0604 16.8843 40.4031 16.0603C41.6027 15.6612 42.2538 16.5202 42.8585 17.2191C43.7851 16.938 43.326 16.688 42.8652 16.3456C42.6361 16.177 42.4146 16.0041 42.3741 15.7886C42.3323 15.5701 42.4813 15.3269 43.0087 15.0514C43.8813 14.9931 44.5189 14.7039 45.1654 14.2904C45.8148 13.8871 46.4499 13.2981 47.2896 12.5929C48.5563 12.7211 47.3339 13.4467 47.8516 13.7044L48.5424 12.377C48.7956 12.3322 48.8049 12.6759 48.8104 12.8497C49.5437 12.2058 48.5095 11.5082 49.7788 10.7834C49.7813 10.013 50.6349 10.3771 51.6122 10.6854C52.5916 10.9673 53.7027 11.3157 54.4099 10.3106C54.8909 10.6173 54.3445 11.1709 54.5605 11.6679C55.6112 10.8911 56.0982 10.6692 56.5121 10.3503C56.9333 10.0487 57.2873 9.6825 58.2 8.83119L59.9482 9.59435C59.3026 9.13143 59.3359 8.56928 59.7178 7.98372C60.0984 7.40114 60.828 6.77511 61.5348 6.27642C61.0571 5.79264 60.6369 5.36933 60.3584 5.19174C61.1272 4.89193 61.9078 4.65387 62.6965 4.38217C62.9877 4.59851 62.7522 5.07293 62.3838 5.65125C62.5404 5.535 62.6893 5.42001 62.8058 5.31355C63.6514 5.79605 63.2134 6.59283 62.6501 7.36834C62.3682 7.10728 62.0846 6.82793 61.8049 6.54898C61.2631 7.39092 60.7955 8.31888 60.95 9.11312C61.0854 8.95214 61.3563 8.81033 61.6589 8.72685C61.5238 8.95554 61.4416 9.15783 61.5129 9.2924C61.5935 9.43336 61.8087 9.12717 62.161 8.76987L62.6957 10.2757L62.8033 9.66972C63.7603 9.93972 64.7013 10.2987 65.6271 10.6381C66.6554 9.87712 67.6614 9.02581 68.8631 8.28225C69.1636 8.09657 69.4758 7.91898 69.8029 7.75375C70.1291 7.59916 70.4692 7.46799 70.8278 7.35003C71.5431 7.12134 72.3334 6.94588 73.2056 6.92289C72.2018 7.89344 72.7588 8.69193 72.5106 9.98444C72.1735 9.23789 71.5118 9.30305 70.751 9.4947C70.37 9.59307 69.9641 9.71232 69.551 9.79621C69.1366 9.8899 68.7167 9.92993 68.304 9.8273C69.1665 10.0407 68.9142 10.653 68.6787 10.8528C69.6957 10.4801 70.7211 10.2293 71.7751 9.92524C71.5595 10.9942 72.2959 10.7846 72.9799 11.3796C72.8621 10.2745 73.4647 10.0232 74.2774 9.99637C74.6821 9.987 75.1391 10.0164 75.5729 10.0526C76.0062 10.0939 76.4223 10.1109 76.7607 10.0223C76.6729 10.7455 76.2337 11.3638 74.8226 10.8979C75.4678 11.8297 76.0868 11.3642 76.7544 10.8362C77.0852 10.5764 77.4219 10.3102 77.757 10.2153C78.0924 10.1165 78.4258 10.1961 78.7305 10.6454C78.3718 10.5594 78.2072 10.3967 77.9756 10.7216C78.9676 10.3247 80.8639 11.4068 80.2044 11.8604L79.8512 11.7748C80.1322 11.8906 80.4555 11.9996 80.8006 12.124C81.1433 12.2564 81.5129 12.3876 81.8973 12.5111C82.667 12.7564 83.4991 12.9642 84.2751 13.1563C85.0549 13.3364 85.8132 13.4122 86.4297 13.3901C87.0445 13.3714 87.5382 13.2078 87.8074 12.8335C87.7315 13.0575 86.6293 14.692 86.3559 14.9688C87.4044 14.3385 88.4969 13.7057 89.6092 13.1205C90.7139 12.5516 91.8537 11.9988 93.0267 11.4648C92.4807 12.0563 92.1288 13.3509 91.6102 14.4654C91.0946 15.5803 90.4249 16.5223 89.3484 16.461C89.7548 16.9227 90.2544 17.4456 91.549 17.584C91.3296 17.2007 91.7845 15.1255 92.3297 15.2775C92.5639 16.4125 92.6651 16.7383 92.8263 17.0623C92.9833 17.3856 93.2103 17.6922 93.5724 18.8165C93.2542 18.2156 95.0771 16.4976 95.8577 17.0951C95.5362 17.32 94.6193 19.1525 94.199 19.1823C94.734 19.0545 95.2763 18.931 95.8252 18.8118C96.3645 18.7079 96.9084 18.6104 97.46 18.5158C96.7308 18.5213 96.2282 20.1222 96.2468 20.9679C96.2856 20.7073 96.6818 21.005 97.1469 21.3862C97.6047 21.7775 98.1064 22.2809 98.4208 22.3737L97.9942 21.3278C98.8984 22.2868 99.9365 22.0066 100.988 21.775C102.032 21.542 103.138 21.298 104.117 22.2626C103.834 22.3265 103.174 22.7587 102.693 23.3132C102.214 23.8647 101.902 24.5384 102.27 25.1065C102.9 24.8668 104.387 24.2595 106.066 23.8868C107.715 23.5351 109.56 23.438 110.773 24.0738L110.574 24.9123L112.45 25.8782C111.342 26.0042 109.528 26.0515 107.73 26.118C106.818 26.1605 105.916 26.1976 105.107 26.2185C104.703 26.2287 104.321 26.2342 103.973 26.2334C103.617 26.2406 103.292 26.2419 103.011 26.2325C103.322 27.3006 102.641 26.9952 103.673 27.9935C103.545 28.8162 102.438 28.1174 102.118 27.8572C102.455 28.2941 102.77 28.749 103.096 29.1906C103.416 29.6382 103.753 30.0666 104.044 30.535C104.994 29.467 106.775 31.5022 107.592 30.6743C107.021 30.3447 106.417 30.0521 105.841 29.748C105.26 29.4478 104.69 29.148 104.087 28.8882C104.546 28.355 105.67 28.0165 106.825 28.1549C107.979 28.2848 109.267 28.8128 109.924 29.9035C109.867 30.7548 107.655 31.1146 107.325 31.4639C107.885 31.3991 109.483 32.6805 109.307 33.0902L108.709 32.8999L108.094 32.7312C108.3 33.4066 108.96 33.5817 109.602 33.8363C109.919 33.9658 110.222 34.12 110.434 34.3734C110.54 34.4998 110.624 34.651 110.675 34.835C110.718 35.0241 110.728 35.2468 110.695 35.5109C110.922 36.0419 110.035 37.8868 110.795 37.515C111.701 35.9167 115.784 32.9808 117.179 32.9037C117.187 33.0285 117.319 33.9147 117.327 34.9189C117.35 35.9163 117.313 36.9856 117.131 37.475C116.799 38.2194 115.97 38.2424 115.138 38.2777C114.308 38.3071 113.501 38.3314 113.22 38.9416C113.573 38.7798 114.253 38.9898 114.488 39.1094C114.465 39.7989 113.32 39.4672 114.053 40.5242C115.426 40.051 115.133 42.9179 115.411 40.5097C116.368 41.4619 115.74 41.8601 116.411 43.1884C116.738 42.7812 117.595 42.7587 118.497 42.9925C119.405 43.2203 120.29 43.739 120.736 44.2922C120.367 44.3531 120.032 44.8088 119.882 45.0213C119.989 45.3445 120.086 45.6503 120.164 45.9463C120.233 46.2461 120.291 46.5331 120.342 46.8104C120.444 47.3657 120.518 47.884 120.593 48.3925C120.738 49.4133 120.814 50.4183 121.157 51.6214C120.887 51.9357 120.732 53.2013 120.021 52.853C120.347 53.134 120.894 53.3402 121.099 54.0799C120.211 55.7727 120.534 52.4761 119.323 53.8959C119.741 53.8474 120.131 54.2545 120.512 54.7992C120.875 55.3468 121.201 56.0363 121.555 56.5274C122.162 56.2518 122.111 55.6096 121.823 54.9227C121.524 54.237 120.94 53.5254 120.571 53.0574C121.436 52.8466 122.429 53.097 123.388 53.7392C123.876 54.0578 124.326 54.4794 124.735 54.9857C125.148 55.4908 125.528 56.0789 125.851 56.7305C126.598 58.8543 124.841 57.8373 125.146 58.1806C125.193 59.2043 125.45 59.9045 125.76 60.4513C126.059 60.9981 126.447 61.3848 126.804 61.7583C127.513 62.5005 128.133 63.2096 127.515 64.9804C126.416 66.3789 125.262 65.0894 124.451 65.4143C124.209 64.5519 124.391 63.8838 124.577 63.2735C124.76 62.6645 124.996 62.1126 124.928 61.5206L124.502 63.0137C124.083 62.4814 123.713 61.3626 123.991 60.7042C123.759 61.0041 123.662 61.5709 123.635 62.3008C123.623 62.6662 123.627 63.0721 123.642 63.506C123.643 63.9413 123.643 64.405 123.643 64.8841C123.644 65.3624 123.644 65.8559 123.645 66.3517C123.654 66.8465 123.583 67.3426 123.54 67.8256C123.434 68.7919 123.276 69.7049 123.014 70.4455C123.396 71.0051 123.676 71.9718 124.178 71.566C124.171 71.2393 124.121 70.9101 124.081 70.5826C124.554 70.1627 124.853 70.6393 125.092 71.0813C125.328 71.5208 125.463 71.919 125.747 71.3062C126.245 72.6762 127.095 74.3371 126.35 76.1823L125.008 76.3382C125.193 76.3472 125.458 76.075 125.592 75.7186C125.727 75.3626 125.774 74.9294 125.608 74.6399C125.728 74.8545 125.661 75.1296 125.516 75.4354C125.442 75.5883 125.355 75.7492 125.251 75.9132C125.144 76.0755 125.033 76.2432 124.921 76.411C124.496 77.0852 124.211 77.7713 124.966 78.3551L126.088 77.1963C126.286 77.9237 126.645 78.7754 126.863 79.6612C126.969 80.1029 127.052 80.5551 127.04 80.9934C127.013 81.4282 126.914 81.8549 126.706 82.2535C128.14 81.7752 126.677 81.8434 128.415 80.9469C126.402 81.6241 129.307 76.5086 127.072 77.8705C128.037 77.3973 128.324 76.874 128.573 76.2995C128.791 75.7177 128.981 75.0874 129.81 74.3251C129.379 74.329 128.933 74.8272 129.303 73.3699C129.186 73.2903 129.046 73.1174 128.964 73.0088C128.98 72.9645 128.989 72.9496 129.006 72.9121C128.986 72.9402 128.965 72.9607 128.947 72.9888C128.89 72.9189 128.877 72.9117 128.928 73.0173C128.702 73.3508 128.449 73.6097 128.201 73.6983C127.753 73.2835 127.598 72.508 127.501 71.7372C127.391 70.9646 127.272 70.1908 127.042 69.7939C127.276 68.9507 127.518 70.1747 127.99 69.7296L127.274 68.5402C128.224 68.4674 128.928 66.2597 129.412 68.3362C129.442 67.714 129.496 67.0918 129.505 66.4688C130.003 65.3692 130.2 63.8182 129.741 62.9038C129.88 61.9989 128.528 60.7575 129.326 61.4644L128.922 60.0309L128.454 58.6166L128.684 58.5609C128.619 57.8433 128.462 57.1253 128.23 56.4124C127.988 55.7003 127.714 54.987 127.485 54.2562C127.272 53.5216 127.035 52.7844 126.946 51.997C126.845 51.2121 126.903 50.3736 127.077 49.4707C126.83 49.0338 126.569 48.596 126.347 48.0641C126.236 47.7984 126.134 47.5088 126.049 47.183C125.951 46.8615 125.864 46.5054 125.8 46.1L126.477 45.5383C126.132 44.9919 126.061 44.018 125.862 43.1743C125.677 42.3281 125.453 41.5841 124.959 41.496C125.758 40.4339 125.204 38.9638 124.433 37.4941C124.026 36.7693 123.531 36.0611 123.114 35.392C122.901 35.0599 122.714 34.7328 122.54 34.4313C122.364 34.1311 122.22 33.8457 122.124 33.5783L121.151 34.0369C120.799 33.3658 120.39 32.7431 119.877 32.1363C119.353 31.5367 118.753 30.9353 118.075 30.2701L117.349 30.8949C116.61 30.4401 116.145 29.5423 115.704 28.4606C115.489 27.9168 115.237 27.3594 114.947 26.8083C114.658 26.2572 114.327 25.7142 113.921 25.233C114.305 25.1363 114.629 25.7049 114.735 26.1993C114.667 24.317 113.268 23.346 111.916 22.4832C110.498 21.6617 109.124 20.9415 108.663 19.4523C107.934 19.233 107.665 18.8097 107.479 18.3025C107.527 18.3438 107.58 18.3697 107.635 18.3817C107.591 18.3267 107.521 18.2492 107.44 18.1811C107.323 17.8613 107.215 17.5142 107.061 17.1769C107.126 17.5406 107.205 17.8625 107.324 18.0848C106.917 17.7535 106.239 17.3162 105.501 16.9895L105.904 15.9862C105.847 15.9547 105.81 15.9189 105.749 15.8886C105.396 15.0948 104.968 15.8712 104.797 16.7204C104.391 16.6007 103.982 16.5423 103.616 16.5628C103.89 15.7272 103.403 15.5177 102.908 15.2865C102.661 15.1702 102.411 15.048 102.247 14.8338C102.077 14.6277 101.991 14.3308 102.077 13.8504C101.612 14.0442 100.728 13.6077 99.7964 13.2853C98.8512 12.9825 97.8452 12.8233 97.2009 13.4782C97.3055 13.264 97.1781 13.0481 97.5279 13.2564C97.23 12.9412 96.9295 12.6248 96.5915 12.3906C96.2481 12.1653 95.859 12.0341 95.4071 12.0639L95.7438 10.7557C94.9134 10.9537 94.1074 11.1411 93.2977 11.3715C92.6909 10.1646 92.46 9.5262 93.9302 9.15953C92.3575 9.21447 91.8178 9.09736 91.3098 9.00069C90.7988 8.92403 90.3245 8.86227 88.9881 9.09182L89.4261 8.367C88.6682 8.03269 87.0403 8.60932 86.8449 7.78399C86.2993 6.6908 84.1768 5.81947 81.6568 5.04568C81.026 4.85233 80.3736 4.65259 79.7141 4.45116C79.0482 4.27442 78.3773 4.08662 77.7177 3.87922C77.3882 3.77573 77.0611 3.66714 76.7392 3.55301C76.4143 3.45293 76.0936 3.34946 75.7796 3.23744C75.1522 3.0143 74.5513 2.7626 73.9918 2.47301C74.2483 3.78979 73.7584 3.38777 73.1254 2.96574C72.4942 2.53349 71.7119 2.01222 71.5064 2.95552C71.3051 2.33887 70.673 1.92365 71.5042 1.51651C70.2544 1.62468 69.3581 1.36661 68.537 1.18903C68.1268 1.1064 67.7365 1.05872 67.339 1.12473C66.9419 1.19627 66.536 1.40494 66.1022 1.79674C65.8406 1.20009 66.6579 0.951401 66.4212 0.595367C66.2161 0.717163 65.6212 1.08554 65.3726 0.727386C65.1279 0.372208 65.7465 0.2453 66.1512 0C64.8713 0.0178833 64.1641 0.472717 63.7666 1.14857C63.3678 1.83464 63.2712 2.71405 63.1915 3.56493C61.9564 2.79582 61.3129 2.91379 60.4934 4.0666C60.0444 3.5479 59.2807 3.00919 60.7917 2.71405C60.3626 2.68594 59.0418 2.59567 57.8228 2.66295C56.6054 2.74686 55.5129 3.07945 55.5597 3.74934C55.2504 3.44272 54.3626 3.79575 54.1677 3.99165C53.222 4.11942 52.7017 4.16115 52.1899 4.22843C51.6785 4.297 51.1717 4.37579 50.2737 4.66367L50.8257 4.76247C50.456 6.54089 49.4015 5.45237 47.9905 6.01962L47.9896 5.84629C46.1823 5.74664 45.8494 5.99023 45.5355 6.20615C45.211 6.4144 44.9194 6.63628 43.08 6.54556L43.5872 7.45139C43.6898 7.99607 43.5417 8.25073 43.2353 8.34996C42.9264 8.44279 42.4648 8.39851 41.9386 8.34826C41.4107 8.29289 40.8136 8.21965 40.2507 8.25585C39.9693 8.27416 39.6967 8.31931 39.4473 8.40788C39.203 8.50711 38.9819 8.64849 38.7987 8.84737L39.6735 9.08927C39.3342 9.6561 38.3687 9.27665 37.3083 8.8001C36.7809 8.56503 36.2256 8.29077 35.7399 8.11617C35.255 7.94241 34.8288 7.84191 34.547 7.91047C34.2419 7.85255 34.7567 7.45863 35.0035 7.17372C31.7742 7.38367 35.2508 8.54671 33.4655 9.82047C32.7696 9.38226 33.0574 7.93687 31.6936 8.56715C31.2316 8.50626 30.5577 9.54707 29.7597 10.6088C29.366 11.1509 28.9327 11.69 28.4466 12.0891C28.2031 12.2888 27.9461 12.4528 27.6735 12.5677C27.4073 12.6921 27.1245 12.7649 26.8212 12.77C27.4993 12.9663 28.1542 13.1776 27.5786 14.1026C27.2959 14.3662 26.8709 14.5404 26.3853 14.6928C25.897 14.8406 25.3544 14.9747 24.8569 15.1689C23.8577 15.5484 22.9521 16.0658 22.9838 17.1965C22.739 17.2071 22.5905 17.1454 22.4956 17.0444C22.1938 17.6066 21.5942 18.3795 21.0883 19.1542C20.6081 19.9578 20.2237 20.7614 20.3013 21.3431C18.6822 20.4245 17.6995 22.0884 16.8931 23.6211C16.1356 25.2096 15.5284 26.6677 14.2959 25.638L13.2452 27.1268C12.8958 27.623 12.5409 28.1136 12.224 28.6323L12.0134 28.358C11.2547 29.2489 10.9113 29.9789 10.7885 30.6177C10.6855 31.2705 10.7901 31.8284 10.9003 32.3786C10.4315 32.7057 10.3838 32.2163 10.2669 32.0865C9.06809 33.3245 8.51954 34.0974 8.22036 34.9215C8.07647 35.3371 7.99081 35.7655 7.96718 36.3013C7.9503 36.84 7.9752 37.4758 8.01866 38.2803L6.95108 38.0665C7.00467 38.3084 6.78651 38.6457 6.46371 39.0958C6.14427 39.5476 5.69235 40.0996 5.22312 40.7396C4.73912 41.3738 4.29943 42.1224 3.95257 42.9265C3.77956 43.3289 3.63272 43.7458 3.52723 44.1725C3.42173 44.5993 3.39051 45.0473 3.39726 45.4919C3.2943 45.4212 3.12551 45.2887 3.07108 44.9855C3.06981 45.9889 2.68287 46.9437 2.25119 47.907C1.82754 48.8707 1.24142 49.8093 0.817766 50.7253C0.400439 51.6414 0.0776332 52.5157 0.0742575 53.2886C0.0898703 54.0654 0.444746 54.7408 1.31864 55.2468C1.49038 56.1125 1.63006 56.9609 1.85623 57.8101C2.01911 57.0405 2.2322 56.7079 2.42884 56.6155C2.62674 56.5235 2.82127 56.673 3.01622 56.8774C3.39853 57.2875 3.8264 57.9144 4.22136 57.3446C4.28846 58.5391 2.69342 60.2724 2.68244 58.7742L2.90018 58.5672C1.95117 58.161 1.65495 59.1026 1.43004 60.1229C1.2448 61.1454 1.15196 62.2395 0.478503 62.1509L0.396219 63.3212L0.342629 64.4889C0.304652 65.2661 0.242623 66.0412 0.190299 66.815C0.148946 68.3622 0.00716445 69.9081 0.0189796 71.4463C-0.0645702 74.5253 0.122362 77.589 0.686534 80.5236L2.04612 79.5403L2.41281 81.5436C2.18326 82.1479 1.40135 82.5422 1.13298 81.0815C0.79287 81.5585 1.11188 82.1296 1.55452 82.5605C1.99042 82.9949 2.59805 83.2768 2.75798 83.2543C2.84153 84.7082 2.33727 84.5749 1.82922 84.1605C1.32244 83.7491 0.814812 83.0592 0.918194 83.497L1.35831 84.6409L1.45789 84.3275C1.89463 84.7154 2.27862 84.8794 2.60438 85.1617C2.92676 85.4449 3.19049 85.8435 3.44241 86.6851C3.50191 87.8387 2.72211 87.5347 2.80693 87.9737C2.70059 88.0078 2.70101 88.1679 2.9812 88.6351C3.21244 89.4817 3.5209 90.3011 3.78969 91.1375L4.54417 89.7168C5.51976 90.5613 5.36363 91.9871 6.21306 90.3662C6.04596 90.6661 5.95903 91.0374 5.9489 91.4552C5.94975 91.8687 6.02064 92.3312 6.14132 92.8231C6.26158 93.3149 6.43206 93.8362 6.63123 94.366C6.84559 94.8894 7.10341 95.4136 7.36208 95.9319C7.62665 96.4472 7.88236 96.9616 8.15622 97.4309C8.43177 97.8985 8.6917 98.3402 8.92336 98.7341C9.3736 99.5292 9.68839 100.146 9.70105 100.455C10.5066 100.894 11.1104 101.437 11.6337 102.084C12.1784 102.716 12.6612 103.441 13.1734 104.264C13.1063 103.713 14.0368 102.695 14.8672 104.1C13.5545 104.722 13.7747 105.507 14.2376 106.441C14.6828 107.387 15.4284 108.403 15.1124 109.603C15.2267 108.683 16.058 109.565 16.9243 110.277C17.8041 110.985 18.6599 111.559 18.7029 110.205C19.489 111.373 17.9953 111.005 18.2543 112.25C19.8359 113.048 21.0199 114.452 22.3386 115.925C22.9745 116.685 23.6754 117.416 24.4138 118.135C25.1421 118.866 25.9738 119.497 26.8764 120.032C27.1397 119.76 26.9085 118.893 27.9402 118.949C28.1647 119.892 28.4369 120.802 28.7234 121.727C29.1217 121.877 29.569 121.524 29.9851 121.371C30.4075 121.211 30.7708 121.282 31.0915 122.207C31.0674 121.829 31.0425 121.267 31.5725 121.437C32.3278 122.128 33.1182 122.793 33.9799 123.344C34.847 123.884 35.7306 124.413 36.664 124.844C37.6033 125.263 38.5443 125.688 39.5182 126.033C40.4972 126.365 41.4668 126.724 42.4559 127.023C43.4501 127.308 44.4278 127.641 45.416 127.938C46.4085 128.22 47.3824 128.569 48.361 128.912C49.3437 129.238 50.3105 129.649 51.2806 130.087C52.2545 130.504 53.2191 131.022 54.19 131.608C53.1845 130.705 53.9381 130.781 54.788 130.854C54.2626 130.612 54.931 129.941 54.893 129.423L56.491 130.339L57.3042 130.798L58.1304 131.217C58.5063 130.54 59.4178 130.586 60.2993 130.637C61.1808 130.673 62.0336 130.666 62.226 130.003L61.1458 130.219C61.8905 129.443 61.4129 128.546 60.836 127.592C60.2533 126.615 59.5781 125.557 59.7482 124.549C58.9536 125.386 58.0177 124.68 57.0274 123.953C56.5277 123.6 56.007 123.27 55.4416 123.169C54.8766 123.06 54.2723 123.143 53.5689 123.678C53.1267 123.175 54.125 123.11 53.9305 122.595C53.1963 123.344 52.419 123.423 51.1953 122.715L51.3907 122.538C47.6719 121.867 46.3195 120.57 42.6973 118.496L42.6066 119.543C41.8103 119.092 41.7673 118.708 41.4854 118.303C40.7102 118.787 41.2761 119.073 41.8542 119.378C42.4412 119.655 43.0382 119.958 42.2804 120.563C42.0808 119.41 40.644 118.732 39.2528 118.043C38.5738 117.666 37.908 117.288 37.4379 116.855C36.9615 116.432 36.7155 115.895 36.8231 115.295C35.6432 114.595 36.6036 116.515 35.4107 115.807V115.079L34.693 115.601C33.9799 115.001 34.022 114.075 34.2782 113.611C34.4267 113.782 34.8744 113.82 35.0922 113.906C34.8014 113.275 34.0934 112.892 33.4203 112.608C32.7583 112.31 32.1489 112.087 32.0544 111.876L32.8992 112.961C32.0633 112.531 31.2109 112.02 30.3897 111.426C29.9884 111.115 29.5825 110.801 29.1745 110.486L28.5639 110.008L27.9731 109.504C27.1866 108.831 26.3743 108.194 25.5907 107.564C25.1915 107.257 24.7835 106.969 24.3632 106.706C23.953 106.432 23.5433 106.172 23.1104 105.95L22.9635 106.482C22.3196 106.119 21.9187 105.808 21.647 105.519C21.3828 105.223 21.2554 104.941 21.128 104.651C21.0018 104.359 20.8819 104.051 20.6486 103.687C20.5317 103.505 20.3866 103.309 20.1971 103.092C20.0144 102.871 19.7975 102.621 19.5181 102.347L19.6751 102.365C18.935 102.166 18.2041 101.664 17.7505 100.93C18.6442 101.237 17.7695 99.0871 18.8548 99.562C17.6092 98.6033 17.2226 98.4002 16.8614 98.3465C16.4888 98.2942 16.1082 98.4198 14.8132 98.0199L15.2217 97.1971C14.2368 96.9868 13.8967 97.123 12.9266 95.831C14.1528 96.6243 13.4658 94.3656 14.9495 95.1717C14.8651 93.3503 13.9963 92.4934 13.2388 91.761C12.4987 91.0327 11.9915 90.3922 12.8253 89.216C10.2256 88.7173 12.8869 92.2967 12.1202 91.7239C11.7805 92.6953 10.1386 91.2652 9.89811 90.1963C9.68881 89.6968 10.18 88.9869 10.572 88.1309C10.9762 87.2664 11.267 86.2711 10.8572 85.0446C10.9294 85.2929 11.0906 85.2546 11.1619 85.5016C11.2691 84.9505 10.9429 84.5668 10.6458 84.1345C10.4998 83.9182 10.3517 83.6942 10.2876 83.4314C10.2272 83.167 10.2344 82.8697 10.3699 82.5214C8.92884 82.2407 10.0239 81.0193 8.35623 81.2608L9.38626 83.4911C8.99256 82.8966 8.23639 82.42 7.61062 81.7659C6.98441 81.116 6.56245 80.2621 6.75782 79.0322C7.12704 79.1391 7.71315 79.7085 8.05579 80.1033C8.39337 79.3453 7.44225 78.9254 7.80177 78.1439C8.62418 78.0783 8.8896 78.7627 9.12211 79.6148C9.24237 80.0398 9.35081 80.5083 9.54154 80.9337C9.74704 81.3553 10.0184 81.7378 10.4218 81.9946C10.6724 81.5653 10.1838 81.0027 9.90612 80.5539C9.63522 80.1033 9.53732 79.7937 10.496 79.9274C9.26473 79.7026 9.19046 79.0497 9.16557 78.3151C9.15122 77.5719 9.2373 76.7441 8.20897 76.0226L9.21663 75.9715C9.01408 75.7288 8.43852 75.2374 8.41109 74.7221C8.87863 74.9674 9.33815 75.2063 9.82553 75.4337C9.15882 74.8349 9.339 74.1156 9.55167 73.424C9.66138 73.0765 9.78755 72.732 9.83776 72.3977C9.896 72.0617 9.896 71.7342 9.71877 71.4169C9.77278 72.1085 9.73691 72.4999 9.64788 72.7179C9.55209 72.9372 9.38204 72.9854 9.18203 72.9854C8.782 72.9871 8.26087 72.7882 7.97393 73.4325C7.51609 72.5936 7.47938 72.0144 7.6237 71.5809C7.76717 71.1465 8.10052 70.8526 8.45962 70.5498C8.8204 70.247 9.20059 69.9349 9.45462 69.4652C9.72637 68.992 9.86941 68.3656 9.72383 67.4125C9.87954 67.9201 9.1719 69.3821 8.6879 68.5815C8.88369 67.832 9.21916 66.8529 9.76519 66.4113C9.62172 63.8663 8.72377 66.7911 8.13597 65.6937C8.75753 65.2619 8.64106 64.948 8.32459 64.5847C8.01064 64.2223 7.47769 63.8101 7.33718 63.2203L8.35455 63.2739C8.79213 61.823 8.27648 61.5871 7.77814 61.3754C7.28148 61.1693 6.7747 60.9862 7.34815 59.6762C7.76717 60.1153 8.18618 60.5441 8.60688 60.9644L8.41995 59.5421L9.53268 59.9683C9.20017 59.1775 9.10312 58.6614 9.15291 58.175C9.22802 57.6921 9.44829 57.2356 9.73565 56.5444C8.98201 56.7548 7.93131 56.0163 8.1769 54.6885C8.97104 53.9313 9.01028 55.3869 9.2871 53.528C9.81034 54.0935 10.4927 54.6982 9.39596 55.2877C9.69641 55.435 9.94663 55.8208 10.253 55.9665C11.1045 55.1795 10.9256 53.6949 11.0522 53.0404C10.9602 53.2784 10.8395 53.5608 10.6657 53.6787C10.3825 52.7009 10.2045 51.727 9.98883 50.7198C10.4707 50.4179 10.6733 50.8344 10.8745 51.2355C10.9231 50.6883 10.5425 50.1785 10.7294 49.3928C11.4623 49.8472 12.2497 50.0563 12.3362 51.227C12.2443 50.3382 12.2578 49.4669 12.2236 48.5654C12.6143 48.5189 13.5659 47.6898 13.7465 48.1016C14.2237 47.5539 14.1507 46.6383 14.1245 45.6478C14.1279 44.6746 14.2072 43.636 14.8681 42.9329C14.7664 42.7774 14.7157 42.5389 14.7891 42.1348C15.0284 41.7677 15.3073 41.4355 15.5888 41.1101C15.8673 40.7822 16.1525 40.4628 16.4306 40.1298C16.7019 39.7925 16.9399 39.428 17.1133 38.9991C17.1998 38.7849 17.2703 38.5541 17.3205 38.302C17.3758 38.0528 17.4218 37.7888 17.4387 37.495C18.067 37.4302 18.6894 37.3744 19.3055 37.3272C19.5852 36.57 18.9932 36.6305 18.44 36.5768C17.894 36.524 17.3627 36.3409 17.8893 35.0445C18.6181 33.1878 19.3392 35.1906 20.0578 34.8895C20.0405 34.5884 20.0102 34.2213 20.0072 33.8261C20.0059 33.4322 20.0524 33.0264 20.1545 32.6273C20.3709 31.8412 20.8165 31.0737 21.8677 30.8144C21.7858 31.1266 21.625 31.3284 21.4596 31.5218C21.2997 31.7185 21.125 31.8982 21.0014 32.1469Z" fill="black"/>
<path d="M61.1475 9.66577C61.0268 9.49543 60.9863 9.30549 60.95 9.113C60.8014 9.29655 60.8095 9.48733 61.1475 9.66577Z" fill="black"/>
<path d="M14.9061 42.8844C14.8893 42.8985 14.8821 42.9172 14.8682 42.9326C14.9095 42.9896 14.9589 43.0335 15.0095 43.0688L14.9061 42.8844Z" fill="black"/>
<path d="M113.119 39.8323C113.068 39.4315 113.119 39.1603 113.22 38.9414C112.992 39.0466 112.898 39.2978 113.119 39.8323Z" fill="black"/>
<path d="M129.111 78.6199L129.097 77.2081C129.028 77.8763 128.766 78.0752 128.546 78.3776C128.786 78.3899 129.173 78.1885 129.111 78.6199Z" fill="black"/>
<path d="M120.073 88.0284C120.13 88.2473 119.94 88.3947 119.99 88.6089L120.45 88.7345C120.597 88.3665 120.602 88.0097 120.527 87.8385C120.453 87.6673 120.295 87.6801 120.073 88.0284Z" fill="black"/>
<path d="M125.564 79.2179C125.134 79.1851 124.954 79.384 124.88 79.7076C124.808 80.0326 124.843 80.4844 124.794 80.9452C124.805 80.8911 124.811 80.8387 124.835 80.7876C125.384 81.0542 125.624 80.9269 125.708 80.5998C125.773 80.2685 125.668 79.7396 125.564 79.2179Z" fill="black"/>
<path d="M124.77 81.1584C124.738 81.442 124.687 81.7278 124.579 81.9867C125.018 82.2086 124.763 81.675 124.77 81.1584Z" fill="black"/>
<path d="M128.927 69.8733C128.691 70.3145 130.009 70.2157 129.653 70.4563C130.186 70.745 129.886 69.9546 129.511 69.4257C129.136 68.8976 128.687 68.6221 128.927 69.8733Z" fill="black"/>
<path d="M122.669 79.3634L123.761 79.2676L123.015 78.6049L122.669 79.3634Z" fill="black"/>
<path d="M124.47 72.5404L124.023 73.9275C124.201 73.927 124.284 74.1195 124.339 74.3512C124.471 73.4803 124.784 72.5362 124.47 72.5404Z" fill="black"/>
<path d="M124.339 74.3512C124.27 74.8056 124.245 75.2425 124.389 75.5223C124.405 75.2728 124.429 74.7341 124.339 74.3512Z" fill="black"/>
<path d="M122.703 77.408L122.994 77.0375L123.249 76.0699L122.703 77.408Z" fill="black"/>
<path d="M124.251 57.181L123.681 55.6931C123.298 55.6036 123.152 56.0576 123.394 56.5997C123.708 56.9217 123.947 57.4706 124.251 57.181Z" fill="black"/>
<path d="M121.888 62.1117C122.076 61.6918 122.31 61.6441 122.639 61.3839L121.331 61.4554L121.888 62.1117Z" fill="black"/>
<path d="M121.114 57.8335C120.732 57.7343 119.713 55.9065 120.119 57.7151C120.516 57.7969 120.983 59.2287 121.114 57.8335Z" fill="black"/>
<path d="M115.116 36.0569L115.323 36.3853L117.149 35.2401L115.116 36.0569Z" fill="black"/>
<path d="M98.8682 24.6407C99.7691 26.1163 100.03 23.8865 100.74 25.3634C101.378 25.2425 100.156 24.1535 100.749 24.0858C99.6273 23.8218 99.4311 23.2451 98.8682 24.6407Z" fill="black"/>
<path d="M100.749 24.0858C100.928 24.1293 101.127 24.1655 101.359 24.1842C101.046 24.0884 100.873 24.0748 100.749 24.0858Z" fill="black"/>
<path d="M60.3794 132.509C60.7917 132.682 61.2077 132.836 61.6263 133L60.8389 132.25C60.6866 132.337 60.533 132.431 60.3794 132.509Z" fill="black"/>
<path d="M62.8267 130.969L63.1009 132.358L63.8563 131.127C63.5778 131.181 63.0334 131.286 62.8267 130.969Z" fill="black"/>
<path d="M39.4347 19.499L39.3516 19.1686C39.0452 18.9224 38.8169 19.011 38.3574 19.1826L39.4347 19.499Z" fill="black"/>
<path d="M27.4448 26.7549L27.6394 26.6063L26.4692 26.0071L27.4448 26.7549Z" fill="black"/>
<path d="M20.9706 36.6654C21.2858 36.3111 21.3812 35.694 21.6981 35.335C21.2909 36.3055 19.63 35.8805 20.9706 36.6654Z" fill="black"/>
<path d="M30.7854 101.176C30.5382 100.841 30.0276 101.579 29.8706 101.651C30.5217 101.987 30.9302 100.996 30.7854 101.176Z" fill="black"/>
<path d="M37.1456 103.914L36.8389 104.142L38.1368 103.96L37.1456 103.914Z" fill="black"/>
<path d="M42.2644 107.177C42.3619 106.384 41.8821 106.15 41.2656 106.003C40.6541 105.854 39.9119 105.767 39.5921 105.263L39.6296 104.873L38.5684 105.624C39.1587 105.94 39.9647 106.087 40.6554 106.307C41.355 106.514 41.9538 106.777 42.2644 107.177Z" fill="black"/>
<path d="M43.8256 111.614C43.8475 111.303 44.0707 111.26 44.0935 111.256C44.1201 111.242 43.9302 111.312 43.1724 111.103C43.215 111.196 43.2192 111.24 43.2403 111.303C43.3698 111.356 43.5374 111.454 43.8256 111.614Z" fill="black"/>
<path d="M43.2402 111.303C42.609 111.035 43.4339 111.953 43.2402 111.303V111.303Z" fill="black"/>
<path d="M46.2628 112.236L45.2383 112.379C45.2796 112.775 46.002 113.161 45.6303 113.282C46.6042 113.374 46.5375 112.971 46.2628 112.236Z" fill="black"/>
<path d="M47.4337 111.506C47.2649 111.528 47.0957 111.548 46.9307 111.556C46.9518 111.724 47.0467 111.822 47.4337 111.506Z" fill="black"/>
<path d="M45.8647 111.621L46.9306 111.556C46.8986 111.278 47.0661 110.814 46.4601 111.543C46.6952 111.155 46.3652 111.486 45.8647 111.621Z" fill="black"/>
<path d="M45.4441 111.194C45.1112 110.696 44.6205 110.263 45.6264 110.118C44.0242 109.667 43.7947 110.728 45.4441 111.194Z" fill="black"/>
<path d="M43.2694 105.928C43.1584 105.702 43.0424 105.489 42.9411 105.254L42.2432 105.432C42.4187 105.389 42.6196 105.631 42.8078 105.824C43.0019 106.006 43.1761 106.147 43.2694 105.928Z" fill="black"/>
<path d="M51.3572 114.725C51.4926 114.426 51.2825 113.813 51.328 113.397L50.5942 113.586C50.8605 113.886 51.4327 114.25 51.3572 114.725Z" fill="black"/>
<path d="M51.3276 113.397L52.407 113.109C51.5884 112.826 51.3673 113.039 51.3276 113.397Z" fill="black"/>
<path d="M48.1566 109.973C47.5355 110.187 46.9312 110.32 46.3008 110.487C47.0223 110.363 47.7279 110.241 48.4414 110.052L48.1566 109.973Z" fill="black"/>
<path d="M55.0905 115.605L54.3896 116.233C54.7981 115.927 55.199 115.619 55.5927 115.31L55.0905 115.605Z" fill="black"/>
<path d="M57.622 115.869C57.1194 116.433 58.0722 116.98 57.576 117.305C58.2963 117.28 58.9529 116.82 59.5238 116.404C58.9377 116.605 58.3309 116.466 57.622 115.869Z" fill="black"/>
<path d="M60.4657 115.773C60.1766 115.904 59.8652 116.167 59.5234 116.404C59.8344 116.304 60.1475 116.102 60.4657 115.773Z" fill="black"/>
<path d="M53.9756 113.648C54.0089 113.854 54.0456 114.381 54.5495 114.699L54.3482 113.734C54.2347 113.708 54.1064 113.678 53.9756 113.648Z" fill="black"/>
<path d="M54.3408 113.703L54.3484 113.734C54.7506 113.837 55.0299 113.909 55.1493 113.94C55.0472 113.91 54.8041 113.839 54.3408 113.703Z" fill="black"/>
<path d="M53.8823 113.626C53.9169 113.634 53.9422 113.64 53.976 113.648C53.9587 113.552 53.9431 113.521 53.8823 113.626Z" fill="black"/>
<path d="M50.23 111.547C50.9127 111.247 52.1499 110.982 51.3094 109.965C50.76 110.453 51.2431 111.07 50.23 111.547Z" fill="black"/>
<path d="M53.6648 112.426L52.7411 111.968C52.7018 112.206 52.7968 112.594 52.4668 112.768L53.6648 112.426Z" fill="black"/>
<path d="M54.209 112.237L53.665 112.426L54.0153 112.572L54.209 112.237Z" fill="black"/>
<path d="M58.755 114.755C59.2423 114.405 59.7234 114.456 60.2774 114.417C59.7035 114.209 59.1162 114.015 58.5448 113.96C58.4334 114.234 58.1186 114.713 58.755 114.755Z" fill="black"/>
<path d="M56.6021 114.238C56.6354 114.223 56.6759 114.22 56.7075 114.202C56.6586 114.119 56.6151 114.084 56.6021 114.238Z" fill="black"/>
<path d="M65.676 114.511C65.6444 114.456 65.6157 114.405 65.5832 114.348C65.5786 114.401 65.5743 114.449 65.5688 114.506L65.676 114.511Z" fill="black"/>
<path d="M58.4672 113.779C58.0536 113.553 57.7688 113.742 57.4814 113.989C57.8207 113.94 58.1735 113.922 58.5452 113.96C58.5959 113.834 58.6123 113.751 58.4672 113.779Z" fill="black"/>
<path d="M62.0301 115.423C61.8027 115.22 61.5461 115.046 61.2773 114.886C61.4871 115.184 61.9373 115.655 62.0301 115.423Z" fill="black"/>
<path d="M56.8192 114.47C56.7952 114.48 56.7728 114.495 56.7471 114.501C56.864 114.711 56.8597 114.616 56.8192 114.47Z" fill="black"/>
<path d="M56.8194 114.469C57.0667 114.367 57.2764 114.167 57.4811 113.989C57.2051 114.03 56.9435 114.095 56.708 114.202C56.7527 114.272 56.7932 114.377 56.8194 114.469Z" fill="black"/>
<path d="M66.8856 108.6C66.8826 109.02 66.6379 109.463 66.2657 109.67C65.8944 109.867 65.3982 109.848 64.9386 109.406C64.0736 110.059 64.653 112.821 65.583 114.349C65.5977 113.981 65.5952 113.641 66.5556 113.116C66.1712 112.669 64.3538 112.095 65.1454 111.312C66.3805 110.839 66.1839 111.607 66.8312 111.992C66.2564 110.994 68.3064 110.315 67.8768 108.804L66.8772 109.447C66.8421 109.209 67.189 108.791 66.8856 108.6Z" fill="black"/>
<path d="M63.6546 114.308C63.5158 114.344 63.3766 114.388 63.2373 114.416C63.7116 114.562 64.0475 114.886 64.6986 115.534C65.4003 115.105 65.5299 114.788 65.5687 114.507L63.5116 114.437L63.6546 114.308Z" fill="black"/>
<path d="M61.3677 114.334C61.7471 113.434 62.721 113.087 62.1669 112.068C61.001 112.076 61.3124 112.795 60.5748 113.157C62.5188 113.024 59.9807 113.64 61.358 114.227C60.963 114.365 60.6099 114.396 60.2773 114.417C60.625 114.545 60.9601 114.701 61.2774 114.886C61.2605 114.863 61.2487 114.847 61.2348 114.827L61.2255 114.828L61.2276 114.816C61.1483 114.697 61.1242 114.626 61.2171 114.695C61.2242 114.685 61.2487 114.683 61.2597 114.679C61.2799 114.554 61.3226 114.444 61.3677 114.339C61.9298 114.555 61.4466 114.58 61.2597 114.679C61.2504 114.725 61.2327 114.767 61.2276 114.816C61.2297 114.819 61.2323 114.823 61.2348 114.827L63.2375 114.416C62.821 114.27 62.3011 114.273 61.3677 114.334Z" fill="black"/>
<path d="M52.7812 108.316C52.8142 108.408 52.7948 108.471 52.7821 108.536C52.923 108.457 52.9842 108.395 52.7812 108.316Z" fill="black"/>
<path d="M53.358 109.041C53.2002 109.131 53.0032 109.458 52.609 109.257C52.3192 108.895 52.7242 108.833 52.7821 108.536C52.4761 108.707 51.7314 108.938 52.4061 109.579L52.5639 109.492C53.1888 109.983 53.872 111.346 53.7201 111.436C53.6893 110.574 53.6327 109.953 53.358 109.041Z" fill="black"/>
<path d="M57.2251 111.663L58.8328 111.403L58.1505 110.522L58.1281 111C57.2846 110.711 57.3888 111.314 57.2251 111.663Z" fill="black"/>
<path d="M65.8841 114.963L65.6997 115.937C66.0099 115.472 66.3107 115.007 66.6027 114.543L65.8841 114.963Z" fill="black"/>
<path d="M68.0349 114.698L68.0273 115.544L68.5561 114.983L68.0349 114.698Z" fill="black"/>
<path d="M81.8459 33.6153L81.3999 33.6374C81.5915 33.6608 81.7311 33.6476 81.8459 33.6153Z" fill="black"/>
<path d="M84.1972 35.09L84.4795 34.7778C84.2458 34.9009 84.1107 35.0154 84.1972 35.09Z" fill="black"/>
<path d="M108.245 84.201C109.222 83.8242 110.653 83.4566 109.737 83.2211L108.798 83.1168C108.775 83.6427 108.543 83.9694 108.245 84.201Z" fill="black"/>
<path d="M102.908 50.5771C102.846 50.667 102.782 50.7611 102.718 50.8539C103.066 50.8808 103.393 50.9059 103.687 50.9285C103.452 50.8224 103.187 50.7028 102.908 50.5771Z" fill="black"/>
<path d="M99.2544 51.6414C99.3401 51.3296 99.4093 51.0204 99.4856 50.7045C99.3671 50.9476 99.2928 51.25 99.2544 51.6414Z" fill="black"/>
<path d="M67.4007 30.0952L66.8872 31.0002C67.5476 31.0441 67.3041 30.5505 67.4007 30.0952Z" fill="black"/>
<path d="M88.6756 107.487C89.379 107.467 89.8719 107.319 90.2584 107.121C89.3427 107.088 88.4439 106.732 88.6756 107.487Z" fill="black"/>
<path d="M87.7143 25.6929C87.3729 25.6925 87.1717 25.7943 87.0771 25.977C87.4168 25.9876 87.6552 25.9199 87.7143 25.6929Z" fill="black"/>
<path d="M91.7268 106.102C91.585 106.09 91.4723 106.115 91.3385 106.116C91.0672 106.515 90.7528 106.867 90.2583 107.121C90.5955 107.134 90.9326 107.103 91.2035 106.96C91.4698 106.809 91.6656 106.541 91.7268 106.102Z" fill="black"/>
<path d="M27.4212 59.1734C27.3735 59.2045 27.3423 59.2475 27.2866 59.2731C27.406 59.3097 27.4242 59.2569 27.4212 59.1734Z" fill="black"/>
<path d="M18.6144 77.1635C18.5144 76.9846 18.4427 76.6707 18.3651 76.3769C18.3351 76.534 18.3959 76.7768 18.6144 77.1635Z" fill="black"/>
<path d="M76.6859 113.539C76.2533 113.709 76.6416 113.654 76.6859 113.539V113.539Z" fill="black"/>
<path d="M73.7002 110.517C73.7656 110.395 73.8027 110.249 73.7652 110.039C73.7812 110.263 73.7551 110.415 73.7002 110.517Z" fill="black"/>
<path d="M91.5902 98.8988C91.5999 98.8916 91.6075 98.886 91.6185 98.8779C91.4109 98.8217 91.4493 98.8345 91.5902 98.8988Z" fill="black"/>
<path d="M75.9058 113.301C76.1007 113.369 76.3184 113.412 76.5463 113.423C76.4349 113.378 76.2379 113.335 75.9058 113.301Z" fill="black"/>
<path d="M76.1062 113.701C75.9412 113.699 75.8142 113.707 75.6923 113.712C75.6729 113.874 75.748 113.957 76.1062 113.701Z" fill="black"/>
<path d="M77.2891 113.311C77.0439 113.412 76.7945 113.434 76.5464 113.423C76.6506 113.462 76.7008 113.502 76.6856 113.539C76.8143 113.494 76.9945 113.429 77.2891 113.311Z" fill="black"/>
<path d="M42.0277 33.3059C41.9914 33.2961 41.9568 33.2965 41.9125 33.2791C41.8011 33.8084 41.9087 33.6657 42.0277 33.3059Z" fill="black"/>
<path d="M101.727 71.4104C101.734 71.4287 101.757 71.4407 101.764 71.4573C101.777 71.4415 101.793 71.4215 101.805 71.4074L101.727 71.4104Z" fill="black"/>
<path d="M101.192 70.0314C102.297 70.6927 102.088 71.0151 101.805 71.4073C102.696 71.3712 103.587 71.3247 104.481 71.2685C103.398 70.8312 102.305 70.4189 101.192 70.0314Z" fill="black"/>
<path d="M34.4219 30.378L34.8181 30.4019C34.4902 31.0471 34.4653 30.7239 34.4219 30.378ZM79.5902 111.265C79.4928 111.446 79.5493 111.579 79.659 111.694C79.675 111.416 79.9949 111.297 80.381 111.215C80.1844 110.999 79.9468 110.913 79.5902 111.265ZM81.173 111.139C81.1806 111.118 81.1849 111.104 81.1878 111.079C82.0229 111.177 81.7199 111.127 81.173 111.139ZM101.853 53.3476C101.466 53.2594 101.536 52.894 101.754 52.4149C101.936 52.6342 101.995 52.9404 101.853 53.3476ZM87.8055 37.1898C87.4709 37.174 86.6489 37.3844 86.8654 36.7895C87.8182 36.0472 87.6802 36.6289 87.8055 37.1898ZM75.695 31.1808C75.8917 31.5377 76.0849 31.8856 76.2622 32.2587C74.8106 33.1841 74.2852 32.5393 74.6671 33.8846C74.9212 33.2079 75.2516 32.9171 75.6267 32.8204C75.9984 32.731 76.4031 32.8566 76.8111 32.9716C77.0145 33.0299 77.2188 33.0883 77.4201 33.1219C77.618 33.1636 77.8116 33.1854 78.0015 33.1551C78.3809 33.0959 78.7442 32.8413 79.0649 32.1944L79.3594 32.986C79.2159 32.8932 79.1214 33.0367 78.9805 32.9447C79.2197 33.7948 79.6075 33.4332 80.1215 32.9635C80.6262 32.5006 81.2503 31.9461 81.8406 32.4848C82.2064 32.9447 82.3221 33.489 81.8461 33.6155L83.2208 33.5691C83.4842 33.8029 83.1576 34.1849 82.8972 33.9613L84.537 34.7138L84.4796 34.7777C84.9357 34.5362 85.8067 34.2981 86.2198 34.2202C86.3708 34.8301 85.8527 34.3378 85.7501 34.7023C86.1573 34.7048 86.5755 34.7027 86.9882 34.718C86.9342 35.1507 86.632 35.3773 86.2843 35.445C85.9316 35.5182 85.5337 35.4305 85.2817 35.1899C84.8509 36.6434 85.1037 36.5974 85.5733 36.5203C86.0244 36.4513 86.7 36.3679 86.9633 37.6267L86.016 37.3605C85.7543 38.1927 85.8451 38.5828 86.0172 38.9546C86.1797 39.3353 86.432 39.6909 86.4721 40.391C86.5582 40.1159 86.5996 39.3102 86.7523 38.5666C86.9076 37.8243 87.1768 37.1502 87.8131 37.2217C87.9093 37.5888 88.1389 37.9193 88.9643 37.858C88.3047 38.6288 88.8719 38.8225 89.4263 39.2599L88.468 40.2224C89.2723 40.4353 89.7124 39.897 90.4496 39.7863C90.9517 40.4983 90.3171 41.3501 89.8078 42.0949C90.1677 42.6409 90.3213 42.1992 90.5445 41.7189C90.7555 41.2517 91.0395 40.7355 91.6644 41.2589C91.8425 41.8637 92.1742 42.2022 92.6286 42.4863C93.0768 42.7742 93.6819 42.9769 94.4292 43.2784C94.525 44.2183 93.6882 43.6659 93.5473 44.1357C93.9688 44.1071 94.395 44.0841 94.825 44.0658C94.9064 44.2242 94.6047 44.372 94.4528 44.4478C95.141 44.6935 95.5824 43.6864 96.4403 44.2796C97.1264 43.9679 96.9568 44.7114 96.853 45.5086C96.7677 46.3025 96.6686 47.1797 97.7066 47.2717C97.5193 47.7163 96.9163 47.5609 96.507 47.8999C97.3986 48.3079 97.71 48.5442 98.08 48.7009C98.4413 48.8683 98.8409 48.9675 99.8122 49.2644L99.4856 50.7042C99.7743 50.1097 100.298 49.9245 100.922 49.9687C101.542 50.0122 102.276 50.2805 102.908 50.5773C103.244 50.0863 103.536 49.6523 103.641 49.3977C104.09 49.8146 104.502 50.2562 104.94 50.6978C104.808 50.9708 104.31 50.9746 103.687 50.9286C103.832 50.993 103.974 51.0538 104.1 51.0952C103.851 51.8328 103.005 51.8089 102.155 51.7046C102.332 51.4265 102.525 51.1394 102.718 50.8541C101.811 50.7868 100.845 50.8098 100.145 51.1952C100.325 51.2268 100.519 51.3549 100.665 51.5244C100.423 51.5168 100.216 51.5346 100.108 51.6288C99.9958 51.7318 100.328 51.7642 100.741 51.8711L99.4654 52.7471L100.053 52.6066C100.014 53.3288 99.9114 54.0579 99.8177 54.7666C100.77 55.1771 101.831 55.5476 102.842 56.0965C103.093 56.2332 103.342 56.3819 103.582 56.545C103.815 56.7098 104.034 56.8912 104.243 57.0901C104.657 57.4883 105.037 57.9567 105.307 58.5248C104.109 58.1547 103.518 58.7603 102.231 58.9813C102.841 58.5427 102.597 58.1309 102.209 57.6991C102.012 57.4831 101.787 57.2596 101.599 57.0202C101.403 56.7817 101.258 56.5241 101.248 56.2247C101.27 56.849 100.63 56.8784 100.382 56.7911C100.986 57.3256 101.513 57.9014 102.085 58.4899C101.023 58.6717 101.412 59.0827 101.056 59.6908C102.06 59.2927 102.47 59.6044 102.731 60.1218C102.858 60.3795 102.96 60.684 103.057 60.974C103.15 61.2648 103.261 61.5387 103.448 61.7333C102.745 61.8734 102.021 61.7614 102.041 60.7291C101.35 61.4041 101.985 61.6643 102.682 61.9518C103.363 62.2337 104.114 62.5424 103.473 63.1778C103.439 62.9227 103.537 62.7724 103.162 62.7094C103.846 63.2468 103.445 64.7616 102.807 64.4456L102.774 64.1952C102.756 64.406 102.755 64.6432 102.753 64.8975C102.744 65.1521 102.745 65.4238 102.759 65.7032C102.788 66.262 102.871 66.8522 102.969 67.4046C103.077 67.9565 103.267 68.4722 103.51 68.8755C103.751 69.2788 104.081 69.5726 104.524 69.6714C104.29 69.6685 102.382 69.2899 102.028 69.1715C102.992 69.7242 103.968 70.3171 104.916 70.9461C105.852 71.5738 106.784 72.2407 107.711 72.9451C106.966 72.6896 105.65 72.7147 104.438 72.5835C103.226 72.4558 102.114 72.1862 101.764 71.4575C101.497 71.8208 101.202 72.2501 101.587 73.1495C101.847 72.9319 103.903 72.8343 103.977 73.2368C103.04 73.6188 102.785 73.747 102.555 73.9182C102.324 74.0851 102.13 74.2985 101.273 74.7482C101.683 74.422 103.951 75.361 103.726 76.0198C103.396 75.8367 101.392 75.5262 101.197 75.2426C101.525 75.5871 101.852 75.9402 102.178 76.3017C102.49 76.6595 102.8 77.0249 103.109 77.3984C102.806 76.8843 101.183 76.8115 100.445 76.961C100.691 76.9452 100.591 77.2706 100.446 77.6577C100.292 78.0418 100.068 78.4775 100.118 78.7143L100.851 78.2458C100.397 79.0409 101.069 79.7338 101.716 80.4616C102.363 81.1839 103.036 81.9581 102.624 82.8371C102.447 82.6357 101.797 82.2157 101.118 81.9462C100.441 81.6775 99.7304 81.5488 99.4118 81.9027C99.8886 82.3312 101.046 83.3396 102.079 84.5504C103.09 85.7441 103.961 87.1498 103.95 88.197L103.168 88.174L103.178 89.7983C102.6 88.9436 101.771 87.5242 100.931 86.1533C100.065 84.7603 99.2548 83.4508 98.7818 82.6101C98.0172 82.9883 97.9741 82.4389 97.6011 83.346C96.8639 83.3601 96.95 82.4415 97.0272 82.1732C96.5753 82.7762 96.1432 83.3813 95.671 83.9554C96.9698 84.5329 96.0981 86.1563 97.1365 86.6869C97.1462 86.198 97.1239 85.6989 97.1137 85.2173C97.1007 84.733 97.0888 84.2591 97.042 83.7753C97.688 84.0504 98.4527 84.8438 98.8531 85.7517C99.2595 86.6567 99.3772 87.7282 98.7923 88.4053C98.0817 88.4781 96.8125 86.7917 96.3829 86.5847C96.6884 87.0106 96.3622 88.43 95.9681 88.3512C95.8934 88.019 95.8077 87.6843 95.7115 87.3483C95.2609 87.5932 95.4288 88.1412 95.5119 88.6847C95.5854 89.2153 95.5778 89.7502 94.6904 89.7774C94.3794 90.0359 92.5679 89.5475 93.1924 90.1173C94.8187 90.6577 98.916 93.5681 99.5801 94.7128C99.4865 94.7392 98.8396 94.9798 98.0695 95.1442C97.307 95.3175 96.4686 95.4457 96.0145 95.3635C95.3048 95.1966 94.9246 94.4973 94.5351 93.8078C94.1511 93.1183 93.776 92.4536 93.1903 92.3015C93.4692 92.5728 93.6068 93.1656 93.6207 93.3798C93.0953 93.459 92.8363 92.4519 92.3738 93.2137C93.3295 94.3048 91.0652 94.4594 92.9797 94.3576C92.6839 95.3018 92.1206 94.8303 91.4395 95.5982C91.8788 95.8205 92.2666 96.5534 92.4788 97.3685C92.697 98.1862 92.6991 99.0507 92.4814 99.531C92.2809 99.2172 91.8075 98.997 91.5902 98.8986C90.0605 100.06 88.8512 100.141 87.4351 101.148C87.1051 100.958 86.1763 101.05 86.1286 100.339C86.0683 100.686 86.1459 101.222 85.7197 101.542C84.2121 101.036 86.5903 100.739 85.1383 99.8918C85.3387 100.263 85.2172 100.69 84.9961 101.136C84.7686 101.571 84.4327 102.004 84.2378 102.426C84.6585 102.932 85.0758 102.76 85.429 102.361C85.7788 101.955 86.0388 101.298 86.2101 100.877C86.7021 101.625 86.9278 102.573 86.8591 103.571C86.7987 104.578 86.3991 105.564 85.7472 106.436C84.5703 107.577 84.6079 105.73 84.4868 106.085C83.8082 106.347 83.4264 106.732 83.1702 107.143C82.9111 107.546 82.7909 107.998 82.6668 108.418C82.4212 109.252 82.1503 109.992 80.7409 109.84C79.4185 109.136 79.8839 107.735 79.383 107.045C79.8692 106.615 80.3717 106.626 80.846 106.664C81.3182 106.701 81.7731 106.798 82.1461 106.603L80.9924 106.535C81.1988 106.023 81.8073 105.428 82.3491 105.543C82.063 105.392 81.6503 105.426 81.1557 105.563C80.9085 105.632 80.6405 105.726 80.3574 105.836C80.0713 105.937 79.7658 106.045 79.4506 106.157C78.21 106.652 76.7386 107.037 75.6094 106.923C75.3693 107.421 74.8325 107.955 75.2562 108.323C75.4655 108.224 75.6655 108.096 75.8668 107.976C76.2959 108.32 76.0816 108.726 75.8668 109.066C75.6537 109.404 75.4364 109.647 75.9301 109.749C75.1937 110.599 74.3515 111.868 72.8995 111.672L72.394 110.435C72.4433 110.616 72.6999 110.783 72.9763 110.814C73.2523 110.845 73.5531 110.771 73.6928 110.532C73.481 110.872 72.889 110.598 72.3201 110.374C71.7517 110.166 71.2226 110.095 71.0585 110.99L72.1513 111.72C71.7306 112.126 71.2707 112.722 70.7424 113.194C70.4782 113.427 70.1993 113.639 69.9027 113.761C69.6048 113.874 69.2912 113.914 68.9672 113.842C69.6892 115.062 69.2296 113.68 70.3255 115.063C69.2938 113.337 73.5675 114.594 71.9965 112.862C72.5974 113.645 73.0345 113.761 73.4945 113.83C73.9532 113.876 74.4338 113.884 75.2081 114.462C75.0701 114.052 74.595 113.764 75.6925 113.712C75.709 113.578 75.7807 113.396 75.8275 113.288C75.8621 113.29 75.8752 113.295 75.906 113.301C75.8807 113.289 75.8609 113.275 75.836 113.266C75.8647 113.192 75.8651 113.177 75.8102 113.255C75.5153 113.132 75.2617 112.963 75.1245 112.75C75.2617 112.207 75.7288 111.845 76.2098 111.539C76.6884 111.224 77.1694 110.921 77.3572 110.597C77.9977 110.604 77.2601 111.149 77.7133 111.483L78.2712 110.497C78.6341 111.383 80.3637 111.48 79.1256 112.477C79.5565 112.346 79.9941 112.23 80.4207 112.084C81.3414 112.292 82.4727 112.09 82.9381 111.443C83.6129 111.364 83.9774 109.807 83.78 110.72L84.6184 110.009L85.4256 109.261L85.5501 109.464C86.0244 109.247 86.462 108.94 86.8717 108.573C87.2793 108.202 87.6743 107.8 88.098 107.438C88.5279 107.085 88.9605 106.728 89.4833 106.491C90.0019 106.246 90.615 106.126 91.3387 106.117C91.5552 105.81 91.7661 105.491 92.0598 105.19C92.2067 105.039 92.3746 104.892 92.5746 104.754C92.7696 104.608 92.9945 104.466 93.2645 104.335L93.9536 104.839C94.2157 104.433 94.8946 104.181 95.4436 103.86C95.9981 103.547 96.4618 103.216 96.3209 102.765C97.4425 103.274 98.337 102.539 99.1286 101.61C99.8848 100.64 100.524 99.4825 101.181 98.9693L100.407 98.2211C100.781 97.8139 101.09 97.3634 101.348 96.8366C101.599 96.303 101.819 95.7076 102.052 95.0386L101.242 94.5395C101.278 93.8551 101.804 93.3441 102.482 92.8121C103.158 92.2824 103.899 91.6679 104.344 90.8642C104.59 91.1564 104.264 91.509 103.904 91.673C105.41 91.3105 105.635 90.0398 105.77 88.835C105.863 87.5927 105.87 86.4118 106.957 85.8122C106.838 85.2181 107.087 84.9413 107.443 84.7118C107.428 84.756 107.428 84.8003 107.441 84.8446C107.47 84.8012 107.506 84.7343 107.531 84.6611C107.76 84.5184 108.016 84.377 108.245 84.2011C107.956 84.3131 107.71 84.4286 107.567 84.5576C107.685 84.1922 107.782 83.6041 107.758 82.9925L108.798 83.1169C108.802 83.0683 108.817 83.0338 108.818 82.9819C109.365 82.5735 108.512 82.3959 107.698 82.4172C107.635 82.0944 107.52 81.7805 107.352 81.5135C108.197 81.568 108.182 81.1677 108.182 80.7614C108.189 80.3539 108.197 79.9378 109.113 79.8841C108.755 79.5792 108.788 78.851 108.698 78.1138C108.594 77.3711 108.345 76.6194 107.501 76.2881C107.734 76.3209 107.878 76.1876 107.829 76.4785C107.995 76.2042 108.16 75.9278 108.238 75.6404C108.308 75.3512 108.279 75.0497 108.077 74.7371L109.393 74.7086C108.897 74.1605 108.412 73.6307 107.897 73.1146C108.774 72.4404 109.273 72.1334 110.156 73.0894C109.521 71.9941 109.426 71.5951 109.326 71.2195C109.211 70.8481 109.097 70.5027 108.402 69.6365L109.229 69.7724C109.257 69.1693 108.156 68.1924 108.855 67.8636C109.674 67.2299 109.751 65.5597 109.66 63.6442C109.637 63.1642 109.614 62.6681 109.59 62.1673C109.55 61.6669 109.519 61.1601 109.509 60.6559C109.504 60.4033 109.505 60.1512 109.513 59.9008C109.51 59.6517 109.513 59.4042 109.525 59.1594C109.55 58.6688 109.608 58.1871 109.714 57.7208C108.558 58.2876 108.781 57.8387 109.002 57.2821C109.231 56.7234 109.499 56.0288 108.556 56.1834C109.079 55.8563 109.289 55.2955 109.906 55.7345C109.445 54.9182 109.459 54.2214 109.401 53.6022C109.339 52.9881 109.161 52.4664 108.194 52.1368C108.684 51.7578 109.125 52.2369 109.397 51.9558C109.231 51.8549 108.734 51.5687 109.005 51.2774C109.274 50.9891 109.551 51.3728 109.884 51.5713C109.201 49.7992 107.436 50.2715 105.817 50.7519C106.238 49.6425 105.968 49.2371 104.711 49.0889C105.091 48.5962 105.41 47.8743 106.032 48.8125C105.955 48.5084 105.742 47.5596 105.4 46.739C105.049 45.9234 104.517 45.2766 103.913 45.5627C104.126 45.2314 103.611 44.7446 103.394 44.682C103.086 44.0641 102.942 43.7128 102.777 43.3768C102.612 43.0412 102.434 42.7158 102.005 42.1843L102.022 42.6179C100.355 43.0514 101.128 41.8777 100.356 41.0882L100.51 41.0179C100.27 39.6696 99.9907 39.5235 99.7435 39.3838C99.4966 39.2344 99.2578 39.1113 99.0122 37.7157L98.31 38.4657C97.3872 39.0738 97.3382 38.4461 97.25 37.6203C97.1669 36.798 97.1142 35.6839 96.3027 35.4727L96.2361 36.2397C95.6989 36.2222 95.8706 35.3304 96.1002 34.3156C96.3399 33.2978 96.6108 32.1816 96.3994 31.8C96.3981 31.5373 96.8146 31.7719 97.0956 31.8447C96.3829 29.4049 95.9787 32.6207 94.6199 31.774C94.8722 31.0377 96.1246 30.651 95.3778 29.8355C95.3541 29.4403 94.3739 29.3521 93.3743 29.1699C92.3527 29.0063 91.3653 28.6874 91.1492 27.7198C91.0986 28.3607 91.0273 28.985 90.1981 28.9148C89.6854 28.6912 89.385 27.8054 88.9229 27.1398C88.4689 26.4707 87.9093 25.9422 87.0359 26.4541C86.9894 26.2523 87.0139 26.1002 87.0772 25.9771C86.5928 25.9631 85.8991 25.7885 85.2214 25.6961C84.5311 25.6275 83.8593 25.6416 83.4323 25.9584C83.8639 24.1838 82.4427 24.0246 81.1684 23.9726C79.8666 23.9662 78.7011 24.0458 79.2358 22.52C78.3851 22.3083 77.5479 22.0605 76.6922 21.8867L76.85 21.586C76.0693 21.2573 75.4811 21.2398 75.0034 21.3855C74.5207 21.5477 74.1477 21.8629 73.7823 22.1801C73.4616 21.8807 73.7958 21.644 73.8645 21.486C72.7565 20.8825 72.1041 20.6615 71.4686 20.7032C71.15 20.7288 70.8344 20.8169 70.4597 20.9971C70.0845 21.1819 69.6525 21.4425 69.1128 21.7832L69.0271 20.7079C68.8731 20.8467 68.5942 20.7739 68.2152 20.6347C67.8363 20.4975 67.3578 20.2727 66.813 20.0631C66.27 19.8417 65.6572 19.6841 65.0285 19.6369C64.4002 19.5875 63.7559 19.6603 63.1613 19.9929C63.1833 19.8715 63.2297 19.6667 63.4204 19.5129C62.7436 19.8455 62.0055 19.8098 61.246 19.7093C60.4881 19.6134 59.7024 19.3664 58.9707 19.2472C58.2407 19.1318 57.5618 19.0943 57.0436 19.3311C56.5275 19.5806 56.1782 20.1172 56.0997 21.104C55.5756 21.5217 55.0587 21.914 54.5658 22.3628C55.6861 22.2636 55.6811 22.7257 55.5283 23.2077C55.3739 23.6958 55.095 24.2784 55.5836 24.4968C54.8325 24.8942 53.2083 23.8508 54.1839 23.4228L54.3865 23.5736C54.3637 22.5523 53.6527 22.5323 52.9083 22.6039C52.1728 22.7022 51.4175 22.9028 51.2584 22.2376C50.9905 22.3202 50.7221 22.3982 50.4529 22.4723L49.6545 22.7184C49.1212 22.8785 48.5827 23.0178 48.046 23.1617C46.9877 23.4909 45.9007 23.7426 44.8521 24.0965C42.7288 24.7319 40.6653 25.5487 38.8158 26.6573L40.0404 27.7125L38.7753 28.4352C38.2593 28.3428 37.6668 27.7083 38.596 27.1755C38.1242 26.9579 37.8445 27.3629 37.7158 27.851C37.5824 28.3352 37.6208 28.9322 37.7018 29.0745C36.6984 29.4177 36.5866 28.939 36.6807 28.402C36.7718 27.8667 37.0664 27.276 36.7929 27.4523L36.1452 28.0665L36.411 28.0975C36.3077 28.5656 36.3452 28.9429 36.2752 29.2887C36.2034 29.6336 36.0262 29.9454 35.5169 30.3167C34.7029 30.5744 34.6021 29.8253 34.3172 29.9794C34.2484 29.8904 34.1316 29.9202 33.9054 30.2545C33.3834 30.6148 32.8977 31.0215 32.3914 31.4057C32.8517 31.5411 33.3075 31.6812 33.7585 31.8256C33.5433 32.8281 32.4277 32.9311 33.9813 33.4021C33.6898 33.305 33.38 33.2927 33.0661 33.3536C32.7576 33.4213 32.4412 33.558 32.1234 33.7428C31.8057 33.9281 31.4867 34.1614 31.1731 34.4212C30.8681 34.6899 30.5769 34.9932 30.2925 35.2977C30.0119 35.6051 29.7317 35.9088 29.487 36.2137C29.2426 36.519 29.0118 36.8069 28.8059 37.0637C28.3844 37.5679 28.04 37.9282 27.7995 37.9844C27.8003 38.7216 27.6354 39.3029 27.3526 39.8344C27.0851 40.377 26.7121 40.8773 26.2754 41.4208C26.6876 41.2789 27.9147 41.8841 27.1467 42.758C26.0737 41.7994 25.5306 42.094 24.9694 42.6102C24.3946 43.1178 23.8718 43.8605 22.738 43.8056C23.5486 43.7468 23.1811 44.5475 22.9549 45.3362C22.7342 46.1342 22.6173 46.8859 23.7756 46.7023C23.1304 47.4945 22.8 46.2837 21.8595 46.6887C21.851 48.0357 21.1573 49.1677 20.4227 50.4112C20.0336 51.0228 19.6724 51.6709 19.3449 52.3489C19.0065 53.0226 18.7744 53.7483 18.6622 54.5085C19.0103 54.6477 19.6872 54.319 20.0539 55.077C19.3099 55.4173 18.5981 55.7873 17.8782 56.1774C17.9288 56.8209 19.837 57.1637 18.3727 57.9729C18.7061 57.8792 19.2057 57.7497 19.2555 58.159C18.9162 58.8323 18.6242 59.5307 18.4428 60.2521C18.2693 60.9753 18.1233 61.7099 18.0643 62.4556C18.0153 63.2017 17.9723 63.9521 17.993 64.7041C18.0238 65.4566 18.0385 66.2083 18.0934 66.9582C18.1592 67.7082 18.1866 68.4581 18.2293 69.2068C18.2833 69.9546 18.2782 70.7067 18.2622 71.4639C18.2588 72.219 18.1782 72.9877 18.0579 73.7717C17.9529 74.5531 17.7562 75.3597 17.4883 76.1987C18.0415 75.2422 18.1968 75.7775 18.3651 76.3771C18.4449 75.9466 19.2635 76.1961 19.7391 76.013L19.3276 77.3719L19.1264 78.0653L18.9546 78.7594C19.6905 78.7999 19.8901 79.4314 20.0783 80.0451C20.2758 80.6549 20.4931 81.2358 21.1619 81.1426L20.6876 80.4816C21.6012 80.7299 22.3169 80.1047 23.0663 79.4063C23.8288 78.6968 24.6415 77.9149 25.6306 77.7024C24.6377 77.4554 25.0651 76.6118 25.4707 75.7528C25.6648 75.3223 25.8327 74.8883 25.7719 74.4948C25.7171 74.0992 25.461 73.7385 24.755 73.4386C25.1002 73.0089 25.45 73.6328 25.8779 73.3594C24.9597 73.106 24.6685 72.6189 24.9542 71.6372L25.1803 71.7143C24.6677 69.1378 25.447 67.9237 26.0985 65.113L25.0955 65.2867C25.2377 64.6641 25.5719 64.5517 25.8428 64.2795C25.1141 63.8741 25.0576 64.3081 24.9854 64.7565C24.9339 65.202 24.8618 65.6636 24.0351 65.3021C25.0428 64.909 25.1419 63.8183 25.2681 62.752C25.4403 61.6928 25.6428 60.6639 26.8471 60.5907C27.0201 59.667 25.6584 60.6729 25.8344 59.7339L26.4922 59.5997L25.7416 59.2079C25.9985 58.6096 26.8404 58.4741 27.3581 58.5687C27.2649 58.7003 27.4113 59.0107 27.4214 59.1734C27.8687 58.8655 27.9253 58.3204 27.9088 57.8132C27.9037 57.3098 27.8459 56.8503 27.994 56.7515L27.3847 57.5151C27.4172 56.8648 27.5244 56.1894 27.7016 55.5182C27.8029 55.1865 27.9054 54.8504 28.0084 54.5127C28.1101 54.1746 28.2219 53.8377 28.3476 53.5068C28.5873 52.8404 28.7903 52.1628 28.9755 51.495C29.0612 51.1578 29.1274 50.8166 29.1671 50.4691C29.2161 50.1259 29.2502 49.7818 29.2456 49.4262L28.7384 49.3904C28.7582 48.8542 28.8426 48.5067 28.9637 48.261C29.092 48.0187 29.265 47.8807 29.4469 47.7427C29.6304 47.6056 29.8283 47.4719 30.0224 47.2436C30.2132 47.0124 30.4056 46.6908 30.6064 46.1862L30.6613 46.311C30.4891 45.7058 30.5769 45.067 30.9563 44.6058C31.1149 45.3558 32.4175 44.3746 32.5285 45.3C32.723 44.1872 32.7159 43.8512 32.5926 43.5509C32.4669 43.2418 32.1977 42.9535 31.9348 41.8419L32.7526 42.0638C32.4825 41.2317 32.2251 40.9676 32.7855 39.9783C32.7213 41.1069 34.1358 40.2262 34.1788 41.5664C35.5262 41.2602 35.7604 40.4123 35.976 39.6721C36.1903 38.9478 36.4351 38.409 37.6516 38.9631C36.8933 36.6553 35.4312 39.4579 35.516 38.7186C34.6506 38.5751 34.9898 36.9534 35.6751 36.5838C35.9549 36.3312 36.6769 36.6408 37.4605 36.8538C38.2534 37.0722 39.0918 37.1898 39.7716 36.6332C39.6285 36.7358 39.7235 36.8721 39.5809 36.973C40.0117 36.9824 40.1412 36.6357 40.3185 36.3057C40.4894 35.9714 40.7244 35.672 41.3181 35.8023C40.916 34.4642 42.2042 35.2474 41.3599 33.7841L40.2417 35.083C40.4885 34.6308 40.5071 33.8727 40.7075 33.1969C40.9046 32.5223 41.3206 31.9725 42.2414 31.9308C42.314 32.2876 42.1587 32.9243 42.0279 33.3059C42.6777 33.4771 42.587 32.5393 43.2575 32.7241C43.628 33.4698 43.2701 33.8276 42.7887 34.1887C42.5498 34.3722 42.2777 34.5545 42.0658 34.7994C41.8608 35.0532 41.7097 35.3594 41.7004 35.7635C42.0966 35.9173 42.2815 35.3918 42.4726 35.0643C42.6663 34.7398 42.8347 34.5975 43.1338 35.4901C42.7845 34.3356 43.1984 34.1516 43.6824 34.0026C44.1761 33.8569 44.7512 33.7799 44.8331 32.6994L45.2576 33.6185C45.3391 33.3876 45.4437 32.7676 45.7699 32.6364C45.7876 33.1185 45.8091 33.5929 45.8475 34.0818C45.983 33.357 46.5193 33.3744 47.048 33.4396C47.3147 33.4745 47.5843 33.5248 47.819 33.5069C48.0561 33.4937 48.2637 33.4234 48.4013 33.1922C47.5594 33.581 47.3493 33.3928 47.1936 33.0099C47.0421 32.6381 46.9788 32.1122 46.4492 31.9729C46.8294 31.3831 47.1928 31.2213 47.5265 31.2643C47.8612 31.306 48.1721 31.556 48.4971 31.8294C48.8228 32.1041 49.1604 32.3971 49.5503 32.5363C49.9461 32.6867 50.39 32.6824 50.9394 32.3328C50.6761 32.5921 49.5022 32.251 49.8377 31.6152C50.3828 31.6292 51.1217 31.7336 51.5821 32.1441C53.1244 31.4006 50.9909 31.2468 51.4808 30.4257C52.4391 31.4099 52.1273 29.6566 52.7851 29.0583L53.0809 30.042C54.1312 30.0876 54.1152 29.5353 54.0924 29.0034C54.0658 28.4749 54.0274 27.9489 55.0321 28.1354C54.8827 28.6563 54.7426 29.1746 54.6114 29.6907L55.4435 29.1243L55.5157 30.3052C55.9056 29.7725 56.2001 29.5387 56.5187 29.4539C56.8411 29.3866 57.1896 29.4654 57.7015 29.5421C57.3538 28.8777 57.5162 27.6674 58.426 27.5047C59.1231 28.0328 58.2184 28.5145 59.4615 28.2125C59.2459 28.8862 59.0602 29.7222 58.3893 28.8526C58.3813 29.1865 58.2104 29.5353 58.2066 29.8721C58.9311 30.4602 59.7932 29.8295 60.2358 29.755C60.0641 29.7388 59.8569 29.709 59.737 29.5783C60.2696 29.017 60.8316 28.5247 61.4131 27.9992C61.7258 28.3628 61.5131 28.6891 61.3135 29.0097C61.6675 28.8782 61.8933 28.362 62.4355 28.2721C62.3292 29.1175 62.3883 29.9488 61.6857 30.4032C62.2131 30.0374 62.7583 29.7461 63.3158 29.4147C63.4385 29.772 64.1749 30.3955 63.9584 30.7064C64.407 30.9653 64.9589 30.5752 65.5783 30.2039C66.1923 29.8555 66.8751 29.5489 67.4591 29.913C67.5384 29.7597 67.6819 29.6221 67.9574 29.5374C68.5271 29.7141 69.0347 30.0523 69.5727 30.2967C70.1128 30.5433 70.6989 30.5774 71.4876 30.1843C71.6403 30.7298 71.7834 31.2736 71.9155 31.8141C72.4623 31.7621 72.3282 31.2498 72.2708 30.7251C72.2155 30.2064 72.2421 29.6558 73.2096 29.6064C74.5971 29.4978 73.3493 30.9696 73.6692 31.49C74.0709 31.2072 74.6511 30.7733 75.2321 30.6331C75.8107 30.4901 76.4137 30.5756 76.7546 31.3763C76.2955 31.493 76.0795 31.1868 75.695 31.1808Z" fill="black"/>
<path d="M99.6787 51.5216C99.8091 51.3823 99.9754 51.2878 100.145 51.195C99.9433 51.1622 99.7665 51.2371 99.6787 51.5216Z" fill="black"/>
<path d="M67.4979 29.9301C67.4853 29.9199 67.4718 29.9207 67.4591 29.9131C67.4308 29.9727 67.4131 30.0344 67.4009 30.0953L67.4979 29.9301Z" fill="black"/>
<path d="M92.4741 92.3345C92.7522 92.2387 92.9813 92.2472 93.1902 92.3017C93.0104 92.1262 92.7779 92.0802 92.4741 92.3345Z" fill="black"/>
<path d="M72.0975 115.035L73.0435 114.6C72.5735 114.734 72.3612 114.542 72.0933 114.422C72.1557 114.655 72.4059 114.964 72.0975 115.035Z" fill="black"/>
<path d="M63.4256 109.415C63.2953 109.544 63.153 109.419 63.0239 109.542L63.0501 110.021C63.6079 110.021 63.9911 109.595 63.4256 109.415Z" fill="black"/>
<path d="M70.6624 111.818C70.5603 111.397 70.3776 111.283 70.143 111.308C69.9084 111.334 69.6202 111.501 69.3037 111.604C69.3425 111.596 69.3788 111.586 69.4189 111.593C69.3965 112.201 69.5476 112.389 69.7881 112.367C70.0261 112.33 70.3477 112.073 70.6624 111.818Z" fill="black"/>
<path d="M69.1562 111.648C68.9604 111.707 68.7574 111.748 68.5574 111.728C68.5308 112.217 68.814 111.804 69.1562 111.648Z" fill="black"/>
<path d="M77.9259 112.413C77.5508 112.302 78.0508 113.533 77.7702 113.255C77.7496 113.839 78.1884 113.347 78.4213 112.853C78.6543 112.359 78.6893 111.861 77.9259 112.413Z" fill="black"/>
<path d="M69.7417 109.088L70.113 110.106L70.3325 109.197L69.7417 109.088Z" fill="black"/>
<path d="M74.7146 108.868L73.6706 108.821C73.7263 108.991 73.6263 109.123 73.4917 109.239C74.101 109.127 74.8167 109.167 74.7146 108.868Z" fill="black"/>
<path d="M73.4915 109.239C73.1733 109.296 72.8809 109.393 72.7412 109.607C72.9092 109.554 73.2691 109.429 73.4915 109.239Z" fill="black"/>
<path d="M71.0176 108.545L71.3425 108.715L72.043 108.675L71.0176 108.545Z" fill="black"/>
<path d="M84.8275 105.044L85.6284 104.222C85.5406 103.851 85.1744 103.807 84.8975 104.137C84.7984 104.49 84.5136 104.82 84.8275 105.044Z" fill="black"/>
<path d="M80.647 103.881C80.9917 103.966 81.1082 104.175 81.401 104.426L80.874 103.216L80.647 103.881Z" fill="black"/>
<path d="M83.1889 102.269C83.1109 101.894 83.9384 100.612 82.8868 101.326C82.9835 101.703 82.2134 102.432 83.1889 102.269Z" fill="black"/>
<path d="M96.2238 93.4723L96.063 93.6925L97.7433 95.0442L96.2238 93.4723Z" fill="black"/>
<path d="M98.3449 79.3734C97.4693 80.2307 99.4902 80.0978 98.5293 80.8218C98.9057 81.2677 99.3155 80.2256 99.6277 80.6438C99.3745 79.7929 99.7843 79.5689 98.3449 79.3734Z" fill="black"/>
<path d="M99.6279 80.644C99.6672 80.7803 99.7208 80.9302 99.8039 81.101C99.7524 80.8595 99.69 80.7322 99.6279 80.644Z" fill="black"/>
<path d="M18.3498 80.7133C18.2962 81.0536 18.2565 81.3922 18.2109 81.735L18.7105 80.9442C18.5903 80.8675 18.4645 80.793 18.3498 80.7133Z" fill="black"/>
<path d="M20.4125 81.8766L19.188 82.535L20.5273 82.6321C20.4058 82.4613 20.1695 82.1249 20.4125 81.8766Z" fill="black"/>
<path d="M87.4824 40.5884L87.7428 40.3784C87.9052 40.0399 87.804 39.9087 87.6044 39.6425L87.4824 40.5884Z" fill="black"/>
<path d="M80.4277 34.3788L80.5611 34.4763L80.8522 33.229L80.4277 34.3788Z" fill="black"/>
<path d="M72.6206 33.0455C72.9046 33.1801 73.3316 33.0089 73.6198 33.1435C72.9113 33.1831 72.9337 31.5171 72.6206 33.0455Z" fill="black"/>
<path d="M70.5909 34.9902C70.8445 35.1295 70.9622 34.0997 71.0428 33.9264C70.5238 34.0618 70.5512 35.2555 70.5909 34.9902Z" fill="#202020"/>
<path d="M70.5909 34.9902C70.8445 35.1295 70.9622 34.0997 71.0428 33.9264C70.5238 34.0618 70.5512 35.2555 70.5909 34.9902Z" fill="#202020"/>
<path d="M51.2133 34.8176L51.2686 33.8628C51.2019 34.3589 51.1441 34.8521 51.0947 35.3427L51.2133 34.8176Z" fill="#202020"/>
<path d="M65.2524 87.333L65.4415 87.0396C65.3499 87.1329 65.293 87.2312 65.2524 87.333Z" fill="black"/>
<path d="M65.2524 87.333L65.4415 87.0396C65.3499 87.1329 65.293 87.2312 65.2524 87.333Z" fill="black"/>
<path d="M63.7421 87.2998L63.6982 87.7806C63.7734 87.517 63.8033 87.3216 63.7421 87.2998Z" fill="black"/>
<path d="M63.7421 87.2998L63.6982 87.7806C63.7734 87.517 63.8033 87.3216 63.7421 87.2998Z" fill="black"/>
<path d="M32.299 72.9518C31.4952 73.5952 30.2331 74.4729 31.2846 74.1723L32.2923 73.792C32.0446 73.4973 32.1138 73.212 32.299 72.9518Z" fill="black"/>
<path d="M35.111 74.8819C34.3072 75.5249 33.0451 76.4026 34.0966 76.102L35.1043 75.7217C34.8566 75.427 34.9254 75.1416 35.111 74.8819Z" fill="black"/>
<path d="M48.9365 88.1095C48.9673 88.0035 48.9993 87.8915 49.031 87.7812C48.7394 88.0235 48.4664 88.2505 48.2183 88.4562C48.4356 88.3514 48.6799 88.2334 48.9365 88.1095Z" fill="black"/>
<path d="M48.9365 88.1095C48.9673 88.0035 48.9993 87.8915 49.031 87.7812C48.7394 88.0235 48.4664 88.2505 48.2183 88.4562C48.4356 88.3514 48.6799 88.2334 48.9365 88.1095Z" fill="black"/>
<path d="M51.6731 84.6356L51.6411 85.4546C51.6922 85.1978 51.7072 84.9257 51.6731 84.6356Z" fill="black"/>
<path d="M51.6731 84.6356L51.6411 85.4546C51.6922 85.1978 51.7072 84.9257 51.6731 84.6356Z" fill="black"/>
<path d="M72.6645 84.1644L72.375 83.0934C72.0737 83.2497 72.4505 83.6747 72.6645 84.1644Z" fill="black"/>
<path d="M72.6645 84.1644L72.375 83.0934C72.0737 83.2497 72.4505 83.6747 72.6645 84.1644Z" fill="black"/>
<path d="M35.2607 52.5064C34.7134 52.6981 34.4261 52.9387 34.2603 53.1882C35.0206 52.9702 35.9907 53.0162 35.2607 52.5064Z" fill="black"/>
<path d="M35.2607 52.5064C34.7134 52.6981 34.4261 52.9387 34.2603 53.1882C35.0206 52.9702 35.9907 53.0162 35.2607 52.5064Z" fill="black"/>
<path d="M65.0246 98.7412C65.2158 98.5334 65.2896 98.309 65.274 98.0709C65.0824 98.2685 64.974 98.4814 65.0246 98.7412Z" fill="black"/>
<path d="M65.0246 98.7412C65.2158 98.5334 65.2896 98.309 65.274 98.0709C65.0824 98.2685 64.974 98.4814 65.0246 98.7412Z" fill="black"/>
<path d="M33.7831 54.3156C33.9109 54.2879 33.9881 54.2406 34.1004 54.2061C34.0561 53.8543 34.0485 53.5081 34.2599 53.1883C33.7004 53.3437 33.2636 53.6495 33.7831 54.3156Z" fill="black"/>
<path d="M33.7831 54.3156C33.9109 54.2879 33.9881 54.2406 34.1004 54.2061C34.0561 53.8543 34.0485 53.5081 34.2599 53.1883C33.7004 53.3437 33.2636 53.6495 33.7831 54.3156Z" fill="black"/>
<path d="M82.8593 59.5927C82.8943 59.556 82.9082 59.5228 82.9542 59.4841C82.8167 59.53 82.8205 59.5603 82.8593 59.5927Z" fill="black"/>
<path d="M82.8593 59.5927C82.8943 59.556 82.9082 59.5228 82.9542 59.4841C82.8167 59.53 82.8205 59.5603 82.8593 59.5927Z" fill="black"/>
<path d="M85.7622 44.6915C85.8998 44.7375 86.0479 44.892 86.196 45.0283C86.1816 44.9057 86.0618 44.7894 85.7622 44.6915Z" fill="black"/>
<path d="M85.7622 44.6915C85.8998 44.7375 86.0479 44.892 86.196 45.0283C86.1816 44.9057 86.0618 44.7894 85.7622 44.6915Z" fill="black"/>
<path d="M39.0643 59.2064C39.0622 59.2136 39.0562 59.2179 39.0537 59.226C39.2752 59.2153 39.233 59.2153 39.0643 59.2064Z" fill="black"/>
<path d="M39.0643 59.2064C39.0622 59.2136 39.0562 59.2179 39.0537 59.226C39.2752 59.2153 39.233 59.2153 39.0643 59.2064Z" fill="black"/>
<path d="M84.9642 76.3429C84.9997 76.3429 85.0258 76.3361 85.0731 76.3399C84.7587 75.9528 84.7845 76.0716 84.9642 76.3429Z" fill="black"/>
<path d="M84.9642 76.3429C84.9997 76.3429 85.0258 76.3361 85.0731 76.3399C84.7587 75.9528 84.7845 76.0716 84.9642 76.3429Z" fill="black"/>
<path d="M44.7524 75.9403C44.7381 75.9361 44.7107 75.9437 44.6967 75.9408C44.69 75.9544 44.6811 75.9718 44.6748 75.9846L44.7524 75.9403Z" fill="black"/>
<path d="M44.7524 75.9403C44.7381 75.9361 44.7107 75.9437 44.6967 75.9408C44.69 75.9544 44.6811 75.9718 44.6748 75.9846L44.7524 75.9403Z" fill="black"/>
<path d="M51.3568 85.0378C51.2788 85.2277 51.1636 85.4168 51.0454 85.6063C51.21 85.479 51.3404 85.2882 51.3568 85.0378Z" fill="black"/>
<path d="M51.3568 85.0378C51.2788 85.2277 51.1636 85.4168 51.0454 85.6063C51.21 85.479 51.3404 85.2882 51.3568 85.0378Z" fill="black"/>
<path d="M72.7156 84.3637C72.7266 84.37 72.7312 84.3632 72.7413 84.3671C72.7203 84.2985 72.6932 84.2299 72.6646 84.1644L72.7156 84.3637Z" fill="black"/>
<path d="M72.7156 84.3637C72.7266 84.37 72.7312 84.3632 72.7413 84.3671C72.7203 84.2985 72.6932 84.2299 72.6646 84.1644L72.7156 84.3637Z" fill="black"/>
<path d="M42.872 63.272C42.6813 63.3866 42.4673 63.4364 42.2378 63.4573C42.5235 63.5084 42.7669 63.4773 42.872 63.272Z" fill="black"/>
<path d="M42.872 63.272C42.6813 63.3866 42.4673 63.4364 42.2378 63.4573C42.5235 63.5084 42.7669 63.4773 42.872 63.272Z" fill="black"/>
<path d="M40.0628 53.4671L40.0366 54.2434C40.3755 54.4989 40.6924 54.4576 40.6666 54.1583C40.486 53.8768 40.4683 53.5718 40.0628 53.4671Z" fill="black"/>
<path d="M40.0628 53.4671L40.0366 54.2434C40.3755 54.4989 40.6924 54.4576 40.6666 54.1583C40.486 53.8768 40.4683 53.5718 40.0628 53.4671Z" fill="black"/>
<path d="M43.9434 53.5083C43.6358 53.5045 43.3995 53.364 43.0054 53.2239L44.2725 54.0658L43.9434 53.5083Z" fill="black"/>
<path d="M43.9434 53.5083C43.6358 53.5045 43.3995 53.364 43.0054 53.2239L44.2725 54.0658L43.9434 53.5083Z" fill="black"/>
<path d="M43.3398 55.2197C43.6749 55.488 43.9918 56.545 44.2627 55.8589C43.9222 55.6098 43.9074 54.9071 43.3398 55.2197Z" fill="black"/>
<path d="M38.6465 63.6002L38.6452 63.4316L36.1733 63.1339L38.6465 63.6002Z" fill="black"/>
<path d="M42.9047 70.9755C42.7979 70.9316 42.6692 70.8886 42.5 70.8464C42.6713 70.9325 42.7975 70.9627 42.9047 70.9755Z" fill="black"/>
<path d="M42.9047 70.9755C42.7979 70.9316 42.6692 70.8886 42.5 70.8464C42.6713 70.9325 42.7975 70.9627 42.9047 70.9755Z" fill="black"/>
<path d="M60.8919 84.3395L60.7991 84.7134C60.7788 85.1359 60.856 85.1844 61.0092 85.2883L60.8919 84.3395Z" fill="black"/>
<path d="M60.8919 84.3395L60.7991 84.7134C60.7788 85.1359 60.856 85.1844 61.0092 85.2883L60.8919 84.3395Z" fill="black"/>
<path d="M65.6161 85.7303L65.5283 85.7039L65.8153 87.1339L65.6161 85.7303Z" fill="black"/>
<path d="M65.6161 85.7303L65.5283 85.7039L65.8153 87.1339L65.6161 85.7303Z" fill="black"/>
<path d="M69.1428 83.1701C68.9774 83.1496 68.8939 83.5065 68.7251 83.4882C68.9686 83.1513 69.7197 84.8812 69.1428 83.1701Z" fill="black"/>
<path d="M69.1428 83.1701C68.9774 83.1496 68.8939 83.5065 68.7251 83.4882C68.9686 83.1513 69.7197 84.8812 69.1428 83.1701Z" fill="black"/>
<path d="M40.8984 84.4846C41.1799 84.8896 41.4727 85.333 41.7255 85.8172C41.8128 85.9841 41.8943 86.1549 41.9698 86.3295C41.9846 86.3291 41.9998 86.3291 42.015 86.3291C42.3935 86.3291 42.7543 86.4926 43.0053 86.7779C43.4374 87.2689 43.3691 87.8439 43.318 88.2765C43.3024 88.4081 43.2948 88.4925 43.2956 88.5282C43.2893 88.2425 42.9939 87.7391 42.4454 87.6207C42.4867 87.7974 42.5188 87.975 42.5416 88.1535L43.8024 89.2343C43.7362 89.334 43.6805 89.443 43.6159 89.5686C43.5906 89.6184 43.5636 89.6717 43.5341 89.727C43.5459 89.7458 43.5573 89.7641 43.5687 89.782C43.5699 89.7816 46.2579 88.429 46.2579 88.429L46.7372 87.8434C47.0001 87.1633 47.5356 86.6195 48.0381 86.1898C48.0031 86.0697 47.9803 85.9424 47.9698 85.8078C47.7875 85.8751 47.6077 85.9343 47.4221 85.9901C47.1258 86.0727 46.8254 86.1327 46.5267 86.1689C46.3359 86.1915 46.1473 86.203 45.9663 86.203C45.4928 86.203 45.0489 86.1255 44.6472 85.9722L42.0095 84.9676L42.3504 84.787C42.0897 84.7355 41.8238 84.6869 41.5681 84.6328C41.339 84.5839 41.117 84.5345 40.8984 84.4846Z" fill="black"/>
<path d="M35.7169 65.3988C35.3135 65.3388 34.9501 65.2749 34.6573 65.2055C34.6202 65.6254 34.4615 66.0789 34.1822 66.5627L34.0838 66.7348C33.9429 66.9805 33.6809 67.4379 33.6923 67.5963L33.718 67.9102L33.8661 67.8565L34.5079 66.6147C34.8923 66.705 35.3552 66.8204 35.862 66.9473V65.768L35.7169 65.3988Z" fill="black"/>
<path d="M36.5394 59.2441L32.1155 59.156C31.9408 59.156 31.8471 59.1777 31.8062 59.1909C31.7897 59.2344 31.7593 59.337 31.745 59.5406C31.7327 59.7769 31.7395 60.0337 31.7475 60.3054C31.7517 60.4583 31.756 60.612 31.7568 60.7662L33.0712 61.0051L32.7974 62.2955C32.7484 62.5284 32.8067 62.8376 32.9404 63.232L33.3096 63.2396L33.9996 62.7891C34.1561 62.6839 34.6317 62.3632 35.1908 62.054C35.498 61.8824 35.8777 61.6882 36.2736 61.5247C36.3297 61.132 36.3786 60.7628 36.4179 60.4272C36.4689 59.9898 36.509 59.5968 36.5394 59.2441Z" fill="black"/>
<path d="M34.2967 70.4556C34.3553 70.7673 34.3498 71.102 34.2384 71.4466C34.2608 71.5181 34.2768 71.5863 34.2878 71.6497C34.3321 71.9039 34.3148 72.1569 34.2363 72.4065C34.2477 72.4175 34.365 72.527 34.365 72.527L34.43 72.5674C34.5363 72.633 34.6748 72.6846 34.8203 72.7131L35.436 72.8319L35.5934 70.9479C35.1237 70.8146 34.6786 70.654 34.2967 70.4556Z" fill="black"/>
<path d="M37.0874 52.7963L37.0701 52.6771L37.0755 52.5562C37.0823 52.3952 37.1042 52.2457 37.1384 52.109L37.0882 52.0822C37.065 52.2687 37.0376 52.4595 36.9983 52.6558L36.9814 52.7291C36.8806 53.1507 36.7426 53.7281 36.3375 54.2426C36.0949 54.556 35.7919 54.8167 35.4214 55.0292C35.418 55.0862 35.413 55.1441 35.4062 55.2025C35.3733 55.4827 35.2986 55.7527 35.1839 56.0069C35.0665 56.2901 34.9121 56.5461 34.7125 56.788L34.2429 57.3565L33.5698 57.2373L36.4839 59.0361L35.57 56.7577L36.6143 57.1636C36.6401 56.6283 36.751 55.5666 37.1325 53.0357C37.1169 52.956 37.0987 52.8764 37.0874 52.7963Z" fill="black"/>
<path d="M92.1122 68.9098C91.5143 68.8208 91.0484 68.5695 90.7497 68.1705C90.445 67.7629 90.3522 67.2378 90.4956 66.7298L90.6053 66.341L90.5956 66.3456L90.6741 66.0969L90.7843 65.7064L90.7965 65.7073L91.532 63.3701C91.7788 62.5844 92.3569 62.2846 92.8506 62.1598C92.6979 61.3984 92.8025 60.6744 92.8747 60.1736C92.9346 59.8227 92.9641 59.4573 92.9629 59.0893C92.8321 59.111 92.6928 59.1238 92.5468 59.1238C92.3118 59.1238 92.0767 59.0902 91.8485 59.0242L89.6508 58.3892L91.1674 57.0124C91.029 56.9532 90.8995 56.8731 90.7843 56.7743L90.264 56.3267L90.3492 55.6424C90.4058 55.1888 90.4003 54.8345 90.3344 54.5641C90.2471 54.211 90.1078 53.846 89.9188 53.4662C89.7049 53.0548 89.5091 52.6885 89.2888 52.3973L88.3731 51.2338C88.1356 50.9374 87.9271 50.6401 87.7254 50.3522C87.6402 50.2304 87.5545 50.1086 87.479 50.003C87.1055 49.5018 86.8106 49.0095 86.5827 48.5116C86.3772 48.0764 86.211 47.5807 86.0704 46.9875C86.0451 47.0113 86.0236 47.033 86.0084 47.0509L85.2683 47.921C85.9367 48.5725 86.4591 49.2182 86.8515 49.8783L86.9638 50.0669L87.0355 50.2743C88.5267 54.599 89.2521 57.7121 89.2521 59.792L89.2512 59.8499C89.2015 61.6999 88.9829 63.3522 88.6023 64.761C88.4398 65.3619 88.2347 65.9624 88.0026 66.5607C88.1389 66.9138 88.1571 67.2728 88.095 67.5879L88.0668 67.7314L88.0967 67.8123C88.1571 67.843 88.2195 67.8758 88.2841 67.9103L91.9236 69.8535L89.4032 70.1346L90.2534 73.8733L89.2044 72.9381C89.1782 73.1646 89.1057 73.381 88.9879 73.5764C88.5799 74.3975 87.571 74.4201 86.5924 74.4426C86.5084 74.4443 86.4232 74.4465 86.3384 74.4486C86.4051 74.5329 86.4895 74.6334 86.5544 74.7109C86.741 74.9341 86.9519 75.1862 87.1283 75.4541C87.5908 76.1478 87.7161 76.8079 87.4997 77.4152C87.3853 77.7363 87.0633 78.3138 86.1903 78.5748L85.5831 78.7567L85.075 78.3755C85.0058 78.3231 84.9375 78.2669 84.8708 78.2069C84.7442 78.2346 84.6024 78.2512 84.4438 78.2512L84.129 78.246L84.0083 78.1792C84.0678 78.6187 83.9893 79.0092 83.7741 79.3444C83.5121 79.7536 83.069 80.0113 82.5668 80.0517C82.5132 80.0564 82.4576 80.059 82.4002 80.059C82.1989 80.059 81.9972 80.0287 81.7925 79.9798L82.893 82.7368L81.9816 82.2867L82.117 84.4735L81.1769 83.6477C80.9469 83.8487 80.6043 84.0191 80.0962 84.054L79.9814 85.019L79.7038 84.6937C79.6287 84.827 79.5346 84.9496 79.4228 85.0582L78.8113 85.6502C78.8113 85.6502 78.0155 85.2967 78.0054 85.2916L78.1294 86.961L76.4724 85.8414L75.7753 86.6262L75.4567 86.0684L74.3022 84.8457C74.2 85.0309 74.0832 85.1766 73.9587 85.2907C73.9507 85.3167 73.9418 85.3427 73.9325 85.3682L73.6616 86.1182L72.8751 86.2017C72.7974 86.2097 72.7181 86.214 72.6375 86.214C72.4582 86.214 72.2881 86.1936 72.1307 86.1663L71.6872 89.0141L71.0982 88.1385C70.7838 88.354 70.4758 88.3949 70.2871 88.3953H70.2863C70.0348 88.3953 69.8221 88.3412 69.6411 88.2492C69.3023 88.4771 68.9634 88.5145 68.7782 88.5145C68.2748 88.5145 67.8165 88.282 67.4135 87.8221C67.2844 88.7028 66.93 89.753 65.748 89.753C65.5552 89.753 65.364 89.7159 65.1788 89.6427L65.1033 89.7461L64.4032 89.4868C64.2981 89.7202 64.1981 89.9254 64.1201 90.0694L62.9727 92.177L62.5609 91.3674L61.7613 92.3209L61.2448 89.7393L61.141 89.8535L60.7004 89C60.5067 88.7611 60.4063 88.4975 60.3557 88.3646C60.3392 88.3212 60.3228 88.2748 60.3038 88.2326L59.9029 88.891L58.8366 88.2709C58.7615 88.2271 58.6923 88.1802 58.6286 88.13L58.5889 88.1283L58.5944 88.1019C58.5758 88.0865 58.5581 88.0712 58.5412 88.0559C58.5277 88.0559 57.7412 88.0529 57.7412 88.0529L57.6585 87.9004C57.6061 87.9328 57.5547 87.9647 57.507 87.9946C57.3787 88.0755 57.2416 88.1611 57.0956 88.2492L55.7199 89.0801L55.6925 88.9928C55.4646 89.2347 55.1326 89.4548 54.6684 89.4548C53.9042 89.4548 53.5489 88.9689 53.3751 88.4494L51.7994 89.9331L52.0779 87.9443L50.3913 89.0571L50.3884 88.7879C50.2525 88.868 50.1221 88.94 50.0018 89.0039C49.8921 89.411 49.8601 89.5758 49.8512 89.6422L49.7124 90.6733L49.0537 90.7188L49.0035 90.8751C48.9781 90.9539 48.9549 91.0348 48.9317 91.1153C48.8727 91.3206 48.7743 91.6625 48.5874 91.9977L50.2453 92.6744L50.2854 92.6178C50.3411 92.5394 50.3985 92.461 50.4576 92.3827C50.4255 92.217 50.3529 92.0543 50.2441 91.9172C50.0246 91.6408 49.7339 91.5429 49.5347 91.5429C49.4908 91.5429 49.3571 91.5429 49.168 91.6596L49.8769 91.2209L50.5572 91.703C50.6702 91.7831 50.7677 91.8555 50.8542 91.9215C51.1812 91.5974 51.5728 91.3585 52.0708 91.3585C52.7624 91.3585 53.1586 91.815 53.3493 92.0944L54.654 92.2191C54.8557 92.0948 55.0963 92.016 55.3828 92.016C56.1887 92.016 56.5875 92.6016 56.8171 93.1143C56.8576 93.1105 56.8947 93.1092 56.9276 93.1092C58.2842 93.1092 58.4581 94.5384 58.6273 95.9263C58.6353 95.9936 58.6442 96.0694 58.6535 96.1516C58.7134 96.1384 58.7754 96.1269 58.8391 96.1188L60.1641 95.9463L60.2633 97.2912C60.2713 97.4002 60.2726 97.5084 60.2696 97.6149C60.492 97.4777 60.7325 97.3555 60.9907 97.2725C61.0899 96.9092 61.2849 96.5464 61.63 96.2172L61.8516 96.0064L62.1436 95.9203C62.287 95.8778 62.436 95.856 62.5866 95.856C63.223 95.856 63.6998 96.2206 64.0884 96.5736L64.7155 94.3561L65.732 96.1018C65.8725 95.9719 65.9734 95.8428 65.9949 95.7172L68.4452 95.6461L68.4689 95.6227C68.898 95.2002 69.4322 94.6751 70.2002 94.6751C70.8707 94.6751 71.3087 95.0324 71.5978 95.4672L72.5961 95.0618C72.605 94.9447 72.6109 94.8314 72.6156 94.739L72.7113 92.8209L74.4275 93.6518C74.6959 93.7816 74.8908 93.9541 75.0334 94.1389C75.101 93.8787 75.1697 93.5125 75.2491 92.9959L75.7689 89.6035L77.6847 92.694C77.8336 92.6944 78.0028 92.7034 78.1868 92.714C78.3531 92.7242 78.5345 92.7353 78.7619 92.737L78.8219 92.7383C79.0337 92.7383 79.2236 92.6974 79.3721 92.6203C79.481 92.5637 79.527 92.5058 79.5612 92.3827L80.446 89.2074L81.4457 91.2184C81.5364 91.1856 81.6161 91.1596 81.6803 91.1387C82.0803 91.011 82.4997 90.942 82.8698 90.8811C83.0576 90.85 83.2445 90.8197 83.423 90.7806C83.4564 90.7733 83.4872 90.7661 83.515 90.7597C83.4496 90.6141 83.3399 90.4084 83.1576 90.1341L82.9162 89.7696C82.9162 89.7696 82.961 89.1346 82.9669 89.0362C82.4006 88.7147 82.1077 88.1359 81.9858 87.8953L81.8854 87.6892C81.8389 87.5942 81.7778 87.4673 81.7254 87.3724L80.5169 87.1616L80.9958 85.7447C81.1731 85.2209 81.7014 84.6604 82.6529 84.6604C83.3943 84.6604 84.4032 85.0097 84.867 85.7758C84.878 85.7937 84.8881 85.812 84.8982 85.8299C85.1636 85.668 85.5122 85.5143 85.9451 85.5143C86.0143 85.5143 86.0827 85.5181 86.151 85.5258C86.4907 85.1608 86.8308 84.8359 87.1422 84.5489C87.6765 83.9812 88.2478 83.4403 88.7356 82.9796C88.8343 82.882 88.9373 82.7862 89.0398 82.6904C89.201 82.5413 89.3534 82.3999 89.4753 82.2577C89.7103 81.9898 89.942 81.719 90.153 81.4596C90.153 81.4596 90.3281 81.2369 90.3627 81.1939L88.7483 80.7403L89.7234 79.0135L89.0677 78.7341L90.7399 77.3935C90.8695 77.2896 91.002 77.2014 91.137 77.1282C91.1657 76.8926 91.2311 76.6797 91.3062 76.4996L91.437 76.1853L91.7012 75.9821C91.4624 75.5184 91.4565 75.11 91.4531 74.8919C91.4615 75.1283 91.5797 75.3557 91.7387 75.5265L91.6096 73.2677C91.7468 73.2583 91.8286 73.2293 91.8451 73.2213C91.8966 73.1927 91.9464 73.1455 91.9961 73.0782C92.1422 72.881 92.2662 72.5463 92.362 72.1008L92.3759 72.0318C92.4194 71.8163 92.4603 71.6128 92.473 71.4688L92.4818 71.3411C92.4979 71.1128 92.5131 70.8973 92.5342 70.7027C92.5489 70.5715 92.5692 70.3863 92.616 70.1789C92.3675 69.8122 92.2084 69.4285 92.1341 69.0205C92.1261 68.9835 92.1189 68.9464 92.1122 68.9098Z" fill="black"/>
<path d="M85.4327 74.5068C85.431 74.5191 85.4289 74.5319 85.4268 74.5438L85.7622 74.4753C85.6238 74.4846 85.5162 74.4957 85.4327 74.5068Z" fill="black"/>
<path d="M93.2675 64.9197L91.6392 65.7889L91.8337 65.8077C92.0582 65.8294 92.2582 65.8405 92.4278 65.8405C92.6439 65.8405 92.7696 65.8226 92.8359 65.8089C92.8392 65.8017 92.843 65.7945 92.8477 65.7855C92.8797 65.7272 92.9068 65.6654 92.935 65.6028C93.0177 65.4227 93.1207 65.1965 93.284 64.9576C93.2781 64.9449 93.273 64.9321 93.2675 64.9197Z" fill="black"/>
</g>
<defs>
<clipPath id="clip0_38_1326">
<rect width="130" height="133" fill="white"/>
</clipPath>
</defs>
</svg>
